G04 #@! TF.GenerationSoftware,KiCad,Pcbnew,(5.1.5)-3*
G04 #@! TF.CreationDate,2020-01-17T15:00:15+01:00*
G04 #@! TF.ProjectId,3x3_board,3378335f-626f-4617-9264-2e6b69636164,rev?*
G04 #@! TF.SameCoordinates,Original*
G04 #@! TF.FileFunction,Legend,Top*
G04 #@! TF.FilePolarity,Positive*
%FSLAX46Y46*%
G04 Gerber Fmt 4.6, Leading zero omitted, Abs format (unit mm)*
G04 Created by KiCad (PCBNEW (5.1.5)-3) date 2020-01-17 15:00:15*
%MOMM*%
%LPD*%
G04 APERTURE LIST*
%ADD10C,0.120000*%
%ADD11C,0.200000*%
%ADD12C,0.300000*%
%ADD13C,0.150000*%
G04 APERTURE END LIST*
D10*
X117748000Y-56106000D02*
X120542000Y-55217000D01*
X115843000Y-55852000D02*
X118002000Y-55217000D01*
X114319000Y-55725000D02*
X115335000Y-55217000D01*
X111906000Y-55725000D02*
X112414000Y-55217000D01*
D11*
X112300761Y-58463285D02*
X112348380Y-58320428D01*
X112348380Y-58082333D01*
X112300761Y-57987095D01*
X112253142Y-57939476D01*
X112157904Y-57891857D01*
X112062666Y-57891857D01*
X111967428Y-57939476D01*
X111919809Y-57987095D01*
X111872190Y-58082333D01*
X111824571Y-58272809D01*
X111776952Y-58368047D01*
X111729333Y-58415666D01*
X111634095Y-58463285D01*
X111538857Y-58463285D01*
X111443619Y-58415666D01*
X111396000Y-58368047D01*
X111348380Y-58272809D01*
X111348380Y-58034714D01*
X111396000Y-57891857D01*
X112348380Y-57463285D02*
X111348380Y-57463285D01*
X111348380Y-57225190D01*
X111396000Y-57082333D01*
X111491238Y-56987095D01*
X111586476Y-56939476D01*
X111776952Y-56891857D01*
X111919809Y-56891857D01*
X112110285Y-56939476D01*
X112205523Y-56987095D01*
X112300761Y-57082333D01*
X112348380Y-57225190D01*
X112348380Y-57463285D01*
X112062666Y-56510904D02*
X112062666Y-56034714D01*
X112348380Y-56606142D02*
X111348380Y-56272809D01*
X112348380Y-55939476D01*
X114000761Y-58439476D02*
X114048380Y-58296619D01*
X114048380Y-58058523D01*
X114000761Y-57963285D01*
X113953142Y-57915666D01*
X113857904Y-57868047D01*
X113762666Y-57868047D01*
X113667428Y-57915666D01*
X113619809Y-57963285D01*
X113572190Y-58058523D01*
X113524571Y-58249000D01*
X113476952Y-58344238D01*
X113429333Y-58391857D01*
X113334095Y-58439476D01*
X113238857Y-58439476D01*
X113143619Y-58391857D01*
X113096000Y-58344238D01*
X113048380Y-58249000D01*
X113048380Y-58010904D01*
X113096000Y-57868047D01*
X113953142Y-56868047D02*
X114000761Y-56915666D01*
X114048380Y-57058523D01*
X114048380Y-57153761D01*
X114000761Y-57296619D01*
X113905523Y-57391857D01*
X113810285Y-57439476D01*
X113619809Y-57487095D01*
X113476952Y-57487095D01*
X113286476Y-57439476D01*
X113191238Y-57391857D01*
X113096000Y-57296619D01*
X113048380Y-57153761D01*
X113048380Y-57058523D01*
X113096000Y-56915666D01*
X113143619Y-56868047D01*
X114048380Y-55963285D02*
X114048380Y-56439476D01*
X113048380Y-56439476D01*
X114748380Y-58487095D02*
X114748380Y-57868047D01*
X115129333Y-58201380D01*
X115129333Y-58058523D01*
X115176952Y-57963285D01*
X115224571Y-57915666D01*
X115319809Y-57868047D01*
X115557904Y-57868047D01*
X115653142Y-57915666D01*
X115700761Y-57963285D01*
X115748380Y-58058523D01*
X115748380Y-58344238D01*
X115700761Y-58439476D01*
X115653142Y-58487095D01*
X114748380Y-57582333D02*
X115748380Y-57249000D01*
X114748380Y-56915666D01*
X114748380Y-56677571D02*
X114748380Y-56058523D01*
X115129333Y-56391857D01*
X115129333Y-56249000D01*
X115176952Y-56153761D01*
X115224571Y-56106142D01*
X115319809Y-56058523D01*
X115557904Y-56058523D01*
X115653142Y-56106142D01*
X115700761Y-56153761D01*
X115748380Y-56249000D01*
X115748380Y-56534714D01*
X115700761Y-56629952D01*
X115653142Y-56677571D01*
X116496000Y-58010904D02*
X116448380Y-58106142D01*
X116448380Y-58249000D01*
X116496000Y-58391857D01*
X116591238Y-58487095D01*
X116686476Y-58534714D01*
X116876952Y-58582333D01*
X117019809Y-58582333D01*
X117210285Y-58534714D01*
X117305523Y-58487095D01*
X117400761Y-58391857D01*
X117448380Y-58249000D01*
X117448380Y-58153761D01*
X117400761Y-58010904D01*
X117353142Y-57963285D01*
X117019809Y-57963285D01*
X117019809Y-58153761D01*
X117448380Y-57534714D02*
X116448380Y-57534714D01*
X117448380Y-56963285D01*
X116448380Y-56963285D01*
X117448380Y-56487095D02*
X116448380Y-56487095D01*
X116448380Y-56249000D01*
X116496000Y-56106142D01*
X116591238Y-56010904D01*
X116686476Y-55963285D01*
X116876952Y-55915666D01*
X117019809Y-55915666D01*
X117210285Y-55963285D01*
X117305523Y-56010904D01*
X117400761Y-56106142D01*
X117448380Y-56249000D01*
X117448380Y-56487095D01*
D12*
X137560142Y-55737000D02*
X137417285Y-55665571D01*
X137203000Y-55665571D01*
X136988714Y-55737000D01*
X136845857Y-55879857D01*
X136774428Y-56022714D01*
X136703000Y-56308428D01*
X136703000Y-56522714D01*
X136774428Y-56808428D01*
X136845857Y-56951285D01*
X136988714Y-57094142D01*
X137203000Y-57165571D01*
X137345857Y-57165571D01*
X137560142Y-57094142D01*
X137631571Y-57022714D01*
X137631571Y-56522714D01*
X137345857Y-56522714D01*
X138274428Y-57165571D02*
X138274428Y-55665571D01*
X139131571Y-57165571D01*
X139131571Y-55665571D01*
X139845857Y-57165571D02*
X139845857Y-55665571D01*
X140203000Y-55665571D01*
X140417285Y-55737000D01*
X140560142Y-55879857D01*
X140631571Y-56022714D01*
X140703000Y-56308428D01*
X140703000Y-56522714D01*
X140631571Y-56808428D01*
X140560142Y-56951285D01*
X140417285Y-57094142D01*
X140203000Y-57165571D01*
X139845857Y-57165571D01*
X133786142Y-54427142D02*
X134000428Y-54498571D01*
X134357571Y-54498571D01*
X134500428Y-54427142D01*
X134571857Y-54355714D01*
X134643285Y-54212857D01*
X134643285Y-54070000D01*
X134571857Y-53927142D01*
X134500428Y-53855714D01*
X134357571Y-53784285D01*
X134071857Y-53712857D01*
X133929000Y-53641428D01*
X133857571Y-53570000D01*
X133786142Y-53427142D01*
X133786142Y-53284285D01*
X133857571Y-53141428D01*
X133929000Y-53070000D01*
X134071857Y-52998571D01*
X134429000Y-52998571D01*
X134643285Y-53070000D01*
X135143285Y-52998571D02*
X135500428Y-54498571D01*
X135786142Y-53427142D01*
X136071857Y-54498571D01*
X136429000Y-52998571D01*
X137857571Y-54355714D02*
X137786142Y-54427142D01*
X137571857Y-54498571D01*
X137429000Y-54498571D01*
X137214714Y-54427142D01*
X137071857Y-54284285D01*
X137000428Y-54141428D01*
X136929000Y-53855714D01*
X136929000Y-53641428D01*
X137000428Y-53355714D01*
X137071857Y-53212857D01*
X137214714Y-53070000D01*
X137429000Y-52998571D01*
X137571857Y-52998571D01*
X137786142Y-53070000D01*
X137857571Y-53141428D01*
X139214714Y-54498571D02*
X138500428Y-54498571D01*
X138500428Y-52998571D01*
X139714714Y-54498571D02*
X139714714Y-52998571D01*
X140571857Y-54498571D02*
X139929000Y-53641428D01*
X140571857Y-52998571D02*
X139714714Y-53855714D01*
X134254428Y-51887142D02*
X134468714Y-51958571D01*
X134825857Y-51958571D01*
X134968714Y-51887142D01*
X135040142Y-51815714D01*
X135111571Y-51672857D01*
X135111571Y-51530000D01*
X135040142Y-51387142D01*
X134968714Y-51315714D01*
X134825857Y-51244285D01*
X134540142Y-51172857D01*
X134397285Y-51101428D01*
X134325857Y-51030000D01*
X134254428Y-50887142D01*
X134254428Y-50744285D01*
X134325857Y-50601428D01*
X134397285Y-50530000D01*
X134540142Y-50458571D01*
X134897285Y-50458571D01*
X135111571Y-50530000D01*
X135611571Y-50458571D02*
X135968714Y-51958571D01*
X136254428Y-50887142D01*
X136540142Y-51958571D01*
X136897285Y-50458571D01*
X137468714Y-51958571D02*
X137468714Y-50458571D01*
X137825857Y-50458571D01*
X138040142Y-50530000D01*
X138183000Y-50672857D01*
X138254428Y-50815714D01*
X138325857Y-51101428D01*
X138325857Y-51315714D01*
X138254428Y-51601428D01*
X138183000Y-51744285D01*
X138040142Y-51887142D01*
X137825857Y-51958571D01*
X137468714Y-51958571D01*
X138968714Y-51958571D02*
X138968714Y-50458571D01*
X139968714Y-50458571D02*
X140254428Y-50458571D01*
X140397285Y-50530000D01*
X140540142Y-50672857D01*
X140611571Y-50958571D01*
X140611571Y-51458571D01*
X140540142Y-51744285D01*
X140397285Y-51887142D01*
X140254428Y-51958571D01*
X139968714Y-51958571D01*
X139825857Y-51887142D01*
X139683000Y-51744285D01*
X139611571Y-51458571D01*
X139611571Y-50958571D01*
X139683000Y-50672857D01*
X139825857Y-50530000D01*
X139968714Y-50458571D01*
X136845857Y-47918571D02*
X137774428Y-47918571D01*
X137274428Y-48490000D01*
X137488714Y-48490000D01*
X137631571Y-48561428D01*
X137703000Y-48632857D01*
X137774428Y-48775714D01*
X137774428Y-49132857D01*
X137703000Y-49275714D01*
X137631571Y-49347142D01*
X137488714Y-49418571D01*
X137060142Y-49418571D01*
X136917285Y-49347142D01*
X136845857Y-49275714D01*
X138203000Y-47918571D02*
X138703000Y-49418571D01*
X139203000Y-47918571D01*
X139560142Y-47918571D02*
X140488714Y-47918571D01*
X139988714Y-48490000D01*
X140203000Y-48490000D01*
X140345857Y-48561428D01*
X140417285Y-48632857D01*
X140488714Y-48775714D01*
X140488714Y-49132857D01*
X140417285Y-49275714D01*
X140345857Y-49347142D01*
X140203000Y-49418571D01*
X139774428Y-49418571D01*
X139631571Y-49347142D01*
X139560142Y-49275714D01*
X133576475Y-47746001D02*
X133930029Y-47392447D01*
X134637136Y-47796508D02*
X134132059Y-48301585D01*
X133071399Y-47240925D01*
X133576475Y-46735848D01*
X135091704Y-47341940D02*
X134384597Y-46634833D01*
X134586628Y-46836863D02*
X134536120Y-46685341D01*
X134536120Y-46584325D01*
X134586628Y-46432802D01*
X134687643Y-46331787D01*
X135748303Y-46685341D02*
X134687643Y-45624680D01*
X136202872Y-46230772D02*
X135647288Y-45675188D01*
X135495765Y-45624680D01*
X135344242Y-45675188D01*
X135192719Y-45826711D01*
X135142212Y-45978234D01*
X135142212Y-46079249D01*
X137162517Y-45271127D02*
X136606933Y-44715543D01*
X136455410Y-44665036D01*
X136303887Y-44715543D01*
X136101857Y-44917574D01*
X136051349Y-45069097D01*
X137112009Y-45220619D02*
X137061502Y-45372142D01*
X136808963Y-45624680D01*
X136657441Y-45675188D01*
X136505918Y-45624680D01*
X136404902Y-45523665D01*
X136354395Y-45372142D01*
X136404902Y-45220619D01*
X136657441Y-44968081D01*
X136707948Y-44816558D01*
X136960486Y-44058944D02*
X137667593Y-44766051D01*
X137061502Y-44159959D02*
X137061502Y-44058944D01*
X137112009Y-43907421D01*
X137263532Y-43755898D01*
X137415055Y-43705391D01*
X137566578Y-43755898D01*
X138122162Y-44311482D01*
X139031299Y-43301330D02*
X138980791Y-43452852D01*
X138778761Y-43654883D01*
X138627238Y-43705391D01*
X138526223Y-43705391D01*
X138374700Y-43654883D01*
X138071654Y-43351837D01*
X138021147Y-43200314D01*
X138021147Y-43099299D01*
X138071654Y-42947776D01*
X138273685Y-42745746D01*
X138425208Y-42695238D01*
X139536375Y-42897269D02*
X138829269Y-42190162D01*
X138930284Y-42291177D02*
X138930284Y-42190162D01*
X138980791Y-42038639D01*
X139132314Y-41887116D01*
X139283837Y-41836608D01*
X139435360Y-41887116D01*
X139990944Y-42442700D01*
X139435360Y-41887116D02*
X139384852Y-41735593D01*
X139435360Y-41584070D01*
X139586883Y-41432547D01*
X139738406Y-41382040D01*
X139889929Y-41432547D01*
X140445513Y-41988131D01*
X140849574Y-41382040D02*
X140950589Y-41382040D01*
X140950589Y-41483055D01*
X140849574Y-41483055D01*
X140849574Y-41382040D01*
X140950589Y-41483055D01*
X141859726Y-40472902D02*
X141809219Y-40624425D01*
X141607188Y-40826456D01*
X141455665Y-40876963D01*
X141354650Y-40876963D01*
X141203127Y-40826456D01*
X140900081Y-40523410D01*
X140849574Y-40371887D01*
X140849574Y-40270872D01*
X140900081Y-40119349D01*
X141102112Y-39917319D01*
X141253635Y-39866811D01*
X142516325Y-39917319D02*
X142364802Y-39967826D01*
X142263787Y-39967826D01*
X142112264Y-39917319D01*
X141809219Y-39614273D01*
X141758711Y-39462750D01*
X141758711Y-39361735D01*
X141809219Y-39210212D01*
X141960741Y-39058689D01*
X142112264Y-39008181D01*
X142213280Y-39008181D01*
X142364802Y-39058689D01*
X142667848Y-39361735D01*
X142718356Y-39513258D01*
X142718356Y-39614273D01*
X142667848Y-39765796D01*
X142516325Y-39917319D01*
X143324447Y-39109197D02*
X142617341Y-38402090D01*
X142718356Y-38503105D02*
X142718356Y-38402090D01*
X142768863Y-38250567D01*
X142920386Y-38099044D01*
X143071909Y-38048536D01*
X143223432Y-38099044D01*
X143779016Y-38654628D01*
X143223432Y-38099044D02*
X143172925Y-37947521D01*
X143223432Y-37795998D01*
X143374955Y-37644475D01*
X143526478Y-37593968D01*
X143678001Y-37644475D01*
X144233585Y-38200059D01*
D10*
X94742000Y-102870000D02*
G75*
G03X94742000Y-102870000I-190500J0D01*
G01*
X94742000Y-120650000D02*
G75*
G03X94742000Y-120650000I-190500J0D01*
G01*
X112522000Y-120650000D02*
G75*
G03X112522000Y-120650000I-190500J0D01*
G01*
X112522000Y-102870000D02*
G75*
G03X112522000Y-102870000I-190500J0D01*
G01*
X130302000Y-102870000D02*
G75*
G03X130302000Y-102870000I-190500J0D01*
G01*
X130302000Y-120650000D02*
G75*
G03X130302000Y-120650000I-190500J0D01*
G01*
X130302000Y-85090000D02*
G75*
G03X130302000Y-85090000I-190500J0D01*
G01*
X112522000Y-85090000D02*
G75*
G03X112522000Y-85090000I-190500J0D01*
G01*
X94742000Y-85090000D02*
G75*
G03X94742000Y-85090000I-190500J0D01*
G01*
X78990000Y-64620000D02*
X91990000Y-64620000D01*
X91990000Y-64620000D02*
X91990000Y-78220000D01*
X91990000Y-78220000D02*
X78990000Y-78220000D01*
X78990000Y-78220000D02*
X78990000Y-64620000D01*
X81190000Y-76320000D02*
X89790000Y-76320000D01*
X89790000Y-76320000D02*
X89790000Y-77520000D01*
X89790000Y-77520000D02*
X81190000Y-77520000D01*
X81190000Y-77520000D02*
X81190000Y-76320000D01*
X128990000Y-64620000D02*
X141990000Y-64620000D01*
X141990000Y-64620000D02*
X141990000Y-78220000D01*
X141990000Y-78220000D02*
X128990000Y-78220000D01*
X128990000Y-78220000D02*
X128990000Y-64620000D01*
X131190000Y-76320000D02*
X139790000Y-76320000D01*
X139790000Y-76320000D02*
X139790000Y-77520000D01*
X139790000Y-77520000D02*
X131190000Y-77520000D01*
X131190000Y-77520000D02*
X131190000Y-76320000D01*
X128990000Y-89620000D02*
X141990000Y-89620000D01*
X141990000Y-89620000D02*
X141990000Y-103220000D01*
X141990000Y-103220000D02*
X128990000Y-103220000D01*
X128990000Y-103220000D02*
X128990000Y-89620000D01*
X131190000Y-101320000D02*
X139790000Y-101320000D01*
X139790000Y-101320000D02*
X139790000Y-102520000D01*
X139790000Y-102520000D02*
X131190000Y-102520000D01*
X131190000Y-102520000D02*
X131190000Y-101320000D01*
X78990000Y-34220000D02*
X91990000Y-34220000D01*
X91990000Y-34220000D02*
X91990000Y-47820000D01*
X91990000Y-47820000D02*
X78990000Y-47820000D01*
X78990000Y-47820000D02*
X78990000Y-34220000D01*
X81190000Y-45920000D02*
X89790000Y-45920000D01*
X89790000Y-45920000D02*
X89790000Y-47120000D01*
X89790000Y-47120000D02*
X81190000Y-47120000D01*
X81190000Y-47120000D02*
X81190000Y-45920000D01*
X128990000Y-114620000D02*
X141990000Y-114620000D01*
X141990000Y-114620000D02*
X141990000Y-128220000D01*
X141990000Y-128220000D02*
X128990000Y-128220000D01*
X128990000Y-128220000D02*
X128990000Y-114620000D01*
X131190000Y-126320000D02*
X139790000Y-126320000D01*
X139790000Y-126320000D02*
X139790000Y-127520000D01*
X139790000Y-127520000D02*
X131190000Y-127520000D01*
X131190000Y-127520000D02*
X131190000Y-126320000D01*
X103990000Y-114620000D02*
X116990000Y-114620000D01*
X116990000Y-114620000D02*
X116990000Y-128220000D01*
X116990000Y-128220000D02*
X103990000Y-128220000D01*
X103990000Y-128220000D02*
X103990000Y-114620000D01*
X106190000Y-126320000D02*
X114790000Y-126320000D01*
X114790000Y-126320000D02*
X114790000Y-127520000D01*
X114790000Y-127520000D02*
X106190000Y-127520000D01*
X106190000Y-127520000D02*
X106190000Y-126320000D01*
X103990000Y-89620000D02*
X116990000Y-89620000D01*
X116990000Y-89620000D02*
X116990000Y-103220000D01*
X116990000Y-103220000D02*
X103990000Y-103220000D01*
X103990000Y-103220000D02*
X103990000Y-89620000D01*
X106190000Y-101320000D02*
X114790000Y-101320000D01*
X114790000Y-101320000D02*
X114790000Y-102520000D01*
X114790000Y-102520000D02*
X106190000Y-102520000D01*
X106190000Y-102520000D02*
X106190000Y-101320000D01*
X103990000Y-64620000D02*
X116990000Y-64620000D01*
X116990000Y-64620000D02*
X116990000Y-78220000D01*
X116990000Y-78220000D02*
X103990000Y-78220000D01*
X103990000Y-78220000D02*
X103990000Y-64620000D01*
X106190000Y-76320000D02*
X114790000Y-76320000D01*
X114790000Y-76320000D02*
X114790000Y-77520000D01*
X114790000Y-77520000D02*
X106190000Y-77520000D01*
X106190000Y-77520000D02*
X106190000Y-76320000D01*
X78990000Y-114620000D02*
X91990000Y-114620000D01*
X91990000Y-114620000D02*
X91990000Y-128220000D01*
X91990000Y-128220000D02*
X78990000Y-128220000D01*
X78990000Y-128220000D02*
X78990000Y-114620000D01*
X81190000Y-126320000D02*
X89790000Y-126320000D01*
X89790000Y-126320000D02*
X89790000Y-127520000D01*
X89790000Y-127520000D02*
X81190000Y-127520000D01*
X81190000Y-127520000D02*
X81190000Y-126320000D01*
X78990000Y-89620000D02*
X91990000Y-89620000D01*
X91990000Y-89620000D02*
X91990000Y-103220000D01*
X91990000Y-103220000D02*
X78990000Y-103220000D01*
X78990000Y-103220000D02*
X78990000Y-89620000D01*
X81190000Y-101320000D02*
X89790000Y-101320000D01*
X89790000Y-101320000D02*
X89790000Y-102520000D01*
X89790000Y-102520000D02*
X81190000Y-102520000D01*
X81190000Y-102520000D02*
X81190000Y-101320000D01*
X125963000Y-56832221D02*
X125963000Y-57157779D01*
X126983000Y-56832221D02*
X126983000Y-57157779D01*
X125332000Y-57157779D02*
X125332000Y-56832221D01*
X124312000Y-57157779D02*
X124312000Y-56832221D01*
X95579000Y-52695000D02*
X95579000Y-54155000D01*
X92419000Y-52695000D02*
X92419000Y-54855000D01*
X92419000Y-52695000D02*
X93349000Y-52695000D01*
X95579000Y-52695000D02*
X94649000Y-52695000D01*
X119542779Y-56358000D02*
X119217221Y-56358000D01*
X119542779Y-57378000D02*
X119217221Y-57378000D01*
X136674000Y-40360000D02*
X136674000Y-34610000D01*
X133074000Y-40360000D02*
X136674000Y-40360000D01*
X133074000Y-34610000D02*
X133074000Y-40360000D01*
X81932000Y-49677221D02*
X81932000Y-50002779D01*
X82952000Y-49677221D02*
X82952000Y-50002779D01*
X80408000Y-49677221D02*
X80408000Y-50002779D01*
X81428000Y-49677221D02*
X81428000Y-50002779D01*
X83456000Y-49677221D02*
X83456000Y-50002779D01*
X84476000Y-49677221D02*
X84476000Y-50002779D01*
X91334000Y-49748779D02*
X91334000Y-49423221D01*
X90314000Y-49748779D02*
X90314000Y-49423221D01*
X88790000Y-49423221D02*
X88790000Y-49748779D01*
X89810000Y-49423221D02*
X89810000Y-49748779D01*
X131932000Y-105049221D02*
X131932000Y-105374779D01*
X132952000Y-105049221D02*
X132952000Y-105374779D01*
X130408000Y-105049221D02*
X130408000Y-105374779D01*
X131428000Y-105049221D02*
X131428000Y-105374779D01*
X133456000Y-105049221D02*
X133456000Y-105374779D01*
X134476000Y-105049221D02*
X134476000Y-105374779D01*
X141334000Y-105120779D02*
X141334000Y-104795221D01*
X140314000Y-105120779D02*
X140314000Y-104795221D01*
X138790000Y-104795221D02*
X138790000Y-105120779D01*
X139810000Y-104795221D02*
X139810000Y-105120779D01*
X106932000Y-105049221D02*
X106932000Y-105374779D01*
X107952000Y-105049221D02*
X107952000Y-105374779D01*
X105408000Y-105049221D02*
X105408000Y-105374779D01*
X106428000Y-105049221D02*
X106428000Y-105374779D01*
X108456000Y-105049221D02*
X108456000Y-105374779D01*
X109476000Y-105049221D02*
X109476000Y-105374779D01*
X116334000Y-105120779D02*
X116334000Y-104795221D01*
X115314000Y-105120779D02*
X115314000Y-104795221D01*
X113790000Y-104795221D02*
X113790000Y-105120779D01*
X114810000Y-104795221D02*
X114810000Y-105120779D01*
X81932000Y-105049221D02*
X81932000Y-105374779D01*
X82952000Y-105049221D02*
X82952000Y-105374779D01*
X80408000Y-105049221D02*
X80408000Y-105374779D01*
X81428000Y-105049221D02*
X81428000Y-105374779D01*
X83456000Y-105049221D02*
X83456000Y-105374779D01*
X84476000Y-105049221D02*
X84476000Y-105374779D01*
X91334000Y-105120779D02*
X91334000Y-104795221D01*
X90314000Y-105120779D02*
X90314000Y-104795221D01*
X88790000Y-104795221D02*
X88790000Y-105120779D01*
X89810000Y-104795221D02*
X89810000Y-105120779D01*
X131932000Y-129993221D02*
X131932000Y-130318779D01*
X132952000Y-129993221D02*
X132952000Y-130318779D01*
X130408000Y-129993221D02*
X130408000Y-130318779D01*
X131428000Y-129993221D02*
X131428000Y-130318779D01*
X133456000Y-129993221D02*
X133456000Y-130318779D01*
X134476000Y-129993221D02*
X134476000Y-130318779D01*
X141334000Y-130064779D02*
X141334000Y-129739221D01*
X140314000Y-130064779D02*
X140314000Y-129739221D01*
X138790000Y-129739221D02*
X138790000Y-130064779D01*
X139810000Y-129739221D02*
X139810000Y-130064779D01*
X106932000Y-129993221D02*
X106932000Y-130318779D01*
X107952000Y-129993221D02*
X107952000Y-130318779D01*
X105408000Y-129993221D02*
X105408000Y-130318779D01*
X106428000Y-129993221D02*
X106428000Y-130318779D01*
X108456000Y-129993221D02*
X108456000Y-130318779D01*
X109476000Y-129993221D02*
X109476000Y-130318779D01*
X116334000Y-130064779D02*
X116334000Y-129739221D01*
X115314000Y-130064779D02*
X115314000Y-129739221D01*
X113790000Y-129739221D02*
X113790000Y-130064779D01*
X114810000Y-129739221D02*
X114810000Y-130064779D01*
X81932000Y-129993221D02*
X81932000Y-130318779D01*
X82952000Y-129993221D02*
X82952000Y-130318779D01*
X80408000Y-129993221D02*
X80408000Y-130318779D01*
X81428000Y-129993221D02*
X81428000Y-130318779D01*
X83456000Y-129993221D02*
X83456000Y-130318779D01*
X84476000Y-129993221D02*
X84476000Y-130318779D01*
X91334000Y-130064779D02*
X91334000Y-129739221D01*
X90314000Y-130064779D02*
X90314000Y-129739221D01*
X88790000Y-129739221D02*
X88790000Y-130064779D01*
X89810000Y-129739221D02*
X89810000Y-130064779D01*
X131932000Y-79993221D02*
X131932000Y-80318779D01*
X132952000Y-79993221D02*
X132952000Y-80318779D01*
X130408000Y-79993221D02*
X130408000Y-80318779D01*
X131428000Y-79993221D02*
X131428000Y-80318779D01*
X133456000Y-79993221D02*
X133456000Y-80318779D01*
X134476000Y-79993221D02*
X134476000Y-80318779D01*
X140314000Y-79739221D02*
X140314000Y-80064779D01*
X141334000Y-79739221D02*
X141334000Y-80064779D01*
X138790000Y-79739221D02*
X138790000Y-80064779D01*
X139810000Y-79739221D02*
X139810000Y-80064779D01*
X106932000Y-79993221D02*
X106932000Y-80318779D01*
X107952000Y-79993221D02*
X107952000Y-80318779D01*
X105408000Y-79993221D02*
X105408000Y-80318779D01*
X106428000Y-79993221D02*
X106428000Y-80318779D01*
X108456000Y-79993221D02*
X108456000Y-80318779D01*
X109476000Y-79993221D02*
X109476000Y-80318779D01*
X116334000Y-80064779D02*
X116334000Y-79739221D01*
X115314000Y-80064779D02*
X115314000Y-79739221D01*
X113790000Y-79739221D02*
X113790000Y-80064779D01*
X114810000Y-79739221D02*
X114810000Y-80064779D01*
X81932000Y-79993221D02*
X81932000Y-80318779D01*
X82952000Y-79993221D02*
X82952000Y-80318779D01*
X80408000Y-79993221D02*
X80408000Y-80318779D01*
X81428000Y-79993221D02*
X81428000Y-80318779D01*
X83456000Y-79993221D02*
X83456000Y-80318779D01*
X84476000Y-79993221D02*
X84476000Y-80318779D01*
X91334000Y-80064779D02*
X91334000Y-79739221D01*
X90314000Y-80064779D02*
X90314000Y-79739221D01*
X88790000Y-79739221D02*
X88790000Y-80064779D01*
X89810000Y-79739221D02*
X89810000Y-80064779D01*
X85053000Y-50600000D02*
X85053000Y-49140000D01*
X88213000Y-50600000D02*
X88213000Y-48440000D01*
X88213000Y-50600000D02*
X87283000Y-50600000D01*
X85053000Y-50600000D02*
X85983000Y-50600000D01*
X135053000Y-105972000D02*
X135053000Y-104512000D01*
X138213000Y-105972000D02*
X138213000Y-103812000D01*
X138213000Y-105972000D02*
X137283000Y-105972000D01*
X135053000Y-105972000D02*
X135983000Y-105972000D01*
X110053000Y-105972000D02*
X110053000Y-104512000D01*
X113213000Y-105972000D02*
X113213000Y-103812000D01*
X113213000Y-105972000D02*
X112283000Y-105972000D01*
X110053000Y-105972000D02*
X110983000Y-105972000D01*
X85053000Y-105972000D02*
X85053000Y-104512000D01*
X88213000Y-105972000D02*
X88213000Y-103812000D01*
X88213000Y-105972000D02*
X87283000Y-105972000D01*
X85053000Y-105972000D02*
X85983000Y-105972000D01*
X135053000Y-130916000D02*
X135053000Y-129456000D01*
X138213000Y-130916000D02*
X138213000Y-128756000D01*
X138213000Y-130916000D02*
X137283000Y-130916000D01*
X135053000Y-130916000D02*
X135983000Y-130916000D01*
X110053000Y-130916000D02*
X110053000Y-129456000D01*
X113213000Y-130916000D02*
X113213000Y-128756000D01*
X113213000Y-130916000D02*
X112283000Y-130916000D01*
X110053000Y-130916000D02*
X110983000Y-130916000D01*
X85053000Y-130916000D02*
X85053000Y-129456000D01*
X88213000Y-130916000D02*
X88213000Y-128756000D01*
X88213000Y-130916000D02*
X87283000Y-130916000D01*
X85053000Y-130916000D02*
X85983000Y-130916000D01*
X135053000Y-80916000D02*
X135053000Y-79456000D01*
X138213000Y-80916000D02*
X138213000Y-78756000D01*
X138213000Y-80916000D02*
X137283000Y-80916000D01*
X135053000Y-80916000D02*
X135983000Y-80916000D01*
X110053000Y-80916000D02*
X110053000Y-79456000D01*
X113213000Y-80916000D02*
X113213000Y-78756000D01*
X113213000Y-80916000D02*
X112283000Y-80916000D01*
X110053000Y-80916000D02*
X110983000Y-80916000D01*
X85053000Y-80916000D02*
X85053000Y-79456000D01*
X88213000Y-80916000D02*
X88213000Y-78756000D01*
X88213000Y-80916000D02*
X87283000Y-80916000D01*
X85053000Y-80916000D02*
X85983000Y-80916000D01*
X84090000Y-47638000D02*
X84090000Y-45438000D01*
X86890000Y-47638000D02*
X84090000Y-47638000D01*
X86890000Y-45438000D02*
X86890000Y-47638000D01*
X84090000Y-45438000D02*
X86890000Y-45438000D01*
X134090000Y-103010000D02*
X134090000Y-100810000D01*
X136890000Y-103010000D02*
X134090000Y-103010000D01*
X136890000Y-100810000D02*
X136890000Y-103010000D01*
X134090000Y-100810000D02*
X136890000Y-100810000D01*
X109090000Y-103010000D02*
X109090000Y-100810000D01*
X111890000Y-103010000D02*
X109090000Y-103010000D01*
X111890000Y-100810000D02*
X111890000Y-103010000D01*
X109090000Y-100810000D02*
X111890000Y-100810000D01*
X84090000Y-103010000D02*
X84090000Y-100810000D01*
X86890000Y-103010000D02*
X84090000Y-103010000D01*
X86890000Y-100810000D02*
X86890000Y-103010000D01*
X84090000Y-100810000D02*
X86890000Y-100810000D01*
X134090000Y-127954000D02*
X134090000Y-125754000D01*
X136890000Y-127954000D02*
X134090000Y-127954000D01*
X136890000Y-125754000D02*
X136890000Y-127954000D01*
X134090000Y-125754000D02*
X136890000Y-125754000D01*
X109090000Y-127954000D02*
X109090000Y-125754000D01*
X111890000Y-127954000D02*
X109090000Y-127954000D01*
X111890000Y-125754000D02*
X111890000Y-127954000D01*
X109090000Y-125754000D02*
X111890000Y-125754000D01*
X84090000Y-127954000D02*
X84090000Y-125754000D01*
X86890000Y-127954000D02*
X84090000Y-127954000D01*
X86890000Y-125754000D02*
X86890000Y-127954000D01*
X84090000Y-125754000D02*
X86890000Y-125754000D01*
X134090000Y-77954000D02*
X134090000Y-75754000D01*
X136890000Y-77954000D02*
X134090000Y-77954000D01*
X136890000Y-75754000D02*
X136890000Y-77954000D01*
X134090000Y-75754000D02*
X136890000Y-75754000D01*
X109090000Y-77954000D02*
X109090000Y-75754000D01*
X111890000Y-77954000D02*
X109090000Y-77954000D01*
X111890000Y-75754000D02*
X111890000Y-77954000D01*
X109090000Y-75754000D02*
X111890000Y-75754000D01*
X84090000Y-77954000D02*
X84090000Y-75754000D01*
X86890000Y-77954000D02*
X84090000Y-77954000D01*
X86890000Y-75754000D02*
X86890000Y-77954000D01*
X84090000Y-75754000D02*
X86890000Y-75754000D01*
X109720000Y-47250000D02*
X109220000Y-46750000D01*
X108720000Y-47250000D02*
X109720000Y-47250000D01*
X109220000Y-46750000D02*
X108720000Y-47250000D01*
X116630000Y-29810000D02*
X116630000Y-38170000D01*
X104310000Y-29810000D02*
X116630000Y-29810000D01*
X104310000Y-38170000D02*
X104310000Y-29810000D01*
X116630000Y-46530000D02*
X116630000Y-42270000D01*
X104310000Y-46530000D02*
X116630000Y-46530000D01*
X104310000Y-42270000D02*
X104310000Y-46530000D01*
X128614600Y-56700000D02*
X131064600Y-56700000D01*
X130414600Y-53480000D02*
X128614600Y-53480000D01*
X130483000Y-39835000D02*
X131773000Y-39835000D01*
X130483000Y-40285000D02*
X130483000Y-39835000D01*
X130033000Y-40285000D02*
X130483000Y-40285000D01*
X123263000Y-40285000D02*
X123263000Y-39835000D01*
X123713000Y-40285000D02*
X123263000Y-40285000D01*
X130483000Y-33065000D02*
X130483000Y-33515000D01*
X130033000Y-33065000D02*
X130483000Y-33065000D01*
X123263000Y-33065000D02*
X123263000Y-33515000D01*
X123713000Y-33065000D02*
X123263000Y-33065000D01*
X120812779Y-45690000D02*
X120487221Y-45690000D01*
X120812779Y-46710000D02*
X120487221Y-46710000D01*
X120487221Y-45186000D02*
X120812779Y-45186000D01*
X120487221Y-44166000D02*
X120812779Y-44166000D01*
X120487221Y-43662000D02*
X120812779Y-43662000D01*
X120487221Y-42642000D02*
X120812779Y-42642000D01*
X89899221Y-56616000D02*
X90224779Y-56616000D01*
X89899221Y-55596000D02*
X90224779Y-55596000D01*
X83004779Y-57120000D02*
X82679221Y-57120000D01*
X83004779Y-58140000D02*
X82679221Y-58140000D01*
X93582221Y-56616000D02*
X93907779Y-56616000D01*
X93582221Y-55596000D02*
X93907779Y-55596000D01*
X86541779Y-57120000D02*
X86216221Y-57120000D01*
X86541779Y-58140000D02*
X86216221Y-58140000D01*
X86216221Y-56616000D02*
X86541779Y-56616000D01*
X86216221Y-55596000D02*
X86541779Y-55596000D01*
X79321779Y-57120000D02*
X78996221Y-57120000D01*
X79321779Y-58140000D02*
X78996221Y-58140000D01*
X91896000Y-52679000D02*
X91896000Y-54139000D01*
X88736000Y-52679000D02*
X88736000Y-54839000D01*
X88736000Y-52679000D02*
X89666000Y-52679000D01*
X91896000Y-52679000D02*
X90966000Y-52679000D01*
X88213000Y-52679000D02*
X88213000Y-54139000D01*
X85053000Y-52679000D02*
X85053000Y-54839000D01*
X85053000Y-52679000D02*
X85983000Y-52679000D01*
X88213000Y-52679000D02*
X87283000Y-52679000D01*
X131314600Y-48464000D02*
X131314600Y-52064000D01*
X127714600Y-48464000D02*
X131314600Y-48464000D01*
X127714600Y-52064000D02*
X127714600Y-48464000D01*
X131314600Y-52064000D02*
X127714600Y-52064000D01*
X142034000Y-47410000D02*
X143364000Y-47410000D01*
X142034000Y-48740000D02*
X142034000Y-47410000D01*
X142034000Y-50010000D02*
X144694000Y-50010000D01*
X144694000Y-50010000D02*
X144694000Y-57690000D01*
X142034000Y-50010000D02*
X142034000Y-57690000D01*
X142034000Y-57690000D02*
X144694000Y-57690000D01*
X121980000Y-52490000D02*
X121980000Y-53820000D01*
X120650000Y-52490000D02*
X121980000Y-52490000D01*
X119380000Y-52490000D02*
X119380000Y-55150000D01*
X119380000Y-55150000D02*
X111700000Y-55150000D01*
X119380000Y-52490000D02*
X111700000Y-52490000D01*
X111700000Y-52490000D02*
X111700000Y-55150000D01*
X110130000Y-50104064D02*
X110130000Y-48899936D01*
X108310000Y-50104064D02*
X108310000Y-48899936D01*
X125198878Y-48080800D02*
X124681722Y-48080800D01*
X125198878Y-49500800D02*
X124681722Y-49500800D01*
X125544664Y-52910000D02*
X124340536Y-52910000D01*
X125544664Y-54730000D02*
X124340536Y-54730000D01*
X107698000Y-50299779D02*
X107698000Y-49974221D01*
X106678000Y-50299779D02*
X106678000Y-49974221D01*
X132171221Y-41884000D02*
X132496779Y-41884000D01*
X132171221Y-40864000D02*
X132496779Y-40864000D01*
X122426000Y-42227221D02*
X122426000Y-42552779D01*
X123446000Y-42227221D02*
X123446000Y-42552779D01*
X122082779Y-31466000D02*
X121757221Y-31466000D01*
X122082779Y-32486000D02*
X121757221Y-32486000D01*
X132590000Y-31859279D02*
X132590000Y-31533721D01*
X131570000Y-31859279D02*
X131570000Y-31533721D01*
X129284000Y-44259221D02*
X129284000Y-44584779D01*
X130304000Y-44259221D02*
X130304000Y-44584779D01*
X135219221Y-33756000D02*
X135544779Y-33756000D01*
X135219221Y-32736000D02*
X135544779Y-32736000D01*
X135219221Y-41884000D02*
X135544779Y-41884000D01*
X135219221Y-40864000D02*
X135544779Y-40864000D01*
D13*
X84156666Y-65828761D02*
X84299523Y-65876380D01*
X84537619Y-65876380D01*
X84632857Y-65828761D01*
X84680476Y-65781142D01*
X84728095Y-65685904D01*
X84728095Y-65590666D01*
X84680476Y-65495428D01*
X84632857Y-65447809D01*
X84537619Y-65400190D01*
X84347142Y-65352571D01*
X84251904Y-65304952D01*
X84204285Y-65257333D01*
X84156666Y-65162095D01*
X84156666Y-65066857D01*
X84204285Y-64971619D01*
X84251904Y-64924000D01*
X84347142Y-64876380D01*
X84585238Y-64876380D01*
X84728095Y-64924000D01*
X85061428Y-64876380D02*
X85299523Y-65876380D01*
X85490000Y-65162095D01*
X85680476Y-65876380D01*
X85918571Y-64876380D01*
X86823333Y-65876380D02*
X86251904Y-65876380D01*
X86537619Y-65876380D02*
X86537619Y-64876380D01*
X86442380Y-65019238D01*
X86347142Y-65114476D01*
X86251904Y-65162095D01*
X134067666Y-65908761D02*
X134210523Y-65956380D01*
X134448619Y-65956380D01*
X134543857Y-65908761D01*
X134591476Y-65861142D01*
X134639095Y-65765904D01*
X134639095Y-65670666D01*
X134591476Y-65575428D01*
X134543857Y-65527809D01*
X134448619Y-65480190D01*
X134258142Y-65432571D01*
X134162904Y-65384952D01*
X134115285Y-65337333D01*
X134067666Y-65242095D01*
X134067666Y-65146857D01*
X134115285Y-65051619D01*
X134162904Y-65004000D01*
X134258142Y-64956380D01*
X134496238Y-64956380D01*
X134639095Y-65004000D01*
X134972428Y-64956380D02*
X135210523Y-65956380D01*
X135401000Y-65242095D01*
X135591476Y-65956380D01*
X135829571Y-64956380D01*
X136115285Y-64956380D02*
X136781952Y-64956380D01*
X136353380Y-65956380D01*
X134156666Y-90828761D02*
X134299523Y-90876380D01*
X134537619Y-90876380D01*
X134632857Y-90828761D01*
X134680476Y-90781142D01*
X134728095Y-90685904D01*
X134728095Y-90590666D01*
X134680476Y-90495428D01*
X134632857Y-90447809D01*
X134537619Y-90400190D01*
X134347142Y-90352571D01*
X134251904Y-90304952D01*
X134204285Y-90257333D01*
X134156666Y-90162095D01*
X134156666Y-90066857D01*
X134204285Y-89971619D01*
X134251904Y-89924000D01*
X134347142Y-89876380D01*
X134585238Y-89876380D01*
X134728095Y-89924000D01*
X135061428Y-89876380D02*
X135299523Y-90876380D01*
X135490000Y-90162095D01*
X135680476Y-90876380D01*
X135918571Y-89876380D01*
X136442380Y-90304952D02*
X136347142Y-90257333D01*
X136299523Y-90209714D01*
X136251904Y-90114476D01*
X136251904Y-90066857D01*
X136299523Y-89971619D01*
X136347142Y-89924000D01*
X136442380Y-89876380D01*
X136632857Y-89876380D01*
X136728095Y-89924000D01*
X136775714Y-89971619D01*
X136823333Y-90066857D01*
X136823333Y-90114476D01*
X136775714Y-90209714D01*
X136728095Y-90257333D01*
X136632857Y-90304952D01*
X136442380Y-90304952D01*
X136347142Y-90352571D01*
X136299523Y-90400190D01*
X136251904Y-90495428D01*
X136251904Y-90685904D01*
X136299523Y-90781142D01*
X136347142Y-90828761D01*
X136442380Y-90876380D01*
X136632857Y-90876380D01*
X136728095Y-90828761D01*
X136775714Y-90781142D01*
X136823333Y-90685904D01*
X136823333Y-90495428D01*
X136775714Y-90400190D01*
X136728095Y-90352571D01*
X136632857Y-90304952D01*
X83680476Y-33924761D02*
X83823333Y-33972380D01*
X84061428Y-33972380D01*
X84156666Y-33924761D01*
X84204285Y-33877142D01*
X84251904Y-33781904D01*
X84251904Y-33686666D01*
X84204285Y-33591428D01*
X84156666Y-33543809D01*
X84061428Y-33496190D01*
X83870952Y-33448571D01*
X83775714Y-33400952D01*
X83728095Y-33353333D01*
X83680476Y-33258095D01*
X83680476Y-33162857D01*
X83728095Y-33067619D01*
X83775714Y-33020000D01*
X83870952Y-32972380D01*
X84109047Y-32972380D01*
X84251904Y-33020000D01*
X84585238Y-32972380D02*
X84823333Y-33972380D01*
X85013809Y-33258095D01*
X85204285Y-33972380D01*
X85442380Y-32972380D01*
X86347142Y-33972380D02*
X85775714Y-33972380D01*
X86061428Y-33972380D02*
X86061428Y-32972380D01*
X85966190Y-33115238D01*
X85870952Y-33210476D01*
X85775714Y-33258095D01*
X86966190Y-32972380D02*
X87061428Y-32972380D01*
X87156666Y-33020000D01*
X87204285Y-33067619D01*
X87251904Y-33162857D01*
X87299523Y-33353333D01*
X87299523Y-33591428D01*
X87251904Y-33781904D01*
X87204285Y-33877142D01*
X87156666Y-33924761D01*
X87061428Y-33972380D01*
X86966190Y-33972380D01*
X86870952Y-33924761D01*
X86823333Y-33877142D01*
X86775714Y-33781904D01*
X86728095Y-33591428D01*
X86728095Y-33353333D01*
X86775714Y-33162857D01*
X86823333Y-33067619D01*
X86870952Y-33020000D01*
X86966190Y-32972380D01*
X134156666Y-115828761D02*
X134299523Y-115876380D01*
X134537619Y-115876380D01*
X134632857Y-115828761D01*
X134680476Y-115781142D01*
X134728095Y-115685904D01*
X134728095Y-115590666D01*
X134680476Y-115495428D01*
X134632857Y-115447809D01*
X134537619Y-115400190D01*
X134347142Y-115352571D01*
X134251904Y-115304952D01*
X134204285Y-115257333D01*
X134156666Y-115162095D01*
X134156666Y-115066857D01*
X134204285Y-114971619D01*
X134251904Y-114924000D01*
X134347142Y-114876380D01*
X134585238Y-114876380D01*
X134728095Y-114924000D01*
X135061428Y-114876380D02*
X135299523Y-115876380D01*
X135490000Y-115162095D01*
X135680476Y-115876380D01*
X135918571Y-114876380D01*
X136347142Y-115876380D02*
X136537619Y-115876380D01*
X136632857Y-115828761D01*
X136680476Y-115781142D01*
X136775714Y-115638285D01*
X136823333Y-115447809D01*
X136823333Y-115066857D01*
X136775714Y-114971619D01*
X136728095Y-114924000D01*
X136632857Y-114876380D01*
X136442380Y-114876380D01*
X136347142Y-114924000D01*
X136299523Y-114971619D01*
X136251904Y-115066857D01*
X136251904Y-115304952D01*
X136299523Y-115400190D01*
X136347142Y-115447809D01*
X136442380Y-115495428D01*
X136632857Y-115495428D01*
X136728095Y-115447809D01*
X136775714Y-115400190D01*
X136823333Y-115304952D01*
X109156666Y-115828761D02*
X109299523Y-115876380D01*
X109537619Y-115876380D01*
X109632857Y-115828761D01*
X109680476Y-115781142D01*
X109728095Y-115685904D01*
X109728095Y-115590666D01*
X109680476Y-115495428D01*
X109632857Y-115447809D01*
X109537619Y-115400190D01*
X109347142Y-115352571D01*
X109251904Y-115304952D01*
X109204285Y-115257333D01*
X109156666Y-115162095D01*
X109156666Y-115066857D01*
X109204285Y-114971619D01*
X109251904Y-114924000D01*
X109347142Y-114876380D01*
X109585238Y-114876380D01*
X109728095Y-114924000D01*
X110061428Y-114876380D02*
X110299523Y-115876380D01*
X110490000Y-115162095D01*
X110680476Y-115876380D01*
X110918571Y-114876380D01*
X111728095Y-114876380D02*
X111537619Y-114876380D01*
X111442380Y-114924000D01*
X111394761Y-114971619D01*
X111299523Y-115114476D01*
X111251904Y-115304952D01*
X111251904Y-115685904D01*
X111299523Y-115781142D01*
X111347142Y-115828761D01*
X111442380Y-115876380D01*
X111632857Y-115876380D01*
X111728095Y-115828761D01*
X111775714Y-115781142D01*
X111823333Y-115685904D01*
X111823333Y-115447809D01*
X111775714Y-115352571D01*
X111728095Y-115304952D01*
X111632857Y-115257333D01*
X111442380Y-115257333D01*
X111347142Y-115304952D01*
X111299523Y-115352571D01*
X111251904Y-115447809D01*
X109156666Y-90828761D02*
X109299523Y-90876380D01*
X109537619Y-90876380D01*
X109632857Y-90828761D01*
X109680476Y-90781142D01*
X109728095Y-90685904D01*
X109728095Y-90590666D01*
X109680476Y-90495428D01*
X109632857Y-90447809D01*
X109537619Y-90400190D01*
X109347142Y-90352571D01*
X109251904Y-90304952D01*
X109204285Y-90257333D01*
X109156666Y-90162095D01*
X109156666Y-90066857D01*
X109204285Y-89971619D01*
X109251904Y-89924000D01*
X109347142Y-89876380D01*
X109585238Y-89876380D01*
X109728095Y-89924000D01*
X110061428Y-89876380D02*
X110299523Y-90876380D01*
X110490000Y-90162095D01*
X110680476Y-90876380D01*
X110918571Y-89876380D01*
X111775714Y-89876380D02*
X111299523Y-89876380D01*
X111251904Y-90352571D01*
X111299523Y-90304952D01*
X111394761Y-90257333D01*
X111632857Y-90257333D01*
X111728095Y-90304952D01*
X111775714Y-90352571D01*
X111823333Y-90447809D01*
X111823333Y-90685904D01*
X111775714Y-90781142D01*
X111728095Y-90828761D01*
X111632857Y-90876380D01*
X111394761Y-90876380D01*
X111299523Y-90828761D01*
X111251904Y-90781142D01*
X109156666Y-65828761D02*
X109299523Y-65876380D01*
X109537619Y-65876380D01*
X109632857Y-65828761D01*
X109680476Y-65781142D01*
X109728095Y-65685904D01*
X109728095Y-65590666D01*
X109680476Y-65495428D01*
X109632857Y-65447809D01*
X109537619Y-65400190D01*
X109347142Y-65352571D01*
X109251904Y-65304952D01*
X109204285Y-65257333D01*
X109156666Y-65162095D01*
X109156666Y-65066857D01*
X109204285Y-64971619D01*
X109251904Y-64924000D01*
X109347142Y-64876380D01*
X109585238Y-64876380D01*
X109728095Y-64924000D01*
X110061428Y-64876380D02*
X110299523Y-65876380D01*
X110490000Y-65162095D01*
X110680476Y-65876380D01*
X110918571Y-64876380D01*
X111728095Y-65209714D02*
X111728095Y-65876380D01*
X111490000Y-64828761D02*
X111251904Y-65543047D01*
X111870952Y-65543047D01*
X84156666Y-115828761D02*
X84299523Y-115876380D01*
X84537619Y-115876380D01*
X84632857Y-115828761D01*
X84680476Y-115781142D01*
X84728095Y-115685904D01*
X84728095Y-115590666D01*
X84680476Y-115495428D01*
X84632857Y-115447809D01*
X84537619Y-115400190D01*
X84347142Y-115352571D01*
X84251904Y-115304952D01*
X84204285Y-115257333D01*
X84156666Y-115162095D01*
X84156666Y-115066857D01*
X84204285Y-114971619D01*
X84251904Y-114924000D01*
X84347142Y-114876380D01*
X84585238Y-114876380D01*
X84728095Y-114924000D01*
X85061428Y-114876380D02*
X85299523Y-115876380D01*
X85490000Y-115162095D01*
X85680476Y-115876380D01*
X85918571Y-114876380D01*
X86204285Y-114876380D02*
X86823333Y-114876380D01*
X86490000Y-115257333D01*
X86632857Y-115257333D01*
X86728095Y-115304952D01*
X86775714Y-115352571D01*
X86823333Y-115447809D01*
X86823333Y-115685904D01*
X86775714Y-115781142D01*
X86728095Y-115828761D01*
X86632857Y-115876380D01*
X86347142Y-115876380D01*
X86251904Y-115828761D01*
X86204285Y-115781142D01*
X84156666Y-90828761D02*
X84299523Y-90876380D01*
X84537619Y-90876380D01*
X84632857Y-90828761D01*
X84680476Y-90781142D01*
X84728095Y-90685904D01*
X84728095Y-90590666D01*
X84680476Y-90495428D01*
X84632857Y-90447809D01*
X84537619Y-90400190D01*
X84347142Y-90352571D01*
X84251904Y-90304952D01*
X84204285Y-90257333D01*
X84156666Y-90162095D01*
X84156666Y-90066857D01*
X84204285Y-89971619D01*
X84251904Y-89924000D01*
X84347142Y-89876380D01*
X84585238Y-89876380D01*
X84728095Y-89924000D01*
X85061428Y-89876380D02*
X85299523Y-90876380D01*
X85490000Y-90162095D01*
X85680476Y-90876380D01*
X85918571Y-89876380D01*
X86251904Y-89971619D02*
X86299523Y-89924000D01*
X86394761Y-89876380D01*
X86632857Y-89876380D01*
X86728095Y-89924000D01*
X86775714Y-89971619D01*
X86823333Y-90066857D01*
X86823333Y-90162095D01*
X86775714Y-90304952D01*
X86204285Y-90876380D01*
X86823333Y-90876380D01*
X123933380Y-57573666D02*
X123457190Y-57907000D01*
X123933380Y-58145095D02*
X122933380Y-58145095D01*
X122933380Y-57764142D01*
X122981000Y-57668904D01*
X123028619Y-57621285D01*
X123123857Y-57573666D01*
X123266714Y-57573666D01*
X123361952Y-57621285D01*
X123409571Y-57668904D01*
X123457190Y-57764142D01*
X123457190Y-58145095D01*
X123361952Y-57002238D02*
X123314333Y-57097476D01*
X123266714Y-57145095D01*
X123171476Y-57192714D01*
X123123857Y-57192714D01*
X123028619Y-57145095D01*
X122981000Y-57097476D01*
X122933380Y-57002238D01*
X122933380Y-56811761D01*
X122981000Y-56716523D01*
X123028619Y-56668904D01*
X123123857Y-56621285D01*
X123171476Y-56621285D01*
X123266714Y-56668904D01*
X123314333Y-56716523D01*
X123361952Y-56811761D01*
X123361952Y-57002238D01*
X123409571Y-57097476D01*
X123457190Y-57145095D01*
X123552428Y-57192714D01*
X123742904Y-57192714D01*
X123838142Y-57145095D01*
X123885761Y-57097476D01*
X123933380Y-57002238D01*
X123933380Y-56811761D01*
X123885761Y-56716523D01*
X123838142Y-56668904D01*
X123742904Y-56621285D01*
X123552428Y-56621285D01*
X123457190Y-56668904D01*
X123409571Y-56716523D01*
X123361952Y-56811761D01*
X122433380Y-57573666D02*
X121957190Y-57907000D01*
X122433380Y-58145095D02*
X121433380Y-58145095D01*
X121433380Y-57764142D01*
X121481000Y-57668904D01*
X121528619Y-57621285D01*
X121623857Y-57573666D01*
X121766714Y-57573666D01*
X121861952Y-57621285D01*
X121909571Y-57668904D01*
X121957190Y-57764142D01*
X121957190Y-58145095D01*
X121433380Y-57240333D02*
X121433380Y-56573666D01*
X122433380Y-57002238D01*
X83684761Y-54077619D02*
X83589523Y-54030000D01*
X83494285Y-53934761D01*
X83351428Y-53791904D01*
X83256190Y-53744285D01*
X83160952Y-53744285D01*
X83208571Y-53982380D02*
X83113333Y-53934761D01*
X83018095Y-53839523D01*
X82970476Y-53649047D01*
X82970476Y-53315714D01*
X83018095Y-53125238D01*
X83113333Y-53030000D01*
X83208571Y-52982380D01*
X83399047Y-52982380D01*
X83494285Y-53030000D01*
X83589523Y-53125238D01*
X83637142Y-53315714D01*
X83637142Y-53649047D01*
X83589523Y-53839523D01*
X83494285Y-53934761D01*
X83399047Y-53982380D01*
X83208571Y-53982380D01*
X84018095Y-53077619D02*
X84065714Y-53030000D01*
X84160952Y-52982380D01*
X84399047Y-52982380D01*
X84494285Y-53030000D01*
X84541904Y-53077619D01*
X84589523Y-53172857D01*
X84589523Y-53268095D01*
X84541904Y-53410952D01*
X83970476Y-53982380D01*
X84589523Y-53982380D01*
X119213333Y-58655142D02*
X119165714Y-58702761D01*
X119022857Y-58750380D01*
X118927619Y-58750380D01*
X118784761Y-58702761D01*
X118689523Y-58607523D01*
X118641904Y-58512285D01*
X118594285Y-58321809D01*
X118594285Y-58178952D01*
X118641904Y-57988476D01*
X118689523Y-57893238D01*
X118784761Y-57798000D01*
X118927619Y-57750380D01*
X119022857Y-57750380D01*
X119165714Y-57798000D01*
X119213333Y-57845619D01*
X119689523Y-58750380D02*
X119880000Y-58750380D01*
X119975238Y-58702761D01*
X120022857Y-58655142D01*
X120118095Y-58512285D01*
X120165714Y-58321809D01*
X120165714Y-57940857D01*
X120118095Y-57845619D01*
X120070476Y-57798000D01*
X119975238Y-57750380D01*
X119784761Y-57750380D01*
X119689523Y-57798000D01*
X119641904Y-57845619D01*
X119594285Y-57940857D01*
X119594285Y-58178952D01*
X119641904Y-58274190D01*
X119689523Y-58321809D01*
X119784761Y-58369428D01*
X119975238Y-58369428D01*
X120070476Y-58321809D01*
X120118095Y-58274190D01*
X120165714Y-58178952D01*
D10*
X137233333Y-37613333D02*
X137566666Y-37613333D01*
X136866666Y-37846666D02*
X137233333Y-37613333D01*
X136866666Y-37380000D01*
X137566666Y-36780000D02*
X137566666Y-37180000D01*
X137566666Y-36980000D02*
X136866666Y-36980000D01*
X136966666Y-37046666D01*
X137033333Y-37113333D01*
X137066666Y-37180000D01*
D13*
X78732380Y-50482857D02*
X78256190Y-50816190D01*
X78732380Y-51054285D02*
X77732380Y-51054285D01*
X77732380Y-50673333D01*
X77780000Y-50578095D01*
X77827619Y-50530476D01*
X77922857Y-50482857D01*
X78065714Y-50482857D01*
X78160952Y-50530476D01*
X78208571Y-50578095D01*
X78256190Y-50673333D01*
X78256190Y-51054285D01*
X77732380Y-50149523D02*
X77732380Y-49482857D01*
X78732380Y-49911428D01*
X78065714Y-48673333D02*
X78732380Y-48673333D01*
X77684761Y-48911428D02*
X78399047Y-49149523D01*
X78399047Y-48530476D01*
X77482380Y-50482857D02*
X77006190Y-50816190D01*
X77482380Y-51054285D02*
X76482380Y-51054285D01*
X76482380Y-50673333D01*
X76530000Y-50578095D01*
X76577619Y-50530476D01*
X76672857Y-50482857D01*
X76815714Y-50482857D01*
X76910952Y-50530476D01*
X76958571Y-50578095D01*
X77006190Y-50673333D01*
X77006190Y-51054285D01*
X76482380Y-50149523D02*
X76482380Y-49482857D01*
X77482380Y-49911428D01*
X76482380Y-49197142D02*
X76482380Y-48578095D01*
X76863333Y-48911428D01*
X76863333Y-48768571D01*
X76910952Y-48673333D01*
X76958571Y-48625714D01*
X77053809Y-48578095D01*
X77291904Y-48578095D01*
X77387142Y-48625714D01*
X77434761Y-48673333D01*
X77482380Y-48768571D01*
X77482380Y-49054285D01*
X77434761Y-49149523D01*
X77387142Y-49197142D01*
X79982380Y-50482857D02*
X79506190Y-50816190D01*
X79982380Y-51054285D02*
X78982380Y-51054285D01*
X78982380Y-50673333D01*
X79030000Y-50578095D01*
X79077619Y-50530476D01*
X79172857Y-50482857D01*
X79315714Y-50482857D01*
X79410952Y-50530476D01*
X79458571Y-50578095D01*
X79506190Y-50673333D01*
X79506190Y-51054285D01*
X78982380Y-50149523D02*
X78982380Y-49482857D01*
X79982380Y-49911428D01*
X79077619Y-49149523D02*
X79030000Y-49101904D01*
X78982380Y-49006666D01*
X78982380Y-48768571D01*
X79030000Y-48673333D01*
X79077619Y-48625714D01*
X79172857Y-48578095D01*
X79268095Y-48578095D01*
X79410952Y-48625714D01*
X79982380Y-49197142D01*
X79982380Y-48578095D01*
X94070380Y-50228857D02*
X93594190Y-50562190D01*
X94070380Y-50800285D02*
X93070380Y-50800285D01*
X93070380Y-50419333D01*
X93118000Y-50324095D01*
X93165619Y-50276476D01*
X93260857Y-50228857D01*
X93403714Y-50228857D01*
X93498952Y-50276476D01*
X93546571Y-50324095D01*
X93594190Y-50419333D01*
X93594190Y-50800285D01*
X93070380Y-49895523D02*
X93070380Y-49228857D01*
X94070380Y-49657428D01*
X94070380Y-48324095D02*
X94070380Y-48895523D01*
X94070380Y-48609809D02*
X93070380Y-48609809D01*
X93213238Y-48705047D01*
X93308476Y-48800285D01*
X93356095Y-48895523D01*
X92800380Y-50228857D02*
X92324190Y-50562190D01*
X92800380Y-50800285D02*
X91800380Y-50800285D01*
X91800380Y-50419333D01*
X91848000Y-50324095D01*
X91895619Y-50276476D01*
X91990857Y-50228857D01*
X92133714Y-50228857D01*
X92228952Y-50276476D01*
X92276571Y-50324095D01*
X92324190Y-50419333D01*
X92324190Y-50800285D01*
X91800380Y-49895523D02*
X91800380Y-49228857D01*
X92800380Y-49657428D01*
X91800380Y-48657428D02*
X91800380Y-48562190D01*
X91848000Y-48466952D01*
X91895619Y-48419333D01*
X91990857Y-48371714D01*
X92181333Y-48324095D01*
X92419428Y-48324095D01*
X92609904Y-48371714D01*
X92705142Y-48419333D01*
X92752761Y-48466952D01*
X92800380Y-48562190D01*
X92800380Y-48657428D01*
X92752761Y-48752666D01*
X92705142Y-48800285D01*
X92609904Y-48847904D01*
X92419428Y-48895523D01*
X92181333Y-48895523D01*
X91990857Y-48847904D01*
X91895619Y-48800285D01*
X91848000Y-48752666D01*
X91800380Y-48657428D01*
X128830380Y-105854857D02*
X128354190Y-106188190D01*
X128830380Y-106426285D02*
X127830380Y-106426285D01*
X127830380Y-106045333D01*
X127878000Y-105950095D01*
X127925619Y-105902476D01*
X128020857Y-105854857D01*
X128163714Y-105854857D01*
X128258952Y-105902476D01*
X128306571Y-105950095D01*
X128354190Y-106045333D01*
X128354190Y-106426285D01*
X127830380Y-104997714D02*
X127830380Y-105188190D01*
X127878000Y-105283428D01*
X127925619Y-105331047D01*
X128068476Y-105426285D01*
X128258952Y-105473904D01*
X128639904Y-105473904D01*
X128735142Y-105426285D01*
X128782761Y-105378666D01*
X128830380Y-105283428D01*
X128830380Y-105092952D01*
X128782761Y-104997714D01*
X128735142Y-104950095D01*
X128639904Y-104902476D01*
X128401809Y-104902476D01*
X128306571Y-104950095D01*
X128258952Y-104997714D01*
X128211333Y-105092952D01*
X128211333Y-105283428D01*
X128258952Y-105378666D01*
X128306571Y-105426285D01*
X128401809Y-105473904D01*
X128830380Y-104426285D02*
X128830380Y-104235809D01*
X128782761Y-104140571D01*
X128735142Y-104092952D01*
X128592285Y-103997714D01*
X128401809Y-103950095D01*
X128020857Y-103950095D01*
X127925619Y-103997714D01*
X127878000Y-104045333D01*
X127830380Y-104140571D01*
X127830380Y-104331047D01*
X127878000Y-104426285D01*
X127925619Y-104473904D01*
X128020857Y-104521523D01*
X128258952Y-104521523D01*
X128354190Y-104473904D01*
X128401809Y-104426285D01*
X128449428Y-104331047D01*
X128449428Y-104140571D01*
X128401809Y-104045333D01*
X128354190Y-103997714D01*
X128258952Y-103950095D01*
X127560380Y-105854857D02*
X127084190Y-106188190D01*
X127560380Y-106426285D02*
X126560380Y-106426285D01*
X126560380Y-106045333D01*
X126608000Y-105950095D01*
X126655619Y-105902476D01*
X126750857Y-105854857D01*
X126893714Y-105854857D01*
X126988952Y-105902476D01*
X127036571Y-105950095D01*
X127084190Y-106045333D01*
X127084190Y-106426285D01*
X126560380Y-104997714D02*
X126560380Y-105188190D01*
X126608000Y-105283428D01*
X126655619Y-105331047D01*
X126798476Y-105426285D01*
X126988952Y-105473904D01*
X127369904Y-105473904D01*
X127465142Y-105426285D01*
X127512761Y-105378666D01*
X127560380Y-105283428D01*
X127560380Y-105092952D01*
X127512761Y-104997714D01*
X127465142Y-104950095D01*
X127369904Y-104902476D01*
X127131809Y-104902476D01*
X127036571Y-104950095D01*
X126988952Y-104997714D01*
X126941333Y-105092952D01*
X126941333Y-105283428D01*
X126988952Y-105378666D01*
X127036571Y-105426285D01*
X127131809Y-105473904D01*
X126988952Y-104331047D02*
X126941333Y-104426285D01*
X126893714Y-104473904D01*
X126798476Y-104521523D01*
X126750857Y-104521523D01*
X126655619Y-104473904D01*
X126608000Y-104426285D01*
X126560380Y-104331047D01*
X126560380Y-104140571D01*
X126608000Y-104045333D01*
X126655619Y-103997714D01*
X126750857Y-103950095D01*
X126798476Y-103950095D01*
X126893714Y-103997714D01*
X126941333Y-104045333D01*
X126988952Y-104140571D01*
X126988952Y-104331047D01*
X127036571Y-104426285D01*
X127084190Y-104473904D01*
X127179428Y-104521523D01*
X127369904Y-104521523D01*
X127465142Y-104473904D01*
X127512761Y-104426285D01*
X127560380Y-104331047D01*
X127560380Y-104140571D01*
X127512761Y-104045333D01*
X127465142Y-103997714D01*
X127369904Y-103950095D01*
X127179428Y-103950095D01*
X127084190Y-103997714D01*
X127036571Y-104045333D01*
X126988952Y-104140571D01*
X130100380Y-105854857D02*
X129624190Y-106188190D01*
X130100380Y-106426285D02*
X129100380Y-106426285D01*
X129100380Y-106045333D01*
X129148000Y-105950095D01*
X129195619Y-105902476D01*
X129290857Y-105854857D01*
X129433714Y-105854857D01*
X129528952Y-105902476D01*
X129576571Y-105950095D01*
X129624190Y-106045333D01*
X129624190Y-106426285D01*
X129100380Y-104997714D02*
X129100380Y-105188190D01*
X129148000Y-105283428D01*
X129195619Y-105331047D01*
X129338476Y-105426285D01*
X129528952Y-105473904D01*
X129909904Y-105473904D01*
X130005142Y-105426285D01*
X130052761Y-105378666D01*
X130100380Y-105283428D01*
X130100380Y-105092952D01*
X130052761Y-104997714D01*
X130005142Y-104950095D01*
X129909904Y-104902476D01*
X129671809Y-104902476D01*
X129576571Y-104950095D01*
X129528952Y-104997714D01*
X129481333Y-105092952D01*
X129481333Y-105283428D01*
X129528952Y-105378666D01*
X129576571Y-105426285D01*
X129671809Y-105473904D01*
X129100380Y-104569142D02*
X129100380Y-103902476D01*
X130100380Y-104331047D01*
X144070380Y-105600857D02*
X143594190Y-105934190D01*
X144070380Y-106172285D02*
X143070380Y-106172285D01*
X143070380Y-105791333D01*
X143118000Y-105696095D01*
X143165619Y-105648476D01*
X143260857Y-105600857D01*
X143403714Y-105600857D01*
X143498952Y-105648476D01*
X143546571Y-105696095D01*
X143594190Y-105791333D01*
X143594190Y-106172285D01*
X143070380Y-104743714D02*
X143070380Y-104934190D01*
X143118000Y-105029428D01*
X143165619Y-105077047D01*
X143308476Y-105172285D01*
X143498952Y-105219904D01*
X143879904Y-105219904D01*
X143975142Y-105172285D01*
X144022761Y-105124666D01*
X144070380Y-105029428D01*
X144070380Y-104838952D01*
X144022761Y-104743714D01*
X143975142Y-104696095D01*
X143879904Y-104648476D01*
X143641809Y-104648476D01*
X143546571Y-104696095D01*
X143498952Y-104743714D01*
X143451333Y-104838952D01*
X143451333Y-105029428D01*
X143498952Y-105124666D01*
X143546571Y-105172285D01*
X143641809Y-105219904D01*
X143070380Y-103791333D02*
X143070380Y-103981809D01*
X143118000Y-104077047D01*
X143165619Y-104124666D01*
X143308476Y-104219904D01*
X143498952Y-104267523D01*
X143879904Y-104267523D01*
X143975142Y-104219904D01*
X144022761Y-104172285D01*
X144070380Y-104077047D01*
X144070380Y-103886571D01*
X144022761Y-103791333D01*
X143975142Y-103743714D01*
X143879904Y-103696095D01*
X143641809Y-103696095D01*
X143546571Y-103743714D01*
X143498952Y-103791333D01*
X143451333Y-103886571D01*
X143451333Y-104077047D01*
X143498952Y-104172285D01*
X143546571Y-104219904D01*
X143641809Y-104267523D01*
X142800380Y-105600857D02*
X142324190Y-105934190D01*
X142800380Y-106172285D02*
X141800380Y-106172285D01*
X141800380Y-105791333D01*
X141848000Y-105696095D01*
X141895619Y-105648476D01*
X141990857Y-105600857D01*
X142133714Y-105600857D01*
X142228952Y-105648476D01*
X142276571Y-105696095D01*
X142324190Y-105791333D01*
X142324190Y-106172285D01*
X141800380Y-104743714D02*
X141800380Y-104934190D01*
X141848000Y-105029428D01*
X141895619Y-105077047D01*
X142038476Y-105172285D01*
X142228952Y-105219904D01*
X142609904Y-105219904D01*
X142705142Y-105172285D01*
X142752761Y-105124666D01*
X142800380Y-105029428D01*
X142800380Y-104838952D01*
X142752761Y-104743714D01*
X142705142Y-104696095D01*
X142609904Y-104648476D01*
X142371809Y-104648476D01*
X142276571Y-104696095D01*
X142228952Y-104743714D01*
X142181333Y-104838952D01*
X142181333Y-105029428D01*
X142228952Y-105124666D01*
X142276571Y-105172285D01*
X142371809Y-105219904D01*
X141800380Y-103743714D02*
X141800380Y-104219904D01*
X142276571Y-104267523D01*
X142228952Y-104219904D01*
X142181333Y-104124666D01*
X142181333Y-103886571D01*
X142228952Y-103791333D01*
X142276571Y-103743714D01*
X142371809Y-103696095D01*
X142609904Y-103696095D01*
X142705142Y-103743714D01*
X142752761Y-103791333D01*
X142800380Y-103886571D01*
X142800380Y-104124666D01*
X142752761Y-104219904D01*
X142705142Y-104267523D01*
X103830380Y-105854857D02*
X103354190Y-106188190D01*
X103830380Y-106426285D02*
X102830380Y-106426285D01*
X102830380Y-106045333D01*
X102878000Y-105950095D01*
X102925619Y-105902476D01*
X103020857Y-105854857D01*
X103163714Y-105854857D01*
X103258952Y-105902476D01*
X103306571Y-105950095D01*
X103354190Y-106045333D01*
X103354190Y-106426285D01*
X102830380Y-104997714D02*
X102830380Y-105188190D01*
X102878000Y-105283428D01*
X102925619Y-105331047D01*
X103068476Y-105426285D01*
X103258952Y-105473904D01*
X103639904Y-105473904D01*
X103735142Y-105426285D01*
X103782761Y-105378666D01*
X103830380Y-105283428D01*
X103830380Y-105092952D01*
X103782761Y-104997714D01*
X103735142Y-104950095D01*
X103639904Y-104902476D01*
X103401809Y-104902476D01*
X103306571Y-104950095D01*
X103258952Y-104997714D01*
X103211333Y-105092952D01*
X103211333Y-105283428D01*
X103258952Y-105378666D01*
X103306571Y-105426285D01*
X103401809Y-105473904D01*
X103163714Y-104045333D02*
X103830380Y-104045333D01*
X102782761Y-104283428D02*
X103497047Y-104521523D01*
X103497047Y-103902476D01*
X102560380Y-105854857D02*
X102084190Y-106188190D01*
X102560380Y-106426285D02*
X101560380Y-106426285D01*
X101560380Y-106045333D01*
X101608000Y-105950095D01*
X101655619Y-105902476D01*
X101750857Y-105854857D01*
X101893714Y-105854857D01*
X101988952Y-105902476D01*
X102036571Y-105950095D01*
X102084190Y-106045333D01*
X102084190Y-106426285D01*
X101560380Y-104997714D02*
X101560380Y-105188190D01*
X101608000Y-105283428D01*
X101655619Y-105331047D01*
X101798476Y-105426285D01*
X101988952Y-105473904D01*
X102369904Y-105473904D01*
X102465142Y-105426285D01*
X102512761Y-105378666D01*
X102560380Y-105283428D01*
X102560380Y-105092952D01*
X102512761Y-104997714D01*
X102465142Y-104950095D01*
X102369904Y-104902476D01*
X102131809Y-104902476D01*
X102036571Y-104950095D01*
X101988952Y-104997714D01*
X101941333Y-105092952D01*
X101941333Y-105283428D01*
X101988952Y-105378666D01*
X102036571Y-105426285D01*
X102131809Y-105473904D01*
X101560380Y-104569142D02*
X101560380Y-103950095D01*
X101941333Y-104283428D01*
X101941333Y-104140571D01*
X101988952Y-104045333D01*
X102036571Y-103997714D01*
X102131809Y-103950095D01*
X102369904Y-103950095D01*
X102465142Y-103997714D01*
X102512761Y-104045333D01*
X102560380Y-104140571D01*
X102560380Y-104426285D01*
X102512761Y-104521523D01*
X102465142Y-104569142D01*
X105100380Y-105854857D02*
X104624190Y-106188190D01*
X105100380Y-106426285D02*
X104100380Y-106426285D01*
X104100380Y-106045333D01*
X104148000Y-105950095D01*
X104195619Y-105902476D01*
X104290857Y-105854857D01*
X104433714Y-105854857D01*
X104528952Y-105902476D01*
X104576571Y-105950095D01*
X104624190Y-106045333D01*
X104624190Y-106426285D01*
X104100380Y-104997714D02*
X104100380Y-105188190D01*
X104148000Y-105283428D01*
X104195619Y-105331047D01*
X104338476Y-105426285D01*
X104528952Y-105473904D01*
X104909904Y-105473904D01*
X105005142Y-105426285D01*
X105052761Y-105378666D01*
X105100380Y-105283428D01*
X105100380Y-105092952D01*
X105052761Y-104997714D01*
X105005142Y-104950095D01*
X104909904Y-104902476D01*
X104671809Y-104902476D01*
X104576571Y-104950095D01*
X104528952Y-104997714D01*
X104481333Y-105092952D01*
X104481333Y-105283428D01*
X104528952Y-105378666D01*
X104576571Y-105426285D01*
X104671809Y-105473904D01*
X104195619Y-104521523D02*
X104148000Y-104473904D01*
X104100380Y-104378666D01*
X104100380Y-104140571D01*
X104148000Y-104045333D01*
X104195619Y-103997714D01*
X104290857Y-103950095D01*
X104386095Y-103950095D01*
X104528952Y-103997714D01*
X105100380Y-104569142D01*
X105100380Y-103950095D01*
X119070380Y-105600857D02*
X118594190Y-105934190D01*
X119070380Y-106172285D02*
X118070380Y-106172285D01*
X118070380Y-105791333D01*
X118118000Y-105696095D01*
X118165619Y-105648476D01*
X118260857Y-105600857D01*
X118403714Y-105600857D01*
X118498952Y-105648476D01*
X118546571Y-105696095D01*
X118594190Y-105791333D01*
X118594190Y-106172285D01*
X118070380Y-104743714D02*
X118070380Y-104934190D01*
X118118000Y-105029428D01*
X118165619Y-105077047D01*
X118308476Y-105172285D01*
X118498952Y-105219904D01*
X118879904Y-105219904D01*
X118975142Y-105172285D01*
X119022761Y-105124666D01*
X119070380Y-105029428D01*
X119070380Y-104838952D01*
X119022761Y-104743714D01*
X118975142Y-104696095D01*
X118879904Y-104648476D01*
X118641809Y-104648476D01*
X118546571Y-104696095D01*
X118498952Y-104743714D01*
X118451333Y-104838952D01*
X118451333Y-105029428D01*
X118498952Y-105124666D01*
X118546571Y-105172285D01*
X118641809Y-105219904D01*
X119070380Y-103696095D02*
X119070380Y-104267523D01*
X119070380Y-103981809D02*
X118070380Y-103981809D01*
X118213238Y-104077047D01*
X118308476Y-104172285D01*
X118356095Y-104267523D01*
X117800380Y-105600857D02*
X117324190Y-105934190D01*
X117800380Y-106172285D02*
X116800380Y-106172285D01*
X116800380Y-105791333D01*
X116848000Y-105696095D01*
X116895619Y-105648476D01*
X116990857Y-105600857D01*
X117133714Y-105600857D01*
X117228952Y-105648476D01*
X117276571Y-105696095D01*
X117324190Y-105791333D01*
X117324190Y-106172285D01*
X116800380Y-104743714D02*
X116800380Y-104934190D01*
X116848000Y-105029428D01*
X116895619Y-105077047D01*
X117038476Y-105172285D01*
X117228952Y-105219904D01*
X117609904Y-105219904D01*
X117705142Y-105172285D01*
X117752761Y-105124666D01*
X117800380Y-105029428D01*
X117800380Y-104838952D01*
X117752761Y-104743714D01*
X117705142Y-104696095D01*
X117609904Y-104648476D01*
X117371809Y-104648476D01*
X117276571Y-104696095D01*
X117228952Y-104743714D01*
X117181333Y-104838952D01*
X117181333Y-105029428D01*
X117228952Y-105124666D01*
X117276571Y-105172285D01*
X117371809Y-105219904D01*
X116800380Y-104029428D02*
X116800380Y-103934190D01*
X116848000Y-103838952D01*
X116895619Y-103791333D01*
X116990857Y-103743714D01*
X117181333Y-103696095D01*
X117419428Y-103696095D01*
X117609904Y-103743714D01*
X117705142Y-103791333D01*
X117752761Y-103838952D01*
X117800380Y-103934190D01*
X117800380Y-104029428D01*
X117752761Y-104124666D01*
X117705142Y-104172285D01*
X117609904Y-104219904D01*
X117419428Y-104267523D01*
X117181333Y-104267523D01*
X116990857Y-104219904D01*
X116895619Y-104172285D01*
X116848000Y-104124666D01*
X116800380Y-104029428D01*
X78830380Y-105854857D02*
X78354190Y-106188190D01*
X78830380Y-106426285D02*
X77830380Y-106426285D01*
X77830380Y-106045333D01*
X77878000Y-105950095D01*
X77925619Y-105902476D01*
X78020857Y-105854857D01*
X78163714Y-105854857D01*
X78258952Y-105902476D01*
X78306571Y-105950095D01*
X78354190Y-106045333D01*
X78354190Y-106426285D01*
X77830380Y-104950095D02*
X77830380Y-105426285D01*
X78306571Y-105473904D01*
X78258952Y-105426285D01*
X78211333Y-105331047D01*
X78211333Y-105092952D01*
X78258952Y-104997714D01*
X78306571Y-104950095D01*
X78401809Y-104902476D01*
X78639904Y-104902476D01*
X78735142Y-104950095D01*
X78782761Y-104997714D01*
X78830380Y-105092952D01*
X78830380Y-105331047D01*
X78782761Y-105426285D01*
X78735142Y-105473904D01*
X78830380Y-104426285D02*
X78830380Y-104235809D01*
X78782761Y-104140571D01*
X78735142Y-104092952D01*
X78592285Y-103997714D01*
X78401809Y-103950095D01*
X78020857Y-103950095D01*
X77925619Y-103997714D01*
X77878000Y-104045333D01*
X77830380Y-104140571D01*
X77830380Y-104331047D01*
X77878000Y-104426285D01*
X77925619Y-104473904D01*
X78020857Y-104521523D01*
X78258952Y-104521523D01*
X78354190Y-104473904D01*
X78401809Y-104426285D01*
X78449428Y-104331047D01*
X78449428Y-104140571D01*
X78401809Y-104045333D01*
X78354190Y-103997714D01*
X78258952Y-103950095D01*
X77560380Y-105854857D02*
X77084190Y-106188190D01*
X77560380Y-106426285D02*
X76560380Y-106426285D01*
X76560380Y-106045333D01*
X76608000Y-105950095D01*
X76655619Y-105902476D01*
X76750857Y-105854857D01*
X76893714Y-105854857D01*
X76988952Y-105902476D01*
X77036571Y-105950095D01*
X77084190Y-106045333D01*
X77084190Y-106426285D01*
X76560380Y-104950095D02*
X76560380Y-105426285D01*
X77036571Y-105473904D01*
X76988952Y-105426285D01*
X76941333Y-105331047D01*
X76941333Y-105092952D01*
X76988952Y-104997714D01*
X77036571Y-104950095D01*
X77131809Y-104902476D01*
X77369904Y-104902476D01*
X77465142Y-104950095D01*
X77512761Y-104997714D01*
X77560380Y-105092952D01*
X77560380Y-105331047D01*
X77512761Y-105426285D01*
X77465142Y-105473904D01*
X76988952Y-104331047D02*
X76941333Y-104426285D01*
X76893714Y-104473904D01*
X76798476Y-104521523D01*
X76750857Y-104521523D01*
X76655619Y-104473904D01*
X76608000Y-104426285D01*
X76560380Y-104331047D01*
X76560380Y-104140571D01*
X76608000Y-104045333D01*
X76655619Y-103997714D01*
X76750857Y-103950095D01*
X76798476Y-103950095D01*
X76893714Y-103997714D01*
X76941333Y-104045333D01*
X76988952Y-104140571D01*
X76988952Y-104331047D01*
X77036571Y-104426285D01*
X77084190Y-104473904D01*
X77179428Y-104521523D01*
X77369904Y-104521523D01*
X77465142Y-104473904D01*
X77512761Y-104426285D01*
X77560380Y-104331047D01*
X77560380Y-104140571D01*
X77512761Y-104045333D01*
X77465142Y-103997714D01*
X77369904Y-103950095D01*
X77179428Y-103950095D01*
X77084190Y-103997714D01*
X77036571Y-104045333D01*
X76988952Y-104140571D01*
X80100380Y-105854857D02*
X79624190Y-106188190D01*
X80100380Y-106426285D02*
X79100380Y-106426285D01*
X79100380Y-106045333D01*
X79148000Y-105950095D01*
X79195619Y-105902476D01*
X79290857Y-105854857D01*
X79433714Y-105854857D01*
X79528952Y-105902476D01*
X79576571Y-105950095D01*
X79624190Y-106045333D01*
X79624190Y-106426285D01*
X79100380Y-104950095D02*
X79100380Y-105426285D01*
X79576571Y-105473904D01*
X79528952Y-105426285D01*
X79481333Y-105331047D01*
X79481333Y-105092952D01*
X79528952Y-104997714D01*
X79576571Y-104950095D01*
X79671809Y-104902476D01*
X79909904Y-104902476D01*
X80005142Y-104950095D01*
X80052761Y-104997714D01*
X80100380Y-105092952D01*
X80100380Y-105331047D01*
X80052761Y-105426285D01*
X80005142Y-105473904D01*
X79100380Y-104569142D02*
X79100380Y-103902476D01*
X80100380Y-104331047D01*
X94070380Y-105600857D02*
X93594190Y-105934190D01*
X94070380Y-106172285D02*
X93070380Y-106172285D01*
X93070380Y-105791333D01*
X93118000Y-105696095D01*
X93165619Y-105648476D01*
X93260857Y-105600857D01*
X93403714Y-105600857D01*
X93498952Y-105648476D01*
X93546571Y-105696095D01*
X93594190Y-105791333D01*
X93594190Y-106172285D01*
X93070380Y-104696095D02*
X93070380Y-105172285D01*
X93546571Y-105219904D01*
X93498952Y-105172285D01*
X93451333Y-105077047D01*
X93451333Y-104838952D01*
X93498952Y-104743714D01*
X93546571Y-104696095D01*
X93641809Y-104648476D01*
X93879904Y-104648476D01*
X93975142Y-104696095D01*
X94022761Y-104743714D01*
X94070380Y-104838952D01*
X94070380Y-105077047D01*
X94022761Y-105172285D01*
X93975142Y-105219904D01*
X93070380Y-103791333D02*
X93070380Y-103981809D01*
X93118000Y-104077047D01*
X93165619Y-104124666D01*
X93308476Y-104219904D01*
X93498952Y-104267523D01*
X93879904Y-104267523D01*
X93975142Y-104219904D01*
X94022761Y-104172285D01*
X94070380Y-104077047D01*
X94070380Y-103886571D01*
X94022761Y-103791333D01*
X93975142Y-103743714D01*
X93879904Y-103696095D01*
X93641809Y-103696095D01*
X93546571Y-103743714D01*
X93498952Y-103791333D01*
X93451333Y-103886571D01*
X93451333Y-104077047D01*
X93498952Y-104172285D01*
X93546571Y-104219904D01*
X93641809Y-104267523D01*
X92800380Y-105600857D02*
X92324190Y-105934190D01*
X92800380Y-106172285D02*
X91800380Y-106172285D01*
X91800380Y-105791333D01*
X91848000Y-105696095D01*
X91895619Y-105648476D01*
X91990857Y-105600857D01*
X92133714Y-105600857D01*
X92228952Y-105648476D01*
X92276571Y-105696095D01*
X92324190Y-105791333D01*
X92324190Y-106172285D01*
X91800380Y-104696095D02*
X91800380Y-105172285D01*
X92276571Y-105219904D01*
X92228952Y-105172285D01*
X92181333Y-105077047D01*
X92181333Y-104838952D01*
X92228952Y-104743714D01*
X92276571Y-104696095D01*
X92371809Y-104648476D01*
X92609904Y-104648476D01*
X92705142Y-104696095D01*
X92752761Y-104743714D01*
X92800380Y-104838952D01*
X92800380Y-105077047D01*
X92752761Y-105172285D01*
X92705142Y-105219904D01*
X91800380Y-103743714D02*
X91800380Y-104219904D01*
X92276571Y-104267523D01*
X92228952Y-104219904D01*
X92181333Y-104124666D01*
X92181333Y-103886571D01*
X92228952Y-103791333D01*
X92276571Y-103743714D01*
X92371809Y-103696095D01*
X92609904Y-103696095D01*
X92705142Y-103743714D01*
X92752761Y-103791333D01*
X92800380Y-103886571D01*
X92800380Y-104124666D01*
X92752761Y-104219904D01*
X92705142Y-104267523D01*
X128830380Y-130798857D02*
X128354190Y-131132190D01*
X128830380Y-131370285D02*
X127830380Y-131370285D01*
X127830380Y-130989333D01*
X127878000Y-130894095D01*
X127925619Y-130846476D01*
X128020857Y-130798857D01*
X128163714Y-130798857D01*
X128258952Y-130846476D01*
X128306571Y-130894095D01*
X128354190Y-130989333D01*
X128354190Y-131370285D01*
X127830380Y-129894095D02*
X127830380Y-130370285D01*
X128306571Y-130417904D01*
X128258952Y-130370285D01*
X128211333Y-130275047D01*
X128211333Y-130036952D01*
X128258952Y-129941714D01*
X128306571Y-129894095D01*
X128401809Y-129846476D01*
X128639904Y-129846476D01*
X128735142Y-129894095D01*
X128782761Y-129941714D01*
X128830380Y-130036952D01*
X128830380Y-130275047D01*
X128782761Y-130370285D01*
X128735142Y-130417904D01*
X128163714Y-128989333D02*
X128830380Y-128989333D01*
X127782761Y-129227428D02*
X128497047Y-129465523D01*
X128497047Y-128846476D01*
X127560380Y-130798857D02*
X127084190Y-131132190D01*
X127560380Y-131370285D02*
X126560380Y-131370285D01*
X126560380Y-130989333D01*
X126608000Y-130894095D01*
X126655619Y-130846476D01*
X126750857Y-130798857D01*
X126893714Y-130798857D01*
X126988952Y-130846476D01*
X127036571Y-130894095D01*
X127084190Y-130989333D01*
X127084190Y-131370285D01*
X126560380Y-129894095D02*
X126560380Y-130370285D01*
X127036571Y-130417904D01*
X126988952Y-130370285D01*
X126941333Y-130275047D01*
X126941333Y-130036952D01*
X126988952Y-129941714D01*
X127036571Y-129894095D01*
X127131809Y-129846476D01*
X127369904Y-129846476D01*
X127465142Y-129894095D01*
X127512761Y-129941714D01*
X127560380Y-130036952D01*
X127560380Y-130275047D01*
X127512761Y-130370285D01*
X127465142Y-130417904D01*
X126560380Y-129513142D02*
X126560380Y-128894095D01*
X126941333Y-129227428D01*
X126941333Y-129084571D01*
X126988952Y-128989333D01*
X127036571Y-128941714D01*
X127131809Y-128894095D01*
X127369904Y-128894095D01*
X127465142Y-128941714D01*
X127512761Y-128989333D01*
X127560380Y-129084571D01*
X127560380Y-129370285D01*
X127512761Y-129465523D01*
X127465142Y-129513142D01*
X130100380Y-130798857D02*
X129624190Y-131132190D01*
X130100380Y-131370285D02*
X129100380Y-131370285D01*
X129100380Y-130989333D01*
X129148000Y-130894095D01*
X129195619Y-130846476D01*
X129290857Y-130798857D01*
X129433714Y-130798857D01*
X129528952Y-130846476D01*
X129576571Y-130894095D01*
X129624190Y-130989333D01*
X129624190Y-131370285D01*
X129100380Y-129894095D02*
X129100380Y-130370285D01*
X129576571Y-130417904D01*
X129528952Y-130370285D01*
X129481333Y-130275047D01*
X129481333Y-130036952D01*
X129528952Y-129941714D01*
X129576571Y-129894095D01*
X129671809Y-129846476D01*
X129909904Y-129846476D01*
X130005142Y-129894095D01*
X130052761Y-129941714D01*
X130100380Y-130036952D01*
X130100380Y-130275047D01*
X130052761Y-130370285D01*
X130005142Y-130417904D01*
X129195619Y-129465523D02*
X129148000Y-129417904D01*
X129100380Y-129322666D01*
X129100380Y-129084571D01*
X129148000Y-128989333D01*
X129195619Y-128941714D01*
X129290857Y-128894095D01*
X129386095Y-128894095D01*
X129528952Y-128941714D01*
X130100380Y-129513142D01*
X130100380Y-128894095D01*
X144070380Y-130544857D02*
X143594190Y-130878190D01*
X144070380Y-131116285D02*
X143070380Y-131116285D01*
X143070380Y-130735333D01*
X143118000Y-130640095D01*
X143165619Y-130592476D01*
X143260857Y-130544857D01*
X143403714Y-130544857D01*
X143498952Y-130592476D01*
X143546571Y-130640095D01*
X143594190Y-130735333D01*
X143594190Y-131116285D01*
X143070380Y-129640095D02*
X143070380Y-130116285D01*
X143546571Y-130163904D01*
X143498952Y-130116285D01*
X143451333Y-130021047D01*
X143451333Y-129782952D01*
X143498952Y-129687714D01*
X143546571Y-129640095D01*
X143641809Y-129592476D01*
X143879904Y-129592476D01*
X143975142Y-129640095D01*
X144022761Y-129687714D01*
X144070380Y-129782952D01*
X144070380Y-130021047D01*
X144022761Y-130116285D01*
X143975142Y-130163904D01*
X144070380Y-128640095D02*
X144070380Y-129211523D01*
X144070380Y-128925809D02*
X143070380Y-128925809D01*
X143213238Y-129021047D01*
X143308476Y-129116285D01*
X143356095Y-129211523D01*
X142800380Y-130544857D02*
X142324190Y-130878190D01*
X142800380Y-131116285D02*
X141800380Y-131116285D01*
X141800380Y-130735333D01*
X141848000Y-130640095D01*
X141895619Y-130592476D01*
X141990857Y-130544857D01*
X142133714Y-130544857D01*
X142228952Y-130592476D01*
X142276571Y-130640095D01*
X142324190Y-130735333D01*
X142324190Y-131116285D01*
X141800380Y-129640095D02*
X141800380Y-130116285D01*
X142276571Y-130163904D01*
X142228952Y-130116285D01*
X142181333Y-130021047D01*
X142181333Y-129782952D01*
X142228952Y-129687714D01*
X142276571Y-129640095D01*
X142371809Y-129592476D01*
X142609904Y-129592476D01*
X142705142Y-129640095D01*
X142752761Y-129687714D01*
X142800380Y-129782952D01*
X142800380Y-130021047D01*
X142752761Y-130116285D01*
X142705142Y-130163904D01*
X141800380Y-128973428D02*
X141800380Y-128878190D01*
X141848000Y-128782952D01*
X141895619Y-128735333D01*
X141990857Y-128687714D01*
X142181333Y-128640095D01*
X142419428Y-128640095D01*
X142609904Y-128687714D01*
X142705142Y-128735333D01*
X142752761Y-128782952D01*
X142800380Y-128878190D01*
X142800380Y-128973428D01*
X142752761Y-129068666D01*
X142705142Y-129116285D01*
X142609904Y-129163904D01*
X142419428Y-129211523D01*
X142181333Y-129211523D01*
X141990857Y-129163904D01*
X141895619Y-129116285D01*
X141848000Y-129068666D01*
X141800380Y-128973428D01*
X103830380Y-130798857D02*
X103354190Y-131132190D01*
X103830380Y-131370285D02*
X102830380Y-131370285D01*
X102830380Y-130989333D01*
X102878000Y-130894095D01*
X102925619Y-130846476D01*
X103020857Y-130798857D01*
X103163714Y-130798857D01*
X103258952Y-130846476D01*
X103306571Y-130894095D01*
X103354190Y-130989333D01*
X103354190Y-131370285D01*
X103163714Y-129941714D02*
X103830380Y-129941714D01*
X102782761Y-130179809D02*
X103497047Y-130417904D01*
X103497047Y-129798857D01*
X103830380Y-129370285D02*
X103830380Y-129179809D01*
X103782761Y-129084571D01*
X103735142Y-129036952D01*
X103592285Y-128941714D01*
X103401809Y-128894095D01*
X103020857Y-128894095D01*
X102925619Y-128941714D01*
X102878000Y-128989333D01*
X102830380Y-129084571D01*
X102830380Y-129275047D01*
X102878000Y-129370285D01*
X102925619Y-129417904D01*
X103020857Y-129465523D01*
X103258952Y-129465523D01*
X103354190Y-129417904D01*
X103401809Y-129370285D01*
X103449428Y-129275047D01*
X103449428Y-129084571D01*
X103401809Y-128989333D01*
X103354190Y-128941714D01*
X103258952Y-128894095D01*
X102560380Y-130798857D02*
X102084190Y-131132190D01*
X102560380Y-131370285D02*
X101560380Y-131370285D01*
X101560380Y-130989333D01*
X101608000Y-130894095D01*
X101655619Y-130846476D01*
X101750857Y-130798857D01*
X101893714Y-130798857D01*
X101988952Y-130846476D01*
X102036571Y-130894095D01*
X102084190Y-130989333D01*
X102084190Y-131370285D01*
X101893714Y-129941714D02*
X102560380Y-129941714D01*
X101512761Y-130179809D02*
X102227047Y-130417904D01*
X102227047Y-129798857D01*
X101988952Y-129275047D02*
X101941333Y-129370285D01*
X101893714Y-129417904D01*
X101798476Y-129465523D01*
X101750857Y-129465523D01*
X101655619Y-129417904D01*
X101608000Y-129370285D01*
X101560380Y-129275047D01*
X101560380Y-129084571D01*
X101608000Y-128989333D01*
X101655619Y-128941714D01*
X101750857Y-128894095D01*
X101798476Y-128894095D01*
X101893714Y-128941714D01*
X101941333Y-128989333D01*
X101988952Y-129084571D01*
X101988952Y-129275047D01*
X102036571Y-129370285D01*
X102084190Y-129417904D01*
X102179428Y-129465523D01*
X102369904Y-129465523D01*
X102465142Y-129417904D01*
X102512761Y-129370285D01*
X102560380Y-129275047D01*
X102560380Y-129084571D01*
X102512761Y-128989333D01*
X102465142Y-128941714D01*
X102369904Y-128894095D01*
X102179428Y-128894095D01*
X102084190Y-128941714D01*
X102036571Y-128989333D01*
X101988952Y-129084571D01*
X105100380Y-130798857D02*
X104624190Y-131132190D01*
X105100380Y-131370285D02*
X104100380Y-131370285D01*
X104100380Y-130989333D01*
X104148000Y-130894095D01*
X104195619Y-130846476D01*
X104290857Y-130798857D01*
X104433714Y-130798857D01*
X104528952Y-130846476D01*
X104576571Y-130894095D01*
X104624190Y-130989333D01*
X104624190Y-131370285D01*
X104433714Y-129941714D02*
X105100380Y-129941714D01*
X104052761Y-130179809D02*
X104767047Y-130417904D01*
X104767047Y-129798857D01*
X104100380Y-129513142D02*
X104100380Y-128846476D01*
X105100380Y-129275047D01*
X119070380Y-130544857D02*
X118594190Y-130878190D01*
X119070380Y-131116285D02*
X118070380Y-131116285D01*
X118070380Y-130735333D01*
X118118000Y-130640095D01*
X118165619Y-130592476D01*
X118260857Y-130544857D01*
X118403714Y-130544857D01*
X118498952Y-130592476D01*
X118546571Y-130640095D01*
X118594190Y-130735333D01*
X118594190Y-131116285D01*
X118403714Y-129687714D02*
X119070380Y-129687714D01*
X118022761Y-129925809D02*
X118737047Y-130163904D01*
X118737047Y-129544857D01*
X118070380Y-128735333D02*
X118070380Y-128925809D01*
X118118000Y-129021047D01*
X118165619Y-129068666D01*
X118308476Y-129163904D01*
X118498952Y-129211523D01*
X118879904Y-129211523D01*
X118975142Y-129163904D01*
X119022761Y-129116285D01*
X119070380Y-129021047D01*
X119070380Y-128830571D01*
X119022761Y-128735333D01*
X118975142Y-128687714D01*
X118879904Y-128640095D01*
X118641809Y-128640095D01*
X118546571Y-128687714D01*
X118498952Y-128735333D01*
X118451333Y-128830571D01*
X118451333Y-129021047D01*
X118498952Y-129116285D01*
X118546571Y-129163904D01*
X118641809Y-129211523D01*
X117800380Y-130544857D02*
X117324190Y-130878190D01*
X117800380Y-131116285D02*
X116800380Y-131116285D01*
X116800380Y-130735333D01*
X116848000Y-130640095D01*
X116895619Y-130592476D01*
X116990857Y-130544857D01*
X117133714Y-130544857D01*
X117228952Y-130592476D01*
X117276571Y-130640095D01*
X117324190Y-130735333D01*
X117324190Y-131116285D01*
X117133714Y-129687714D02*
X117800380Y-129687714D01*
X116752761Y-129925809D02*
X117467047Y-130163904D01*
X117467047Y-129544857D01*
X116800380Y-128687714D02*
X116800380Y-129163904D01*
X117276571Y-129211523D01*
X117228952Y-129163904D01*
X117181333Y-129068666D01*
X117181333Y-128830571D01*
X117228952Y-128735333D01*
X117276571Y-128687714D01*
X117371809Y-128640095D01*
X117609904Y-128640095D01*
X117705142Y-128687714D01*
X117752761Y-128735333D01*
X117800380Y-128830571D01*
X117800380Y-129068666D01*
X117752761Y-129163904D01*
X117705142Y-129211523D01*
X78830380Y-130798857D02*
X78354190Y-131132190D01*
X78830380Y-131370285D02*
X77830380Y-131370285D01*
X77830380Y-130989333D01*
X77878000Y-130894095D01*
X77925619Y-130846476D01*
X78020857Y-130798857D01*
X78163714Y-130798857D01*
X78258952Y-130846476D01*
X78306571Y-130894095D01*
X78354190Y-130989333D01*
X78354190Y-131370285D01*
X78163714Y-129941714D02*
X78830380Y-129941714D01*
X77782761Y-130179809D02*
X78497047Y-130417904D01*
X78497047Y-129798857D01*
X78163714Y-128989333D02*
X78830380Y-128989333D01*
X77782761Y-129227428D02*
X78497047Y-129465523D01*
X78497047Y-128846476D01*
X77560380Y-130798857D02*
X77084190Y-131132190D01*
X77560380Y-131370285D02*
X76560380Y-131370285D01*
X76560380Y-130989333D01*
X76608000Y-130894095D01*
X76655619Y-130846476D01*
X76750857Y-130798857D01*
X76893714Y-130798857D01*
X76988952Y-130846476D01*
X77036571Y-130894095D01*
X77084190Y-130989333D01*
X77084190Y-131370285D01*
X76893714Y-129941714D02*
X77560380Y-129941714D01*
X76512761Y-130179809D02*
X77227047Y-130417904D01*
X77227047Y-129798857D01*
X76560380Y-129513142D02*
X76560380Y-128894095D01*
X76941333Y-129227428D01*
X76941333Y-129084571D01*
X76988952Y-128989333D01*
X77036571Y-128941714D01*
X77131809Y-128894095D01*
X77369904Y-128894095D01*
X77465142Y-128941714D01*
X77512761Y-128989333D01*
X77560380Y-129084571D01*
X77560380Y-129370285D01*
X77512761Y-129465523D01*
X77465142Y-129513142D01*
X80100380Y-130798857D02*
X79624190Y-131132190D01*
X80100380Y-131370285D02*
X79100380Y-131370285D01*
X79100380Y-130989333D01*
X79148000Y-130894095D01*
X79195619Y-130846476D01*
X79290857Y-130798857D01*
X79433714Y-130798857D01*
X79528952Y-130846476D01*
X79576571Y-130894095D01*
X79624190Y-130989333D01*
X79624190Y-131370285D01*
X79433714Y-129941714D02*
X80100380Y-129941714D01*
X79052761Y-130179809D02*
X79767047Y-130417904D01*
X79767047Y-129798857D01*
X79195619Y-129465523D02*
X79148000Y-129417904D01*
X79100380Y-129322666D01*
X79100380Y-129084571D01*
X79148000Y-128989333D01*
X79195619Y-128941714D01*
X79290857Y-128894095D01*
X79386095Y-128894095D01*
X79528952Y-128941714D01*
X80100380Y-129513142D01*
X80100380Y-128894095D01*
X94070380Y-130544857D02*
X93594190Y-130878190D01*
X94070380Y-131116285D02*
X93070380Y-131116285D01*
X93070380Y-130735333D01*
X93118000Y-130640095D01*
X93165619Y-130592476D01*
X93260857Y-130544857D01*
X93403714Y-130544857D01*
X93498952Y-130592476D01*
X93546571Y-130640095D01*
X93594190Y-130735333D01*
X93594190Y-131116285D01*
X93403714Y-129687714D02*
X94070380Y-129687714D01*
X93022761Y-129925809D02*
X93737047Y-130163904D01*
X93737047Y-129544857D01*
X94070380Y-128640095D02*
X94070380Y-129211523D01*
X94070380Y-128925809D02*
X93070380Y-128925809D01*
X93213238Y-129021047D01*
X93308476Y-129116285D01*
X93356095Y-129211523D01*
X92800380Y-130544857D02*
X92324190Y-130878190D01*
X92800380Y-131116285D02*
X91800380Y-131116285D01*
X91800380Y-130735333D01*
X91848000Y-130640095D01*
X91895619Y-130592476D01*
X91990857Y-130544857D01*
X92133714Y-130544857D01*
X92228952Y-130592476D01*
X92276571Y-130640095D01*
X92324190Y-130735333D01*
X92324190Y-131116285D01*
X92133714Y-129687714D02*
X92800380Y-129687714D01*
X91752761Y-129925809D02*
X92467047Y-130163904D01*
X92467047Y-129544857D01*
X91800380Y-128973428D02*
X91800380Y-128878190D01*
X91848000Y-128782952D01*
X91895619Y-128735333D01*
X91990857Y-128687714D01*
X92181333Y-128640095D01*
X92419428Y-128640095D01*
X92609904Y-128687714D01*
X92705142Y-128735333D01*
X92752761Y-128782952D01*
X92800380Y-128878190D01*
X92800380Y-128973428D01*
X92752761Y-129068666D01*
X92705142Y-129116285D01*
X92609904Y-129163904D01*
X92419428Y-129211523D01*
X92181333Y-129211523D01*
X91990857Y-129163904D01*
X91895619Y-129116285D01*
X91848000Y-129068666D01*
X91800380Y-128973428D01*
X128830380Y-80798857D02*
X128354190Y-81132190D01*
X128830380Y-81370285D02*
X127830380Y-81370285D01*
X127830380Y-80989333D01*
X127878000Y-80894095D01*
X127925619Y-80846476D01*
X128020857Y-80798857D01*
X128163714Y-80798857D01*
X128258952Y-80846476D01*
X128306571Y-80894095D01*
X128354190Y-80989333D01*
X128354190Y-81370285D01*
X127830380Y-80465523D02*
X127830380Y-79846476D01*
X128211333Y-80179809D01*
X128211333Y-80036952D01*
X128258952Y-79941714D01*
X128306571Y-79894095D01*
X128401809Y-79846476D01*
X128639904Y-79846476D01*
X128735142Y-79894095D01*
X128782761Y-79941714D01*
X128830380Y-80036952D01*
X128830380Y-80322666D01*
X128782761Y-80417904D01*
X128735142Y-80465523D01*
X128830380Y-79370285D02*
X128830380Y-79179809D01*
X128782761Y-79084571D01*
X128735142Y-79036952D01*
X128592285Y-78941714D01*
X128401809Y-78894095D01*
X128020857Y-78894095D01*
X127925619Y-78941714D01*
X127878000Y-78989333D01*
X127830380Y-79084571D01*
X127830380Y-79275047D01*
X127878000Y-79370285D01*
X127925619Y-79417904D01*
X128020857Y-79465523D01*
X128258952Y-79465523D01*
X128354190Y-79417904D01*
X128401809Y-79370285D01*
X128449428Y-79275047D01*
X128449428Y-79084571D01*
X128401809Y-78989333D01*
X128354190Y-78941714D01*
X128258952Y-78894095D01*
X127560380Y-80798857D02*
X127084190Y-81132190D01*
X127560380Y-81370285D02*
X126560380Y-81370285D01*
X126560380Y-80989333D01*
X126608000Y-80894095D01*
X126655619Y-80846476D01*
X126750857Y-80798857D01*
X126893714Y-80798857D01*
X126988952Y-80846476D01*
X127036571Y-80894095D01*
X127084190Y-80989333D01*
X127084190Y-81370285D01*
X126560380Y-80465523D02*
X126560380Y-79846476D01*
X126941333Y-80179809D01*
X126941333Y-80036952D01*
X126988952Y-79941714D01*
X127036571Y-79894095D01*
X127131809Y-79846476D01*
X127369904Y-79846476D01*
X127465142Y-79894095D01*
X127512761Y-79941714D01*
X127560380Y-80036952D01*
X127560380Y-80322666D01*
X127512761Y-80417904D01*
X127465142Y-80465523D01*
X126988952Y-79275047D02*
X126941333Y-79370285D01*
X126893714Y-79417904D01*
X126798476Y-79465523D01*
X126750857Y-79465523D01*
X126655619Y-79417904D01*
X126608000Y-79370285D01*
X126560380Y-79275047D01*
X126560380Y-79084571D01*
X126608000Y-78989333D01*
X126655619Y-78941714D01*
X126750857Y-78894095D01*
X126798476Y-78894095D01*
X126893714Y-78941714D01*
X126941333Y-78989333D01*
X126988952Y-79084571D01*
X126988952Y-79275047D01*
X127036571Y-79370285D01*
X127084190Y-79417904D01*
X127179428Y-79465523D01*
X127369904Y-79465523D01*
X127465142Y-79417904D01*
X127512761Y-79370285D01*
X127560380Y-79275047D01*
X127560380Y-79084571D01*
X127512761Y-78989333D01*
X127465142Y-78941714D01*
X127369904Y-78894095D01*
X127179428Y-78894095D01*
X127084190Y-78941714D01*
X127036571Y-78989333D01*
X126988952Y-79084571D01*
X130100380Y-80798857D02*
X129624190Y-81132190D01*
X130100380Y-81370285D02*
X129100380Y-81370285D01*
X129100380Y-80989333D01*
X129148000Y-80894095D01*
X129195619Y-80846476D01*
X129290857Y-80798857D01*
X129433714Y-80798857D01*
X129528952Y-80846476D01*
X129576571Y-80894095D01*
X129624190Y-80989333D01*
X129624190Y-81370285D01*
X129100380Y-80465523D02*
X129100380Y-79846476D01*
X129481333Y-80179809D01*
X129481333Y-80036952D01*
X129528952Y-79941714D01*
X129576571Y-79894095D01*
X129671809Y-79846476D01*
X129909904Y-79846476D01*
X130005142Y-79894095D01*
X130052761Y-79941714D01*
X130100380Y-80036952D01*
X130100380Y-80322666D01*
X130052761Y-80417904D01*
X130005142Y-80465523D01*
X129100380Y-79513142D02*
X129100380Y-78846476D01*
X130100380Y-79275047D01*
X142922380Y-80672857D02*
X142446190Y-81006190D01*
X142922380Y-81244285D02*
X141922380Y-81244285D01*
X141922380Y-80863333D01*
X141970000Y-80768095D01*
X142017619Y-80720476D01*
X142112857Y-80672857D01*
X142255714Y-80672857D01*
X142350952Y-80720476D01*
X142398571Y-80768095D01*
X142446190Y-80863333D01*
X142446190Y-81244285D01*
X141922380Y-80339523D02*
X141922380Y-79720476D01*
X142303333Y-80053809D01*
X142303333Y-79910952D01*
X142350952Y-79815714D01*
X142398571Y-79768095D01*
X142493809Y-79720476D01*
X142731904Y-79720476D01*
X142827142Y-79768095D01*
X142874761Y-79815714D01*
X142922380Y-79910952D01*
X142922380Y-80196666D01*
X142874761Y-80291904D01*
X142827142Y-80339523D01*
X141922380Y-78863333D02*
X141922380Y-79053809D01*
X141970000Y-79149047D01*
X142017619Y-79196666D01*
X142160476Y-79291904D01*
X142350952Y-79339523D01*
X142731904Y-79339523D01*
X142827142Y-79291904D01*
X142874761Y-79244285D01*
X142922380Y-79149047D01*
X142922380Y-78958571D01*
X142874761Y-78863333D01*
X142827142Y-78815714D01*
X142731904Y-78768095D01*
X142493809Y-78768095D01*
X142398571Y-78815714D01*
X142350952Y-78863333D01*
X142303333Y-78958571D01*
X142303333Y-79149047D01*
X142350952Y-79244285D01*
X142398571Y-79291904D01*
X142493809Y-79339523D01*
X144172380Y-80672857D02*
X143696190Y-81006190D01*
X144172380Y-81244285D02*
X143172380Y-81244285D01*
X143172380Y-80863333D01*
X143220000Y-80768095D01*
X143267619Y-80720476D01*
X143362857Y-80672857D01*
X143505714Y-80672857D01*
X143600952Y-80720476D01*
X143648571Y-80768095D01*
X143696190Y-80863333D01*
X143696190Y-81244285D01*
X143172380Y-80339523D02*
X143172380Y-79720476D01*
X143553333Y-80053809D01*
X143553333Y-79910952D01*
X143600952Y-79815714D01*
X143648571Y-79768095D01*
X143743809Y-79720476D01*
X143981904Y-79720476D01*
X144077142Y-79768095D01*
X144124761Y-79815714D01*
X144172380Y-79910952D01*
X144172380Y-80196666D01*
X144124761Y-80291904D01*
X144077142Y-80339523D01*
X143172380Y-78815714D02*
X143172380Y-79291904D01*
X143648571Y-79339523D01*
X143600952Y-79291904D01*
X143553333Y-79196666D01*
X143553333Y-78958571D01*
X143600952Y-78863333D01*
X143648571Y-78815714D01*
X143743809Y-78768095D01*
X143981904Y-78768095D01*
X144077142Y-78815714D01*
X144124761Y-78863333D01*
X144172380Y-78958571D01*
X144172380Y-79196666D01*
X144124761Y-79291904D01*
X144077142Y-79339523D01*
X103830380Y-80798857D02*
X103354190Y-81132190D01*
X103830380Y-81370285D02*
X102830380Y-81370285D01*
X102830380Y-80989333D01*
X102878000Y-80894095D01*
X102925619Y-80846476D01*
X103020857Y-80798857D01*
X103163714Y-80798857D01*
X103258952Y-80846476D01*
X103306571Y-80894095D01*
X103354190Y-80989333D01*
X103354190Y-81370285D01*
X102830380Y-80465523D02*
X102830380Y-79846476D01*
X103211333Y-80179809D01*
X103211333Y-80036952D01*
X103258952Y-79941714D01*
X103306571Y-79894095D01*
X103401809Y-79846476D01*
X103639904Y-79846476D01*
X103735142Y-79894095D01*
X103782761Y-79941714D01*
X103830380Y-80036952D01*
X103830380Y-80322666D01*
X103782761Y-80417904D01*
X103735142Y-80465523D01*
X103163714Y-78989333D02*
X103830380Y-78989333D01*
X102782761Y-79227428D02*
X103497047Y-79465523D01*
X103497047Y-78846476D01*
X102560380Y-80798857D02*
X102084190Y-81132190D01*
X102560380Y-81370285D02*
X101560380Y-81370285D01*
X101560380Y-80989333D01*
X101608000Y-80894095D01*
X101655619Y-80846476D01*
X101750857Y-80798857D01*
X101893714Y-80798857D01*
X101988952Y-80846476D01*
X102036571Y-80894095D01*
X102084190Y-80989333D01*
X102084190Y-81370285D01*
X101560380Y-80465523D02*
X101560380Y-79846476D01*
X101941333Y-80179809D01*
X101941333Y-80036952D01*
X101988952Y-79941714D01*
X102036571Y-79894095D01*
X102131809Y-79846476D01*
X102369904Y-79846476D01*
X102465142Y-79894095D01*
X102512761Y-79941714D01*
X102560380Y-80036952D01*
X102560380Y-80322666D01*
X102512761Y-80417904D01*
X102465142Y-80465523D01*
X101560380Y-79513142D02*
X101560380Y-78894095D01*
X101941333Y-79227428D01*
X101941333Y-79084571D01*
X101988952Y-78989333D01*
X102036571Y-78941714D01*
X102131809Y-78894095D01*
X102369904Y-78894095D01*
X102465142Y-78941714D01*
X102512761Y-78989333D01*
X102560380Y-79084571D01*
X102560380Y-79370285D01*
X102512761Y-79465523D01*
X102465142Y-79513142D01*
X105100380Y-80798857D02*
X104624190Y-81132190D01*
X105100380Y-81370285D02*
X104100380Y-81370285D01*
X104100380Y-80989333D01*
X104148000Y-80894095D01*
X104195619Y-80846476D01*
X104290857Y-80798857D01*
X104433714Y-80798857D01*
X104528952Y-80846476D01*
X104576571Y-80894095D01*
X104624190Y-80989333D01*
X104624190Y-81370285D01*
X104100380Y-80465523D02*
X104100380Y-79846476D01*
X104481333Y-80179809D01*
X104481333Y-80036952D01*
X104528952Y-79941714D01*
X104576571Y-79894095D01*
X104671809Y-79846476D01*
X104909904Y-79846476D01*
X105005142Y-79894095D01*
X105052761Y-79941714D01*
X105100380Y-80036952D01*
X105100380Y-80322666D01*
X105052761Y-80417904D01*
X105005142Y-80465523D01*
X104195619Y-79465523D02*
X104148000Y-79417904D01*
X104100380Y-79322666D01*
X104100380Y-79084571D01*
X104148000Y-78989333D01*
X104195619Y-78941714D01*
X104290857Y-78894095D01*
X104386095Y-78894095D01*
X104528952Y-78941714D01*
X105100380Y-79513142D01*
X105100380Y-78894095D01*
X119070380Y-80544857D02*
X118594190Y-80878190D01*
X119070380Y-81116285D02*
X118070380Y-81116285D01*
X118070380Y-80735333D01*
X118118000Y-80640095D01*
X118165619Y-80592476D01*
X118260857Y-80544857D01*
X118403714Y-80544857D01*
X118498952Y-80592476D01*
X118546571Y-80640095D01*
X118594190Y-80735333D01*
X118594190Y-81116285D01*
X118070380Y-80211523D02*
X118070380Y-79592476D01*
X118451333Y-79925809D01*
X118451333Y-79782952D01*
X118498952Y-79687714D01*
X118546571Y-79640095D01*
X118641809Y-79592476D01*
X118879904Y-79592476D01*
X118975142Y-79640095D01*
X119022761Y-79687714D01*
X119070380Y-79782952D01*
X119070380Y-80068666D01*
X119022761Y-80163904D01*
X118975142Y-80211523D01*
X119070380Y-78640095D02*
X119070380Y-79211523D01*
X119070380Y-78925809D02*
X118070380Y-78925809D01*
X118213238Y-79021047D01*
X118308476Y-79116285D01*
X118356095Y-79211523D01*
X117800380Y-80544857D02*
X117324190Y-80878190D01*
X117800380Y-81116285D02*
X116800380Y-81116285D01*
X116800380Y-80735333D01*
X116848000Y-80640095D01*
X116895619Y-80592476D01*
X116990857Y-80544857D01*
X117133714Y-80544857D01*
X117228952Y-80592476D01*
X117276571Y-80640095D01*
X117324190Y-80735333D01*
X117324190Y-81116285D01*
X116800380Y-80211523D02*
X116800380Y-79592476D01*
X117181333Y-79925809D01*
X117181333Y-79782952D01*
X117228952Y-79687714D01*
X117276571Y-79640095D01*
X117371809Y-79592476D01*
X117609904Y-79592476D01*
X117705142Y-79640095D01*
X117752761Y-79687714D01*
X117800380Y-79782952D01*
X117800380Y-80068666D01*
X117752761Y-80163904D01*
X117705142Y-80211523D01*
X116800380Y-78973428D02*
X116800380Y-78878190D01*
X116848000Y-78782952D01*
X116895619Y-78735333D01*
X116990857Y-78687714D01*
X117181333Y-78640095D01*
X117419428Y-78640095D01*
X117609904Y-78687714D01*
X117705142Y-78735333D01*
X117752761Y-78782952D01*
X117800380Y-78878190D01*
X117800380Y-78973428D01*
X117752761Y-79068666D01*
X117705142Y-79116285D01*
X117609904Y-79163904D01*
X117419428Y-79211523D01*
X117181333Y-79211523D01*
X116990857Y-79163904D01*
X116895619Y-79116285D01*
X116848000Y-79068666D01*
X116800380Y-78973428D01*
X78830380Y-80798857D02*
X78354190Y-81132190D01*
X78830380Y-81370285D02*
X77830380Y-81370285D01*
X77830380Y-80989333D01*
X77878000Y-80894095D01*
X77925619Y-80846476D01*
X78020857Y-80798857D01*
X78163714Y-80798857D01*
X78258952Y-80846476D01*
X78306571Y-80894095D01*
X78354190Y-80989333D01*
X78354190Y-81370285D01*
X77925619Y-80417904D02*
X77878000Y-80370285D01*
X77830380Y-80275047D01*
X77830380Y-80036952D01*
X77878000Y-79941714D01*
X77925619Y-79894095D01*
X78020857Y-79846476D01*
X78116095Y-79846476D01*
X78258952Y-79894095D01*
X78830380Y-80465523D01*
X78830380Y-79846476D01*
X78830380Y-79370285D02*
X78830380Y-79179809D01*
X78782761Y-79084571D01*
X78735142Y-79036952D01*
X78592285Y-78941714D01*
X78401809Y-78894095D01*
X78020857Y-78894095D01*
X77925619Y-78941714D01*
X77878000Y-78989333D01*
X77830380Y-79084571D01*
X77830380Y-79275047D01*
X77878000Y-79370285D01*
X77925619Y-79417904D01*
X78020857Y-79465523D01*
X78258952Y-79465523D01*
X78354190Y-79417904D01*
X78401809Y-79370285D01*
X78449428Y-79275047D01*
X78449428Y-79084571D01*
X78401809Y-78989333D01*
X78354190Y-78941714D01*
X78258952Y-78894095D01*
X77560380Y-80798857D02*
X77084190Y-81132190D01*
X77560380Y-81370285D02*
X76560380Y-81370285D01*
X76560380Y-80989333D01*
X76608000Y-80894095D01*
X76655619Y-80846476D01*
X76750857Y-80798857D01*
X76893714Y-80798857D01*
X76988952Y-80846476D01*
X77036571Y-80894095D01*
X77084190Y-80989333D01*
X77084190Y-81370285D01*
X76655619Y-80417904D02*
X76608000Y-80370285D01*
X76560380Y-80275047D01*
X76560380Y-80036952D01*
X76608000Y-79941714D01*
X76655619Y-79894095D01*
X76750857Y-79846476D01*
X76846095Y-79846476D01*
X76988952Y-79894095D01*
X77560380Y-80465523D01*
X77560380Y-79846476D01*
X76988952Y-79275047D02*
X76941333Y-79370285D01*
X76893714Y-79417904D01*
X76798476Y-79465523D01*
X76750857Y-79465523D01*
X76655619Y-79417904D01*
X76608000Y-79370285D01*
X76560380Y-79275047D01*
X76560380Y-79084571D01*
X76608000Y-78989333D01*
X76655619Y-78941714D01*
X76750857Y-78894095D01*
X76798476Y-78894095D01*
X76893714Y-78941714D01*
X76941333Y-78989333D01*
X76988952Y-79084571D01*
X76988952Y-79275047D01*
X77036571Y-79370285D01*
X77084190Y-79417904D01*
X77179428Y-79465523D01*
X77369904Y-79465523D01*
X77465142Y-79417904D01*
X77512761Y-79370285D01*
X77560380Y-79275047D01*
X77560380Y-79084571D01*
X77512761Y-78989333D01*
X77465142Y-78941714D01*
X77369904Y-78894095D01*
X77179428Y-78894095D01*
X77084190Y-78941714D01*
X77036571Y-78989333D01*
X76988952Y-79084571D01*
X80100380Y-80798857D02*
X79624190Y-81132190D01*
X80100380Y-81370285D02*
X79100380Y-81370285D01*
X79100380Y-80989333D01*
X79148000Y-80894095D01*
X79195619Y-80846476D01*
X79290857Y-80798857D01*
X79433714Y-80798857D01*
X79528952Y-80846476D01*
X79576571Y-80894095D01*
X79624190Y-80989333D01*
X79624190Y-81370285D01*
X79195619Y-80417904D02*
X79148000Y-80370285D01*
X79100380Y-80275047D01*
X79100380Y-80036952D01*
X79148000Y-79941714D01*
X79195619Y-79894095D01*
X79290857Y-79846476D01*
X79386095Y-79846476D01*
X79528952Y-79894095D01*
X80100380Y-80465523D01*
X80100380Y-79846476D01*
X79100380Y-79513142D02*
X79100380Y-78846476D01*
X80100380Y-79275047D01*
X94070380Y-80544857D02*
X93594190Y-80878190D01*
X94070380Y-81116285D02*
X93070380Y-81116285D01*
X93070380Y-80735333D01*
X93118000Y-80640095D01*
X93165619Y-80592476D01*
X93260857Y-80544857D01*
X93403714Y-80544857D01*
X93498952Y-80592476D01*
X93546571Y-80640095D01*
X93594190Y-80735333D01*
X93594190Y-81116285D01*
X93165619Y-80163904D02*
X93118000Y-80116285D01*
X93070380Y-80021047D01*
X93070380Y-79782952D01*
X93118000Y-79687714D01*
X93165619Y-79640095D01*
X93260857Y-79592476D01*
X93356095Y-79592476D01*
X93498952Y-79640095D01*
X94070380Y-80211523D01*
X94070380Y-79592476D01*
X93070380Y-78735333D02*
X93070380Y-78925809D01*
X93118000Y-79021047D01*
X93165619Y-79068666D01*
X93308476Y-79163904D01*
X93498952Y-79211523D01*
X93879904Y-79211523D01*
X93975142Y-79163904D01*
X94022761Y-79116285D01*
X94070380Y-79021047D01*
X94070380Y-78830571D01*
X94022761Y-78735333D01*
X93975142Y-78687714D01*
X93879904Y-78640095D01*
X93641809Y-78640095D01*
X93546571Y-78687714D01*
X93498952Y-78735333D01*
X93451333Y-78830571D01*
X93451333Y-79021047D01*
X93498952Y-79116285D01*
X93546571Y-79163904D01*
X93641809Y-79211523D01*
X92800380Y-80544857D02*
X92324190Y-80878190D01*
X92800380Y-81116285D02*
X91800380Y-81116285D01*
X91800380Y-80735333D01*
X91848000Y-80640095D01*
X91895619Y-80592476D01*
X91990857Y-80544857D01*
X92133714Y-80544857D01*
X92228952Y-80592476D01*
X92276571Y-80640095D01*
X92324190Y-80735333D01*
X92324190Y-81116285D01*
X91895619Y-80163904D02*
X91848000Y-80116285D01*
X91800380Y-80021047D01*
X91800380Y-79782952D01*
X91848000Y-79687714D01*
X91895619Y-79640095D01*
X91990857Y-79592476D01*
X92086095Y-79592476D01*
X92228952Y-79640095D01*
X92800380Y-80211523D01*
X92800380Y-79592476D01*
X91800380Y-78687714D02*
X91800380Y-79163904D01*
X92276571Y-79211523D01*
X92228952Y-79163904D01*
X92181333Y-79068666D01*
X92181333Y-78830571D01*
X92228952Y-78735333D01*
X92276571Y-78687714D01*
X92371809Y-78640095D01*
X92609904Y-78640095D01*
X92705142Y-78687714D01*
X92752761Y-78735333D01*
X92800380Y-78830571D01*
X92800380Y-79068666D01*
X92752761Y-79163904D01*
X92705142Y-79211523D01*
X82708571Y-52577619D02*
X82613333Y-52530000D01*
X82518095Y-52434761D01*
X82375238Y-52291904D01*
X82280000Y-52244285D01*
X82184761Y-52244285D01*
X82232380Y-52482380D02*
X82137142Y-52434761D01*
X82041904Y-52339523D01*
X81994285Y-52149047D01*
X81994285Y-51815714D01*
X82041904Y-51625238D01*
X82137142Y-51530000D01*
X82232380Y-51482380D01*
X82422857Y-51482380D01*
X82518095Y-51530000D01*
X82613333Y-51625238D01*
X82660952Y-51815714D01*
X82660952Y-52149047D01*
X82613333Y-52339523D01*
X82518095Y-52434761D01*
X82422857Y-52482380D01*
X82232380Y-52482380D01*
X83613333Y-52482380D02*
X83041904Y-52482380D01*
X83327619Y-52482380D02*
X83327619Y-51482380D01*
X83232380Y-51625238D01*
X83137142Y-51720476D01*
X83041904Y-51768095D01*
X83946666Y-51482380D02*
X84565714Y-51482380D01*
X84232380Y-51863333D01*
X84375238Y-51863333D01*
X84470476Y-51910952D01*
X84518095Y-51958571D01*
X84565714Y-52053809D01*
X84565714Y-52291904D01*
X84518095Y-52387142D01*
X84470476Y-52434761D01*
X84375238Y-52482380D01*
X84089523Y-52482380D01*
X83994285Y-52434761D01*
X83946666Y-52387142D01*
D10*
X137820000Y-107133333D02*
X137753333Y-107100000D01*
X137686666Y-107033333D01*
X137586666Y-106933333D01*
X137520000Y-106900000D01*
X137453333Y-106900000D01*
X137486666Y-107066666D02*
X137420000Y-107033333D01*
X137353333Y-106966666D01*
X137320000Y-106833333D01*
X137320000Y-106600000D01*
X137353333Y-106466666D01*
X137420000Y-106400000D01*
X137486666Y-106366666D01*
X137620000Y-106366666D01*
X137686666Y-106400000D01*
X137753333Y-106466666D01*
X137786666Y-106600000D01*
X137786666Y-106833333D01*
X137753333Y-106966666D01*
X137686666Y-107033333D01*
X137620000Y-107066666D01*
X137486666Y-107066666D01*
X138453333Y-107066666D02*
X138053333Y-107066666D01*
X138253333Y-107066666D02*
X138253333Y-106366666D01*
X138186666Y-106466666D01*
X138120000Y-106533333D01*
X138053333Y-106566666D01*
X138720000Y-106433333D02*
X138753333Y-106400000D01*
X138820000Y-106366666D01*
X138986666Y-106366666D01*
X139053333Y-106400000D01*
X139086666Y-106433333D01*
X139120000Y-106500000D01*
X139120000Y-106566666D01*
X139086666Y-106666666D01*
X138686666Y-107066666D01*
X139120000Y-107066666D01*
X112884000Y-107133333D02*
X112817333Y-107100000D01*
X112750666Y-107033333D01*
X112650666Y-106933333D01*
X112584000Y-106900000D01*
X112517333Y-106900000D01*
X112550666Y-107066666D02*
X112484000Y-107033333D01*
X112417333Y-106966666D01*
X112384000Y-106833333D01*
X112384000Y-106600000D01*
X112417333Y-106466666D01*
X112484000Y-106400000D01*
X112550666Y-106366666D01*
X112684000Y-106366666D01*
X112750666Y-106400000D01*
X112817333Y-106466666D01*
X112850666Y-106600000D01*
X112850666Y-106833333D01*
X112817333Y-106966666D01*
X112750666Y-107033333D01*
X112684000Y-107066666D01*
X112550666Y-107066666D01*
X113517333Y-107066666D02*
X113117333Y-107066666D01*
X113317333Y-107066666D02*
X113317333Y-106366666D01*
X113250666Y-106466666D01*
X113184000Y-106533333D01*
X113117333Y-106566666D01*
X114184000Y-107066666D02*
X113784000Y-107066666D01*
X113984000Y-107066666D02*
X113984000Y-106366666D01*
X113917333Y-106466666D01*
X113850666Y-106533333D01*
X113784000Y-106566666D01*
X87880000Y-107133333D02*
X87813333Y-107100000D01*
X87746666Y-107033333D01*
X87646666Y-106933333D01*
X87580000Y-106900000D01*
X87513333Y-106900000D01*
X87546666Y-107066666D02*
X87480000Y-107033333D01*
X87413333Y-106966666D01*
X87380000Y-106833333D01*
X87380000Y-106600000D01*
X87413333Y-106466666D01*
X87480000Y-106400000D01*
X87546666Y-106366666D01*
X87680000Y-106366666D01*
X87746666Y-106400000D01*
X87813333Y-106466666D01*
X87846666Y-106600000D01*
X87846666Y-106833333D01*
X87813333Y-106966666D01*
X87746666Y-107033333D01*
X87680000Y-107066666D01*
X87546666Y-107066666D01*
X88513333Y-107066666D02*
X88113333Y-107066666D01*
X88313333Y-107066666D02*
X88313333Y-106366666D01*
X88246666Y-106466666D01*
X88180000Y-106533333D01*
X88113333Y-106566666D01*
X88946666Y-106366666D02*
X89013333Y-106366666D01*
X89080000Y-106400000D01*
X89113333Y-106433333D01*
X89146666Y-106500000D01*
X89180000Y-106633333D01*
X89180000Y-106800000D01*
X89146666Y-106933333D01*
X89113333Y-107000000D01*
X89080000Y-107033333D01*
X89013333Y-107066666D01*
X88946666Y-107066666D01*
X88880000Y-107033333D01*
X88846666Y-107000000D01*
X88813333Y-106933333D01*
X88780000Y-106800000D01*
X88780000Y-106633333D01*
X88813333Y-106500000D01*
X88846666Y-106433333D01*
X88880000Y-106400000D01*
X88946666Y-106366666D01*
D13*
X136624761Y-133267619D02*
X136529523Y-133220000D01*
X136434285Y-133124761D01*
X136291428Y-132981904D01*
X136196190Y-132934285D01*
X136100952Y-132934285D01*
X136148571Y-133172380D02*
X136053333Y-133124761D01*
X135958095Y-133029523D01*
X135910476Y-132839047D01*
X135910476Y-132505714D01*
X135958095Y-132315238D01*
X136053333Y-132220000D01*
X136148571Y-132172380D01*
X136339047Y-132172380D01*
X136434285Y-132220000D01*
X136529523Y-132315238D01*
X136577142Y-132505714D01*
X136577142Y-132839047D01*
X136529523Y-133029523D01*
X136434285Y-133124761D01*
X136339047Y-133172380D01*
X136148571Y-133172380D01*
X137053333Y-133172380D02*
X137243809Y-133172380D01*
X137339047Y-133124761D01*
X137386666Y-133077142D01*
X137481904Y-132934285D01*
X137529523Y-132743809D01*
X137529523Y-132362857D01*
X137481904Y-132267619D01*
X137434285Y-132220000D01*
X137339047Y-132172380D01*
X137148571Y-132172380D01*
X137053333Y-132220000D01*
X137005714Y-132267619D01*
X136958095Y-132362857D01*
X136958095Y-132600952D01*
X137005714Y-132696190D01*
X137053333Y-132743809D01*
X137148571Y-132791428D01*
X137339047Y-132791428D01*
X137434285Y-132743809D01*
X137481904Y-132696190D01*
X137529523Y-132600952D01*
X111654761Y-133267619D02*
X111559523Y-133220000D01*
X111464285Y-133124761D01*
X111321428Y-132981904D01*
X111226190Y-132934285D01*
X111130952Y-132934285D01*
X111178571Y-133172380D02*
X111083333Y-133124761D01*
X110988095Y-133029523D01*
X110940476Y-132839047D01*
X110940476Y-132505714D01*
X110988095Y-132315238D01*
X111083333Y-132220000D01*
X111178571Y-132172380D01*
X111369047Y-132172380D01*
X111464285Y-132220000D01*
X111559523Y-132315238D01*
X111607142Y-132505714D01*
X111607142Y-132839047D01*
X111559523Y-133029523D01*
X111464285Y-133124761D01*
X111369047Y-133172380D01*
X111178571Y-133172380D01*
X112178571Y-132600952D02*
X112083333Y-132553333D01*
X112035714Y-132505714D01*
X111988095Y-132410476D01*
X111988095Y-132362857D01*
X112035714Y-132267619D01*
X112083333Y-132220000D01*
X112178571Y-132172380D01*
X112369047Y-132172380D01*
X112464285Y-132220000D01*
X112511904Y-132267619D01*
X112559523Y-132362857D01*
X112559523Y-132410476D01*
X112511904Y-132505714D01*
X112464285Y-132553333D01*
X112369047Y-132600952D01*
X112178571Y-132600952D01*
X112083333Y-132648571D01*
X112035714Y-132696190D01*
X111988095Y-132791428D01*
X111988095Y-132981904D01*
X112035714Y-133077142D01*
X112083333Y-133124761D01*
X112178571Y-133172380D01*
X112369047Y-133172380D01*
X112464285Y-133124761D01*
X112511904Y-133077142D01*
X112559523Y-132981904D01*
X112559523Y-132791428D01*
X112511904Y-132696190D01*
X112464285Y-132648571D01*
X112369047Y-132600952D01*
X86684761Y-133267619D02*
X86589523Y-133220000D01*
X86494285Y-133124761D01*
X86351428Y-132981904D01*
X86256190Y-132934285D01*
X86160952Y-132934285D01*
X86208571Y-133172380D02*
X86113333Y-133124761D01*
X86018095Y-133029523D01*
X85970476Y-132839047D01*
X85970476Y-132505714D01*
X86018095Y-132315238D01*
X86113333Y-132220000D01*
X86208571Y-132172380D01*
X86399047Y-132172380D01*
X86494285Y-132220000D01*
X86589523Y-132315238D01*
X86637142Y-132505714D01*
X86637142Y-132839047D01*
X86589523Y-133029523D01*
X86494285Y-133124761D01*
X86399047Y-133172380D01*
X86208571Y-133172380D01*
X86970476Y-132172380D02*
X87637142Y-132172380D01*
X87208571Y-133172380D01*
D10*
X137903333Y-82163333D02*
X137836666Y-82130000D01*
X137770000Y-82063333D01*
X137670000Y-81963333D01*
X137603333Y-81930000D01*
X137536666Y-81930000D01*
X137570000Y-82096666D02*
X137503333Y-82063333D01*
X137436666Y-81996666D01*
X137403333Y-81863333D01*
X137403333Y-81630000D01*
X137436666Y-81496666D01*
X137503333Y-81430000D01*
X137570000Y-81396666D01*
X137703333Y-81396666D01*
X137770000Y-81430000D01*
X137836666Y-81496666D01*
X137870000Y-81630000D01*
X137870000Y-81863333D01*
X137836666Y-81996666D01*
X137770000Y-82063333D01*
X137703333Y-82096666D01*
X137570000Y-82096666D01*
X138470000Y-81396666D02*
X138336666Y-81396666D01*
X138270000Y-81430000D01*
X138236666Y-81463333D01*
X138170000Y-81563333D01*
X138136666Y-81696666D01*
X138136666Y-81963333D01*
X138170000Y-82030000D01*
X138203333Y-82063333D01*
X138270000Y-82096666D01*
X138403333Y-82096666D01*
X138470000Y-82063333D01*
X138503333Y-82030000D01*
X138536666Y-81963333D01*
X138536666Y-81796666D01*
X138503333Y-81730000D01*
X138470000Y-81696666D01*
X138403333Y-81663333D01*
X138270000Y-81663333D01*
X138203333Y-81696666D01*
X138170000Y-81730000D01*
X138136666Y-81796666D01*
X112933333Y-82163333D02*
X112866666Y-82130000D01*
X112800000Y-82063333D01*
X112700000Y-81963333D01*
X112633333Y-81930000D01*
X112566666Y-81930000D01*
X112600000Y-82096666D02*
X112533333Y-82063333D01*
X112466666Y-81996666D01*
X112433333Y-81863333D01*
X112433333Y-81630000D01*
X112466666Y-81496666D01*
X112533333Y-81430000D01*
X112600000Y-81396666D01*
X112733333Y-81396666D01*
X112800000Y-81430000D01*
X112866666Y-81496666D01*
X112900000Y-81630000D01*
X112900000Y-81863333D01*
X112866666Y-81996666D01*
X112800000Y-82063333D01*
X112733333Y-82096666D01*
X112600000Y-82096666D01*
X113533333Y-81396666D02*
X113200000Y-81396666D01*
X113166666Y-81730000D01*
X113200000Y-81696666D01*
X113266666Y-81663333D01*
X113433333Y-81663333D01*
X113500000Y-81696666D01*
X113533333Y-81730000D01*
X113566666Y-81796666D01*
X113566666Y-81963333D01*
X113533333Y-82030000D01*
X113500000Y-82063333D01*
X113433333Y-82096666D01*
X113266666Y-82096666D01*
X113200000Y-82063333D01*
X113166666Y-82030000D01*
X87963333Y-82163333D02*
X87896666Y-82130000D01*
X87830000Y-82063333D01*
X87730000Y-81963333D01*
X87663333Y-81930000D01*
X87596666Y-81930000D01*
X87630000Y-82096666D02*
X87563333Y-82063333D01*
X87496666Y-81996666D01*
X87463333Y-81863333D01*
X87463333Y-81630000D01*
X87496666Y-81496666D01*
X87563333Y-81430000D01*
X87630000Y-81396666D01*
X87763333Y-81396666D01*
X87830000Y-81430000D01*
X87896666Y-81496666D01*
X87930000Y-81630000D01*
X87930000Y-81863333D01*
X87896666Y-81996666D01*
X87830000Y-82063333D01*
X87763333Y-82096666D01*
X87630000Y-82096666D01*
X88530000Y-81630000D02*
X88530000Y-82096666D01*
X88363333Y-81363333D02*
X88196666Y-81863333D01*
X88630000Y-81863333D01*
D13*
X84315714Y-45232380D02*
X84315714Y-44232380D01*
X84553809Y-44232380D01*
X84696666Y-44280000D01*
X84791904Y-44375238D01*
X84839523Y-44470476D01*
X84887142Y-44660952D01*
X84887142Y-44803809D01*
X84839523Y-44994285D01*
X84791904Y-45089523D01*
X84696666Y-45184761D01*
X84553809Y-45232380D01*
X84315714Y-45232380D01*
X85839523Y-45232380D02*
X85268095Y-45232380D01*
X85553809Y-45232380D02*
X85553809Y-44232380D01*
X85458571Y-44375238D01*
X85363333Y-44470476D01*
X85268095Y-44518095D01*
X86458571Y-44232380D02*
X86553809Y-44232380D01*
X86649047Y-44280000D01*
X86696666Y-44327619D01*
X86744285Y-44422857D01*
X86791904Y-44613333D01*
X86791904Y-44851428D01*
X86744285Y-45041904D01*
X86696666Y-45137142D01*
X86649047Y-45184761D01*
X86553809Y-45232380D01*
X86458571Y-45232380D01*
X86363333Y-45184761D01*
X86315714Y-45137142D01*
X86268095Y-45041904D01*
X86220476Y-44851428D01*
X86220476Y-44613333D01*
X86268095Y-44422857D01*
X86315714Y-44327619D01*
X86363333Y-44280000D01*
X86458571Y-44232380D01*
X134731904Y-100452380D02*
X134731904Y-99452380D01*
X134970000Y-99452380D01*
X135112857Y-99500000D01*
X135208095Y-99595238D01*
X135255714Y-99690476D01*
X135303333Y-99880952D01*
X135303333Y-100023809D01*
X135255714Y-100214285D01*
X135208095Y-100309523D01*
X135112857Y-100404761D01*
X134970000Y-100452380D01*
X134731904Y-100452380D01*
X135779523Y-100452380D02*
X135970000Y-100452380D01*
X136065238Y-100404761D01*
X136112857Y-100357142D01*
X136208095Y-100214285D01*
X136255714Y-100023809D01*
X136255714Y-99642857D01*
X136208095Y-99547619D01*
X136160476Y-99500000D01*
X136065238Y-99452380D01*
X135874761Y-99452380D01*
X135779523Y-99500000D01*
X135731904Y-99547619D01*
X135684285Y-99642857D01*
X135684285Y-99880952D01*
X135731904Y-99976190D01*
X135779523Y-100023809D01*
X135874761Y-100071428D01*
X136065238Y-100071428D01*
X136160476Y-100023809D01*
X136208095Y-99976190D01*
X136255714Y-99880952D01*
X109761904Y-100452380D02*
X109761904Y-99452380D01*
X110000000Y-99452380D01*
X110142857Y-99500000D01*
X110238095Y-99595238D01*
X110285714Y-99690476D01*
X110333333Y-99880952D01*
X110333333Y-100023809D01*
X110285714Y-100214285D01*
X110238095Y-100309523D01*
X110142857Y-100404761D01*
X110000000Y-100452380D01*
X109761904Y-100452380D01*
X110904761Y-99880952D02*
X110809523Y-99833333D01*
X110761904Y-99785714D01*
X110714285Y-99690476D01*
X110714285Y-99642857D01*
X110761904Y-99547619D01*
X110809523Y-99500000D01*
X110904761Y-99452380D01*
X111095238Y-99452380D01*
X111190476Y-99500000D01*
X111238095Y-99547619D01*
X111285714Y-99642857D01*
X111285714Y-99690476D01*
X111238095Y-99785714D01*
X111190476Y-99833333D01*
X111095238Y-99880952D01*
X110904761Y-99880952D01*
X110809523Y-99928571D01*
X110761904Y-99976190D01*
X110714285Y-100071428D01*
X110714285Y-100261904D01*
X110761904Y-100357142D01*
X110809523Y-100404761D01*
X110904761Y-100452380D01*
X111095238Y-100452380D01*
X111190476Y-100404761D01*
X111238095Y-100357142D01*
X111285714Y-100261904D01*
X111285714Y-100071428D01*
X111238095Y-99976190D01*
X111190476Y-99928571D01*
X111095238Y-99880952D01*
X84791904Y-100452380D02*
X84791904Y-99452380D01*
X85030000Y-99452380D01*
X85172857Y-99500000D01*
X85268095Y-99595238D01*
X85315714Y-99690476D01*
X85363333Y-99880952D01*
X85363333Y-100023809D01*
X85315714Y-100214285D01*
X85268095Y-100309523D01*
X85172857Y-100404761D01*
X85030000Y-100452380D01*
X84791904Y-100452380D01*
X85696666Y-99452380D02*
X86363333Y-99452380D01*
X85934761Y-100452380D01*
X134731904Y-125422380D02*
X134731904Y-124422380D01*
X134970000Y-124422380D01*
X135112857Y-124470000D01*
X135208095Y-124565238D01*
X135255714Y-124660476D01*
X135303333Y-124850952D01*
X135303333Y-124993809D01*
X135255714Y-125184285D01*
X135208095Y-125279523D01*
X135112857Y-125374761D01*
X134970000Y-125422380D01*
X134731904Y-125422380D01*
X136160476Y-124422380D02*
X135970000Y-124422380D01*
X135874761Y-124470000D01*
X135827142Y-124517619D01*
X135731904Y-124660476D01*
X135684285Y-124850952D01*
X135684285Y-125231904D01*
X135731904Y-125327142D01*
X135779523Y-125374761D01*
X135874761Y-125422380D01*
X136065238Y-125422380D01*
X136160476Y-125374761D01*
X136208095Y-125327142D01*
X136255714Y-125231904D01*
X136255714Y-124993809D01*
X136208095Y-124898571D01*
X136160476Y-124850952D01*
X136065238Y-124803333D01*
X135874761Y-124803333D01*
X135779523Y-124850952D01*
X135731904Y-124898571D01*
X135684285Y-124993809D01*
X109761904Y-125422380D02*
X109761904Y-124422380D01*
X110000000Y-124422380D01*
X110142857Y-124470000D01*
X110238095Y-124565238D01*
X110285714Y-124660476D01*
X110333333Y-124850952D01*
X110333333Y-124993809D01*
X110285714Y-125184285D01*
X110238095Y-125279523D01*
X110142857Y-125374761D01*
X110000000Y-125422380D01*
X109761904Y-125422380D01*
X111238095Y-124422380D02*
X110761904Y-124422380D01*
X110714285Y-124898571D01*
X110761904Y-124850952D01*
X110857142Y-124803333D01*
X111095238Y-124803333D01*
X111190476Y-124850952D01*
X111238095Y-124898571D01*
X111285714Y-124993809D01*
X111285714Y-125231904D01*
X111238095Y-125327142D01*
X111190476Y-125374761D01*
X111095238Y-125422380D01*
X110857142Y-125422380D01*
X110761904Y-125374761D01*
X110714285Y-125327142D01*
X84791904Y-125422380D02*
X84791904Y-124422380D01*
X85030000Y-124422380D01*
X85172857Y-124470000D01*
X85268095Y-124565238D01*
X85315714Y-124660476D01*
X85363333Y-124850952D01*
X85363333Y-124993809D01*
X85315714Y-125184285D01*
X85268095Y-125279523D01*
X85172857Y-125374761D01*
X85030000Y-125422380D01*
X84791904Y-125422380D01*
X86220476Y-124755714D02*
X86220476Y-125422380D01*
X85982380Y-124374761D02*
X85744285Y-125089047D01*
X86363333Y-125089047D01*
X134731904Y-75482380D02*
X134731904Y-74482380D01*
X134970000Y-74482380D01*
X135112857Y-74530000D01*
X135208095Y-74625238D01*
X135255714Y-74720476D01*
X135303333Y-74910952D01*
X135303333Y-75053809D01*
X135255714Y-75244285D01*
X135208095Y-75339523D01*
X135112857Y-75434761D01*
X134970000Y-75482380D01*
X134731904Y-75482380D01*
X135636666Y-74482380D02*
X136255714Y-74482380D01*
X135922380Y-74863333D01*
X136065238Y-74863333D01*
X136160476Y-74910952D01*
X136208095Y-74958571D01*
X136255714Y-75053809D01*
X136255714Y-75291904D01*
X136208095Y-75387142D01*
X136160476Y-75434761D01*
X136065238Y-75482380D01*
X135779523Y-75482380D01*
X135684285Y-75434761D01*
X135636666Y-75387142D01*
X109761904Y-75482380D02*
X109761904Y-74482380D01*
X110000000Y-74482380D01*
X110142857Y-74530000D01*
X110238095Y-74625238D01*
X110285714Y-74720476D01*
X110333333Y-74910952D01*
X110333333Y-75053809D01*
X110285714Y-75244285D01*
X110238095Y-75339523D01*
X110142857Y-75434761D01*
X110000000Y-75482380D01*
X109761904Y-75482380D01*
X110714285Y-74577619D02*
X110761904Y-74530000D01*
X110857142Y-74482380D01*
X111095238Y-74482380D01*
X111190476Y-74530000D01*
X111238095Y-74577619D01*
X111285714Y-74672857D01*
X111285714Y-74768095D01*
X111238095Y-74910952D01*
X110666666Y-75482380D01*
X111285714Y-75482380D01*
X84791904Y-75482380D02*
X84791904Y-74482380D01*
X85030000Y-74482380D01*
X85172857Y-74530000D01*
X85268095Y-74625238D01*
X85315714Y-74720476D01*
X85363333Y-74910952D01*
X85363333Y-75053809D01*
X85315714Y-75244285D01*
X85268095Y-75339523D01*
X85172857Y-75434761D01*
X85030000Y-75482380D01*
X84791904Y-75482380D01*
X86315714Y-75482380D02*
X85744285Y-75482380D01*
X86030000Y-75482380D02*
X86030000Y-74482380D01*
X85934761Y-74625238D01*
X85839523Y-74720476D01*
X85744285Y-74768095D01*
X102916666Y-45482380D02*
X102916666Y-46196666D01*
X102869047Y-46339523D01*
X102773809Y-46434761D01*
X102630952Y-46482380D01*
X102535714Y-46482380D01*
X103345238Y-45577619D02*
X103392857Y-45530000D01*
X103488095Y-45482380D01*
X103726190Y-45482380D01*
X103821428Y-45530000D01*
X103869047Y-45577619D01*
X103916666Y-45672857D01*
X103916666Y-45768095D01*
X103869047Y-45910952D01*
X103297619Y-46482380D01*
X103916666Y-46482380D01*
X128752695Y-57442380D02*
X128752695Y-58251904D01*
X128800314Y-58347142D01*
X128847933Y-58394761D01*
X128943171Y-58442380D01*
X129133647Y-58442380D01*
X129228885Y-58394761D01*
X129276504Y-58347142D01*
X129324123Y-58251904D01*
X129324123Y-57442380D01*
X129752695Y-57537619D02*
X129800314Y-57490000D01*
X129895552Y-57442380D01*
X130133647Y-57442380D01*
X130228885Y-57490000D01*
X130276504Y-57537619D01*
X130324123Y-57632857D01*
X130324123Y-57728095D01*
X130276504Y-57870952D01*
X129705076Y-58442380D01*
X130324123Y-58442380D01*
X126111095Y-42350380D02*
X126111095Y-43159904D01*
X126158714Y-43255142D01*
X126206333Y-43302761D01*
X126301571Y-43350380D01*
X126492047Y-43350380D01*
X126587285Y-43302761D01*
X126634904Y-43255142D01*
X126682523Y-43159904D01*
X126682523Y-42350380D01*
X127682523Y-43350380D02*
X127111095Y-43350380D01*
X127396809Y-43350380D02*
X127396809Y-42350380D01*
X127301571Y-42493238D01*
X127206333Y-42588476D01*
X127111095Y-42636095D01*
X120007142Y-51232380D02*
X119673809Y-50756190D01*
X119435714Y-51232380D02*
X119435714Y-50232380D01*
X119816666Y-50232380D01*
X119911904Y-50280000D01*
X119959523Y-50327619D01*
X120007142Y-50422857D01*
X120007142Y-50565714D01*
X119959523Y-50660952D01*
X119911904Y-50708571D01*
X119816666Y-50756190D01*
X119435714Y-50756190D01*
X120388095Y-50327619D02*
X120435714Y-50280000D01*
X120530952Y-50232380D01*
X120769047Y-50232380D01*
X120864285Y-50280000D01*
X120911904Y-50327619D01*
X120959523Y-50422857D01*
X120959523Y-50518095D01*
X120911904Y-50660952D01*
X120340476Y-51232380D01*
X120959523Y-51232380D01*
X121340476Y-50327619D02*
X121388095Y-50280000D01*
X121483333Y-50232380D01*
X121721428Y-50232380D01*
X121816666Y-50280000D01*
X121864285Y-50327619D01*
X121911904Y-50422857D01*
X121911904Y-50518095D01*
X121864285Y-50660952D01*
X121292857Y-51232380D01*
X121911904Y-51232380D01*
X120007142Y-49732380D02*
X119673809Y-49256190D01*
X119435714Y-49732380D02*
X119435714Y-48732380D01*
X119816666Y-48732380D01*
X119911904Y-48780000D01*
X119959523Y-48827619D01*
X120007142Y-48922857D01*
X120007142Y-49065714D01*
X119959523Y-49160952D01*
X119911904Y-49208571D01*
X119816666Y-49256190D01*
X119435714Y-49256190D01*
X120388095Y-48827619D02*
X120435714Y-48780000D01*
X120530952Y-48732380D01*
X120769047Y-48732380D01*
X120864285Y-48780000D01*
X120911904Y-48827619D01*
X120959523Y-48922857D01*
X120959523Y-49018095D01*
X120911904Y-49160952D01*
X120340476Y-49732380D01*
X120959523Y-49732380D01*
X121911904Y-49732380D02*
X121340476Y-49732380D01*
X121626190Y-49732380D02*
X121626190Y-48732380D01*
X121530952Y-48875238D01*
X121435714Y-48970476D01*
X121340476Y-49018095D01*
X120007142Y-48232380D02*
X119673809Y-47756190D01*
X119435714Y-48232380D02*
X119435714Y-47232380D01*
X119816666Y-47232380D01*
X119911904Y-47280000D01*
X119959523Y-47327619D01*
X120007142Y-47422857D01*
X120007142Y-47565714D01*
X119959523Y-47660952D01*
X119911904Y-47708571D01*
X119816666Y-47756190D01*
X119435714Y-47756190D01*
X120388095Y-47327619D02*
X120435714Y-47280000D01*
X120530952Y-47232380D01*
X120769047Y-47232380D01*
X120864285Y-47280000D01*
X120911904Y-47327619D01*
X120959523Y-47422857D01*
X120959523Y-47518095D01*
X120911904Y-47660952D01*
X120340476Y-48232380D01*
X120959523Y-48232380D01*
X121578571Y-47232380D02*
X121673809Y-47232380D01*
X121769047Y-47280000D01*
X121816666Y-47327619D01*
X121864285Y-47422857D01*
X121911904Y-47613333D01*
X121911904Y-47851428D01*
X121864285Y-48041904D01*
X121816666Y-48137142D01*
X121769047Y-48184761D01*
X121673809Y-48232380D01*
X121578571Y-48232380D01*
X121483333Y-48184761D01*
X121435714Y-48137142D01*
X121388095Y-48041904D01*
X121340476Y-47851428D01*
X121340476Y-47613333D01*
X121388095Y-47422857D01*
X121435714Y-47327619D01*
X121483333Y-47280000D01*
X121578571Y-47232380D01*
X81363333Y-56732380D02*
X81030000Y-56256190D01*
X80791904Y-56732380D02*
X80791904Y-55732380D01*
X81172857Y-55732380D01*
X81268095Y-55780000D01*
X81315714Y-55827619D01*
X81363333Y-55922857D01*
X81363333Y-56065714D01*
X81315714Y-56160952D01*
X81268095Y-56208571D01*
X81172857Y-56256190D01*
X80791904Y-56256190D01*
X82220476Y-55732380D02*
X82030000Y-55732380D01*
X81934761Y-55780000D01*
X81887142Y-55827619D01*
X81791904Y-55970476D01*
X81744285Y-56160952D01*
X81744285Y-56541904D01*
X81791904Y-56637142D01*
X81839523Y-56684761D01*
X81934761Y-56732380D01*
X82125238Y-56732380D01*
X82220476Y-56684761D01*
X82268095Y-56637142D01*
X82315714Y-56541904D01*
X82315714Y-56303809D01*
X82268095Y-56208571D01*
X82220476Y-56160952D01*
X82125238Y-56113333D01*
X81934761Y-56113333D01*
X81839523Y-56160952D01*
X81791904Y-56208571D01*
X81744285Y-56303809D01*
X82779333Y-59756380D02*
X82446000Y-59280190D01*
X82207904Y-59756380D02*
X82207904Y-58756380D01*
X82588857Y-58756380D01*
X82684095Y-58804000D01*
X82731714Y-58851619D01*
X82779333Y-58946857D01*
X82779333Y-59089714D01*
X82731714Y-59184952D01*
X82684095Y-59232571D01*
X82588857Y-59280190D01*
X82207904Y-59280190D01*
X83684095Y-58756380D02*
X83207904Y-58756380D01*
X83160285Y-59232571D01*
X83207904Y-59184952D01*
X83303142Y-59137333D01*
X83541238Y-59137333D01*
X83636476Y-59184952D01*
X83684095Y-59232571D01*
X83731714Y-59327809D01*
X83731714Y-59565904D01*
X83684095Y-59661142D01*
X83636476Y-59708761D01*
X83541238Y-59756380D01*
X83303142Y-59756380D01*
X83207904Y-59708761D01*
X83160285Y-59661142D01*
X83613333Y-56732380D02*
X83280000Y-56256190D01*
X83041904Y-56732380D02*
X83041904Y-55732380D01*
X83422857Y-55732380D01*
X83518095Y-55780000D01*
X83565714Y-55827619D01*
X83613333Y-55922857D01*
X83613333Y-56065714D01*
X83565714Y-56160952D01*
X83518095Y-56208571D01*
X83422857Y-56256190D01*
X83041904Y-56256190D01*
X84470476Y-56065714D02*
X84470476Y-56732380D01*
X84232380Y-55684761D02*
X83994285Y-56399047D01*
X84613333Y-56399047D01*
X86212333Y-59733380D02*
X85879000Y-59257190D01*
X85640904Y-59733380D02*
X85640904Y-58733380D01*
X86021857Y-58733380D01*
X86117095Y-58781000D01*
X86164714Y-58828619D01*
X86212333Y-58923857D01*
X86212333Y-59066714D01*
X86164714Y-59161952D01*
X86117095Y-59209571D01*
X86021857Y-59257190D01*
X85640904Y-59257190D01*
X86545666Y-58733380D02*
X87164714Y-58733380D01*
X86831380Y-59114333D01*
X86974238Y-59114333D01*
X87069476Y-59161952D01*
X87117095Y-59209571D01*
X87164714Y-59304809D01*
X87164714Y-59542904D01*
X87117095Y-59638142D01*
X87069476Y-59685761D01*
X86974238Y-59733380D01*
X86688523Y-59733380D01*
X86593285Y-59685761D01*
X86545666Y-59638142D01*
X79113333Y-56732380D02*
X78780000Y-56256190D01*
X78541904Y-56732380D02*
X78541904Y-55732380D01*
X78922857Y-55732380D01*
X79018095Y-55780000D01*
X79065714Y-55827619D01*
X79113333Y-55922857D01*
X79113333Y-56065714D01*
X79065714Y-56160952D01*
X79018095Y-56208571D01*
X78922857Y-56256190D01*
X78541904Y-56256190D01*
X79494285Y-55827619D02*
X79541904Y-55780000D01*
X79637142Y-55732380D01*
X79875238Y-55732380D01*
X79970476Y-55780000D01*
X80018095Y-55827619D01*
X80065714Y-55922857D01*
X80065714Y-56018095D01*
X80018095Y-56160952D01*
X79446666Y-56732380D01*
X80065714Y-56732380D01*
X78973333Y-59733380D02*
X78640000Y-59257190D01*
X78401904Y-59733380D02*
X78401904Y-58733380D01*
X78782857Y-58733380D01*
X78878095Y-58781000D01*
X78925714Y-58828619D01*
X78973333Y-58923857D01*
X78973333Y-59066714D01*
X78925714Y-59161952D01*
X78878095Y-59209571D01*
X78782857Y-59257190D01*
X78401904Y-59257190D01*
X79925714Y-59733380D02*
X79354285Y-59733380D01*
X79640000Y-59733380D02*
X79640000Y-58733380D01*
X79544761Y-58876238D01*
X79449523Y-58971476D01*
X79354285Y-59019095D01*
X81434761Y-54077619D02*
X81339523Y-54030000D01*
X81244285Y-53934761D01*
X81101428Y-53791904D01*
X81006190Y-53744285D01*
X80910952Y-53744285D01*
X80958571Y-53982380D02*
X80863333Y-53934761D01*
X80768095Y-53839523D01*
X80720476Y-53649047D01*
X80720476Y-53315714D01*
X80768095Y-53125238D01*
X80863333Y-53030000D01*
X80958571Y-52982380D01*
X81149047Y-52982380D01*
X81244285Y-53030000D01*
X81339523Y-53125238D01*
X81387142Y-53315714D01*
X81387142Y-53649047D01*
X81339523Y-53839523D01*
X81244285Y-53934761D01*
X81149047Y-53982380D01*
X80958571Y-53982380D01*
X81720476Y-52982380D02*
X82339523Y-52982380D01*
X82006190Y-53363333D01*
X82149047Y-53363333D01*
X82244285Y-53410952D01*
X82291904Y-53458571D01*
X82339523Y-53553809D01*
X82339523Y-53791904D01*
X82291904Y-53887142D01*
X82244285Y-53934761D01*
X82149047Y-53982380D01*
X81863333Y-53982380D01*
X81768095Y-53934761D01*
X81720476Y-53887142D01*
X79184761Y-54077619D02*
X79089523Y-54030000D01*
X78994285Y-53934761D01*
X78851428Y-53791904D01*
X78756190Y-53744285D01*
X78660952Y-53744285D01*
X78708571Y-53982380D02*
X78613333Y-53934761D01*
X78518095Y-53839523D01*
X78470476Y-53649047D01*
X78470476Y-53315714D01*
X78518095Y-53125238D01*
X78613333Y-53030000D01*
X78708571Y-52982380D01*
X78899047Y-52982380D01*
X78994285Y-53030000D01*
X79089523Y-53125238D01*
X79137142Y-53315714D01*
X79137142Y-53649047D01*
X79089523Y-53839523D01*
X78994285Y-53934761D01*
X78899047Y-53982380D01*
X78708571Y-53982380D01*
X80089523Y-53982380D02*
X79518095Y-53982380D01*
X79803809Y-53982380D02*
X79803809Y-52982380D01*
X79708571Y-53125238D01*
X79613333Y-53220476D01*
X79518095Y-53268095D01*
X129333333Y-48232380D02*
X128857142Y-48232380D01*
X128857142Y-47232380D01*
X130190476Y-48232380D02*
X129619047Y-48232380D01*
X129904761Y-48232380D02*
X129904761Y-47232380D01*
X129809523Y-47375238D01*
X129714285Y-47470476D01*
X129619047Y-47518095D01*
X143030666Y-45862380D02*
X143030666Y-46576666D01*
X142983047Y-46719523D01*
X142887809Y-46814761D01*
X142744952Y-46862380D01*
X142649714Y-46862380D01*
X143411619Y-45862380D02*
X144030666Y-45862380D01*
X143697333Y-46243333D01*
X143840190Y-46243333D01*
X143935428Y-46290952D01*
X143983047Y-46338571D01*
X144030666Y-46433809D01*
X144030666Y-46671904D01*
X143983047Y-46767142D01*
X143935428Y-46814761D01*
X143840190Y-46862380D01*
X143554476Y-46862380D01*
X143459238Y-46814761D01*
X143411619Y-46767142D01*
X109667666Y-53399380D02*
X109667666Y-54113666D01*
X109620047Y-54256523D01*
X109524809Y-54351761D01*
X109381952Y-54399380D01*
X109286714Y-54399380D01*
X110667666Y-54399380D02*
X110096238Y-54399380D01*
X110381952Y-54399380D02*
X110381952Y-53399380D01*
X110286714Y-53542238D01*
X110191476Y-53637476D01*
X110096238Y-53685095D01*
X111178571Y-49835333D02*
X111178571Y-50168666D01*
X111702380Y-50168666D02*
X110702380Y-50168666D01*
X110702380Y-49692476D01*
X111702380Y-48787714D02*
X111702380Y-49359142D01*
X111702380Y-49073428D02*
X110702380Y-49073428D01*
X110845238Y-49168666D01*
X110940476Y-49263904D01*
X110988095Y-49359142D01*
X124297442Y-50797942D02*
X124249823Y-50845561D01*
X124106966Y-50893180D01*
X124011728Y-50893180D01*
X123868871Y-50845561D01*
X123773633Y-50750323D01*
X123726014Y-50655085D01*
X123678395Y-50464609D01*
X123678395Y-50321752D01*
X123726014Y-50131276D01*
X123773633Y-50036038D01*
X123868871Y-49940800D01*
X124011728Y-49893180D01*
X124106966Y-49893180D01*
X124249823Y-49940800D01*
X124297442Y-49988419D01*
X125249823Y-50893180D02*
X124678395Y-50893180D01*
X124964109Y-50893180D02*
X124964109Y-49893180D01*
X124868871Y-50036038D01*
X124773633Y-50131276D01*
X124678395Y-50178895D01*
X126202204Y-50893180D02*
X125630776Y-50893180D01*
X125916490Y-50893180D02*
X125916490Y-49893180D01*
X125821252Y-50036038D01*
X125726014Y-50131276D01*
X125630776Y-50178895D01*
X124299742Y-52637142D02*
X124252123Y-52684761D01*
X124109266Y-52732380D01*
X124014028Y-52732380D01*
X123871171Y-52684761D01*
X123775933Y-52589523D01*
X123728314Y-52494285D01*
X123680695Y-52303809D01*
X123680695Y-52160952D01*
X123728314Y-51970476D01*
X123775933Y-51875238D01*
X123871171Y-51780000D01*
X124014028Y-51732380D01*
X124109266Y-51732380D01*
X124252123Y-51780000D01*
X124299742Y-51827619D01*
X125252123Y-52732380D02*
X124680695Y-52732380D01*
X124966409Y-52732380D02*
X124966409Y-51732380D01*
X124871171Y-51875238D01*
X124775933Y-51970476D01*
X124680695Y-52018095D01*
X125871171Y-51732380D02*
X125966409Y-51732380D01*
X126061647Y-51780000D01*
X126109266Y-51827619D01*
X126156885Y-51922857D01*
X126204504Y-52113333D01*
X126204504Y-52351428D01*
X126156885Y-52541904D01*
X126109266Y-52637142D01*
X126061647Y-52684761D01*
X125966409Y-52732380D01*
X125871171Y-52732380D01*
X125775933Y-52684761D01*
X125728314Y-52637142D01*
X125680695Y-52541904D01*
X125633076Y-52351428D01*
X125633076Y-52113333D01*
X125680695Y-51922857D01*
X125728314Y-51827619D01*
X125775933Y-51780000D01*
X125871171Y-51732380D01*
X106115142Y-50303666D02*
X106162761Y-50351285D01*
X106210380Y-50494142D01*
X106210380Y-50589380D01*
X106162761Y-50732238D01*
X106067523Y-50827476D01*
X105972285Y-50875095D01*
X105781809Y-50922714D01*
X105638952Y-50922714D01*
X105448476Y-50875095D01*
X105353238Y-50827476D01*
X105258000Y-50732238D01*
X105210380Y-50589380D01*
X105210380Y-50494142D01*
X105258000Y-50351285D01*
X105305619Y-50303666D01*
X105638952Y-49732238D02*
X105591333Y-49827476D01*
X105543714Y-49875095D01*
X105448476Y-49922714D01*
X105400857Y-49922714D01*
X105305619Y-49875095D01*
X105258000Y-49827476D01*
X105210380Y-49732238D01*
X105210380Y-49541761D01*
X105258000Y-49446523D01*
X105305619Y-49398904D01*
X105400857Y-49351285D01*
X105448476Y-49351285D01*
X105543714Y-49398904D01*
X105591333Y-49446523D01*
X105638952Y-49541761D01*
X105638952Y-49732238D01*
X105686571Y-49827476D01*
X105734190Y-49875095D01*
X105829428Y-49922714D01*
X106019904Y-49922714D01*
X106115142Y-49875095D01*
X106162761Y-49827476D01*
X106210380Y-49732238D01*
X106210380Y-49541761D01*
X106162761Y-49446523D01*
X106115142Y-49398904D01*
X106019904Y-49351285D01*
X105829428Y-49351285D01*
X105734190Y-49398904D01*
X105686571Y-49446523D01*
X105638952Y-49541761D01*
X132833333Y-43137142D02*
X132785714Y-43184761D01*
X132642857Y-43232380D01*
X132547619Y-43232380D01*
X132404761Y-43184761D01*
X132309523Y-43089523D01*
X132261904Y-42994285D01*
X132214285Y-42803809D01*
X132214285Y-42660952D01*
X132261904Y-42470476D01*
X132309523Y-42375238D01*
X132404761Y-42280000D01*
X132547619Y-42232380D01*
X132642857Y-42232380D01*
X132785714Y-42280000D01*
X132833333Y-42327619D01*
X133166666Y-42232380D02*
X133833333Y-42232380D01*
X133404761Y-43232380D01*
X123357142Y-44946666D02*
X123404761Y-44994285D01*
X123452380Y-45137142D01*
X123452380Y-45232380D01*
X123404761Y-45375238D01*
X123309523Y-45470476D01*
X123214285Y-45518095D01*
X123023809Y-45565714D01*
X122880952Y-45565714D01*
X122690476Y-45518095D01*
X122595238Y-45470476D01*
X122500000Y-45375238D01*
X122452380Y-45232380D01*
X122452380Y-45137142D01*
X122500000Y-44994285D01*
X122547619Y-44946666D01*
X122452380Y-44089523D02*
X122452380Y-44280000D01*
X122500000Y-44375238D01*
X122547619Y-44422857D01*
X122690476Y-44518095D01*
X122880952Y-44565714D01*
X123261904Y-44565714D01*
X123357142Y-44518095D01*
X123404761Y-44470476D01*
X123452380Y-44375238D01*
X123452380Y-44184761D01*
X123404761Y-44089523D01*
X123357142Y-44041904D01*
X123261904Y-43994285D01*
X123023809Y-43994285D01*
X122928571Y-44041904D01*
X122880952Y-44089523D01*
X122833333Y-44184761D01*
X122833333Y-44375238D01*
X122880952Y-44470476D01*
X122928571Y-44518095D01*
X123023809Y-44565714D01*
X121753333Y-30887142D02*
X121705714Y-30934761D01*
X121562857Y-30982380D01*
X121467619Y-30982380D01*
X121324761Y-30934761D01*
X121229523Y-30839523D01*
X121181904Y-30744285D01*
X121134285Y-30553809D01*
X121134285Y-30410952D01*
X121181904Y-30220476D01*
X121229523Y-30125238D01*
X121324761Y-30030000D01*
X121467619Y-29982380D01*
X121562857Y-29982380D01*
X121705714Y-30030000D01*
X121753333Y-30077619D01*
X122658095Y-29982380D02*
X122181904Y-29982380D01*
X122134285Y-30458571D01*
X122181904Y-30410952D01*
X122277142Y-30363333D01*
X122515238Y-30363333D01*
X122610476Y-30410952D01*
X122658095Y-30458571D01*
X122705714Y-30553809D01*
X122705714Y-30791904D01*
X122658095Y-30887142D01*
X122610476Y-30934761D01*
X122515238Y-30982380D01*
X122277142Y-30982380D01*
X122181904Y-30934761D01*
X122134285Y-30887142D01*
X131007142Y-31863166D02*
X131054761Y-31910785D01*
X131102380Y-32053642D01*
X131102380Y-32148880D01*
X131054761Y-32291738D01*
X130959523Y-32386976D01*
X130864285Y-32434595D01*
X130673809Y-32482214D01*
X130530952Y-32482214D01*
X130340476Y-32434595D01*
X130245238Y-32386976D01*
X130150000Y-32291738D01*
X130102380Y-32148880D01*
X130102380Y-32053642D01*
X130150000Y-31910785D01*
X130197619Y-31863166D01*
X130435714Y-31006023D02*
X131102380Y-31006023D01*
X130054761Y-31244119D02*
X130769047Y-31482214D01*
X130769047Y-30863166D01*
X131581142Y-44588666D02*
X131628761Y-44636285D01*
X131676380Y-44779142D01*
X131676380Y-44874380D01*
X131628761Y-45017238D01*
X131533523Y-45112476D01*
X131438285Y-45160095D01*
X131247809Y-45207714D01*
X131104952Y-45207714D01*
X130914476Y-45160095D01*
X130819238Y-45112476D01*
X130724000Y-45017238D01*
X130676380Y-44874380D01*
X130676380Y-44779142D01*
X130724000Y-44636285D01*
X130771619Y-44588666D01*
X130676380Y-44255333D02*
X130676380Y-43636285D01*
X131057333Y-43969619D01*
X131057333Y-43826761D01*
X131104952Y-43731523D01*
X131152571Y-43683904D01*
X131247809Y-43636285D01*
X131485904Y-43636285D01*
X131581142Y-43683904D01*
X131628761Y-43731523D01*
X131676380Y-43826761D01*
X131676380Y-44112476D01*
X131628761Y-44207714D01*
X131581142Y-44255333D01*
X135215333Y-32173142D02*
X135167714Y-32220761D01*
X135024857Y-32268380D01*
X134929619Y-32268380D01*
X134786761Y-32220761D01*
X134691523Y-32125523D01*
X134643904Y-32030285D01*
X134596285Y-31839809D01*
X134596285Y-31696952D01*
X134643904Y-31506476D01*
X134691523Y-31411238D01*
X134786761Y-31316000D01*
X134929619Y-31268380D01*
X135024857Y-31268380D01*
X135167714Y-31316000D01*
X135215333Y-31363619D01*
X135596285Y-31363619D02*
X135643904Y-31316000D01*
X135739142Y-31268380D01*
X135977238Y-31268380D01*
X136072476Y-31316000D01*
X136120095Y-31363619D01*
X136167714Y-31458857D01*
X136167714Y-31554095D01*
X136120095Y-31696952D01*
X135548666Y-32268380D01*
X136167714Y-32268380D01*
X135833333Y-43137142D02*
X135785714Y-43184761D01*
X135642857Y-43232380D01*
X135547619Y-43232380D01*
X135404761Y-43184761D01*
X135309523Y-43089523D01*
X135261904Y-42994285D01*
X135214285Y-42803809D01*
X135214285Y-42660952D01*
X135261904Y-42470476D01*
X135309523Y-42375238D01*
X135404761Y-42280000D01*
X135547619Y-42232380D01*
X135642857Y-42232380D01*
X135785714Y-42280000D01*
X135833333Y-42327619D01*
X136785714Y-43232380D02*
X136214285Y-43232380D01*
X136500000Y-43232380D02*
X136500000Y-42232380D01*
X136404761Y-42375238D01*
X136309523Y-42470476D01*
X136214285Y-42518095D01*
M02*
