ISO-10303-21;
HEADER;
FILE_DESCRIPTION (( 'STEP AP214' ),
    '1' );
FILE_NAME ('Button Cap.STEP',
    '2026-08-31T09:04:56',
    ( '' ),
    ( '' ),
    'SwSTEP 2.0',
    'SolidWorks 2023',
    '' );
FILE_SCHEMA (( 'AUTOMOTIVE_DESIGN' ));
ENDSEC;

DATA;
#1 = CARTESIAN_POINT ( 'NONE',  ( 8.149999999999998579, 9.400000000000000355, 18.39999999999999858 ) ) ;
#2 = ORIENTED_EDGE ( 'NONE', *, *, #195, .T. ) ;
#3 = EDGE_CURVE ( 'NONE', #203, #318, #428, .T. ) ;
#4 = CARTESIAN_POINT ( 'NONE',  ( 8.149999999999998579, -9.400000000000000355, 18.39999999999999858 ) ) ;
#5 = ORIENTED_EDGE ( 'NONE', *, *, #264, .F. ) ;
#6 =( NAMED_UNIT ( * ) SI_UNIT ( $, .STERADIAN. ) SOLID_ANGLE_UNIT ( ) );
#7 = VECTOR ( 'NONE', #112, 1000.000000000000000 ) ;
#8 = CARTESIAN_POINT ( 'NONE',  ( 6.250000000000000000, 0.000000000000000000, 16.99999999999999645 ) ) ;
#9 = EDGE_CURVE ( 'NONE', #456, #51, #253, .T. ) ;
#10 = DIRECTION ( 'NONE',  ( -0.000000000000000000, 0.000000000000000000, 1.000000000000000000 ) ) ;
#11 = CARTESIAN_POINT ( 'NONE',  ( -6.250000000000000000, 7.500000000000000888, 16.99999999999999645 ) ) ;
#12 =( GEOMETRIC_REPRESENTATION_CONTEXT ( 3 ) GLOBAL_UNCERTAINTY_ASSIGNED_CONTEXT ( ( #132 ) ) GLOBAL_UNIT_ASSIGNED_CONTEXT ( ( #234, #299, #236 ) ) REPRESENTATION_CONTEXT ( 'NONE', 'WORKASPACE' ) );
#13 = PRODUCT_CONTEXT ( 'NONE', #87, 'mechanical' ) ;
#14 = LINE ( 'NONE', #157, #240 ) ;
#15 = DIRECTION ( 'NONE',  ( -1.000000000000000000, 0.000000000000000000, -0.000000000000000000 ) ) ;
#16 = CARTESIAN_POINT ( 'NONE',  ( -6.250000000000000000, -7.500000000000000888, 18.00000000000000000 ) ) ;
#17 = ORIENTED_EDGE ( 'NONE', *, *, #303, .F. ) ;
#18 = DIRECTION ( 'NONE',  ( 0.000000000000000000, 1.000000000000000000, 0.000000000000000000 ) ) ;
#19 = AXIS2_PLACEMENT_3D ( 'NONE', #138, #101, #287 ) ;
#20 = LINE ( 'NONE', #4, #91 ) ;
#21 = LINE ( 'NONE', #194, #115 ) ;
#22 = EDGE_LOOP ( 'NONE', ( #100, #5, #90, #79 ) ) ;
#23 = VECTOR ( 'NONE', #388, 1000.000000000000000 ) ;
#24 = CARTESIAN_POINT ( 'NONE',  ( -8.150000000000000355, 9.400000000000000355, 18.00000000000000000 ) ) ;
#25 = ORIENTED_EDGE ( 'NONE', *, *, #9, .F. ) ;
#26 = CARTESIAN_POINT ( 'NONE',  ( 0.000000000000000000, 0.000000000000000000, 16.99999999999999645 ) ) ;
#27 = DIRECTION ( 'NONE',  ( 0.000000000000000000, 0.000000000000000000, -1.000000000000000000 ) ) ;
#28 = ORIENTED_EDGE ( 'NONE', *, *, #207, .F. ) ;
#29 = LINE ( 'NONE', #66, #359 ) ;
#30 = ORIENTED_EDGE ( 'NONE', *, *, #268, .F. ) ;
#31 = AXIS2_PLACEMENT_3D ( 'NONE', #443, #116, #309 ) ;
#32 = AXIS2_PLACEMENT_3D ( 'NONE', #42, #254, #362 ) ;
#33 = CARTESIAN_POINT ( 'NONE',  ( 6.250000000000000000, 0.000000000000000000, 18.00000000000000000 ) ) ;
#34 = FACE_OUTER_BOUND ( 'NONE', #228, .T. ) ;
#35 = EDGE_CURVE ( 'NONE', #98, #248, #397, .T. ) ;
#36 = LINE ( 'NONE', #70, #329 ) ;
#37 = CARTESIAN_POINT ( 'NONE',  ( -6.250000000000000000, -7.500000000000000888, 16.99999999999999645 ) ) ;
#38 = DIRECTION ( 'NONE',  ( -0.000000000000000000, 1.000000000000000000, -0.000000000000000000 ) ) ;
#39 = CARTESIAN_POINT ( 'NONE',  ( -6.250000000000000000, 0.000000000000000000, 16.99999999999999645 ) ) ;
#40 = VECTOR ( 'NONE', #104, 1000.000000000000000 ) ;
#41 = ORIENTED_EDGE ( 'NONE', *, *, #161, .T. ) ;
#42 = CARTESIAN_POINT ( 'NONE',  ( 8.149999999999998579, 9.400000000000000355, 18.39999999999999858 ) ) ;
#43 = CARTESIAN_POINT ( 'NONE',  ( 7.150000000000000355, 0.000000000000000000, 18.00000000000000000 ) ) ;
#44 = EDGE_LOOP ( 'NONE', ( #209, #404, #414, #260 ) ) ;
#45 = PRODUCT_RELATED_PRODUCT_CATEGORY ( 'part', '', ( #417 ) ) ;
#46 = PLANE ( 'NONE',  #193 ) ;
#47 = EDGE_LOOP ( 'NONE', ( #125, #460, #439, #283 ) ) ;
#48 = EDGE_CURVE ( 'NONE', #230, #98, #36, .T. ) ;
#49 = APPLICATION_PROTOCOL_DEFINITION ( 'draft international standard', 'automotive_design', 1998, #87 ) ;
#50 = VECTOR ( 'NONE', #210, 1000.000000000000000 ) ;
#51 = VERTEX_POINT ( 'NONE', #215 ) ;
#52 = ADVANCED_FACE ( 'NONE', ( #432, #470 ), #293, .F. ) ;
#53 = DIRECTION ( 'NONE',  ( -0.000000000000000000, -0.000000000000000000, -1.000000000000000000 ) ) ;
#54 = EDGE_LOOP ( 'NONE', ( #237, #257, #421, #233 ) ) ;
#55 = DIRECTION ( 'NONE',  ( 0.000000000000000000, -0.000000000000000000, 1.000000000000000000 ) ) ;
#56 = FACE_BOUND ( 'NONE', #450, .T. ) ;
#57 = ORIENTED_EDGE ( 'NONE', *, *, #317, .F. ) ;
#58 = CARTESIAN_POINT ( 'NONE',  ( -0.000000000000000000, -7.500000000000000888, 18.00000000000000000 ) ) ;
#59 = VECTOR ( 'NONE', #105, 1000.000000000000000 ) ;
#60 = ORIENTED_EDGE ( 'NONE', *, *, #272, .F. ) ;
#61 = ADVANCED_FACE ( 'NONE', ( #188 ), #338, .T. ) ;
#62 = LINE ( 'NONE', #205, #223 ) ;
#63 = VERTEX_POINT ( 'NONE', #154 ) ;
#64 = DIRECTION ( 'NONE',  ( 0.000000000000000000, 0.000000000000000000, -1.000000000000000000 ) ) ;
#65 = ORIENTED_EDGE ( 'NONE', *, *, #161, .F. ) ;
#66 = CARTESIAN_POINT ( 'NONE',  ( 0.000000000000000000, 8.400000000000000355, 16.99999999999999645 ) ) ;
#67 = ORIENTED_EDGE ( 'NONE', *, *, #444, .F. ) ;
#68 = DIRECTION ( 'NONE',  ( -1.000000000000000000, 0.000000000000000000, -0.000000000000000000 ) ) ;
#69 = DIRECTION ( 'NONE',  ( -1.000000000000000000, 0.000000000000000000, 0.000000000000000000 ) ) ;
#70 = CARTESIAN_POINT ( 'NONE',  ( -0.000000000000000000, -8.400000000000000355, 18.00000000000000000 ) ) ;
#71 = FACE_OUTER_BOUND ( 'NONE', #453, .T. ) ;
#72 = CARTESIAN_POINT ( 'NONE',  ( 0.000000000000000000, 0.000000000000000000, 18.00000000000000000 ) ) ;
#73 = EDGE_CURVE ( 'NONE', #141, #51, #153, .T. ) ;
#74 = DIRECTION ( 'NONE',  ( -0.000000000000000000, -0.000000000000000000, 1.000000000000000000 ) ) ;
#75 = ORIENTED_EDGE ( 'NONE', *, *, #235, .T. ) ;
#76 = CLOSED_SHELL ( 'NONE', ( #52, #86, #199, #117, #81, #122, #466, #425, #382, #258, #61, #463, #102, #213, #140, #225 ) ) ;
#77 = AXIS2_PLACEMENT_3D ( 'NONE', #72, #347, #462 ) ;
#78 = DIRECTION ( 'NONE',  ( 0.000000000000000000, 1.000000000000000000, 0.000000000000000000 ) ) ;
#79 = ORIENTED_EDGE ( 'NONE', *, *, #339, .T. ) ;
#80 = CARTESIAN_POINT ( 'NONE',  ( -8.150000000000000355, 9.400000000000000355, 18.39999999999999858 ) ) ;
#81 = ADVANCED_FACE ( 'NONE', ( #301 ), #297, .F. ) ;
#82 = CARTESIAN_POINT ( 'NONE',  ( 0.000000000000000000, 0.000000000000000000, 0.000000000000000000 ) ) ;
#83 = COLOUR_RGB ( '',0.7921568627450980005, 0.8196078431372548767, 0.9333333333333333481 ) ;
#84 = LINE ( 'NONE', #378, #172 ) ;
#85 = VECTOR ( 'NONE', #344, 1000.000000000000000 ) ;
#86 = ADVANCED_FACE ( 'NONE', ( #263 ), #46, .F. ) ;
#87 = APPLICATION_CONTEXT ( 'automotive_design' ) ;
#88 = CARTESIAN_POINT ( 'NONE',  ( 6.250000000000000000, -7.500000000000000888, 16.99999999999999645 ) ) ;
#89 = VECTOR ( 'NONE', #114, 1000.000000000000000 ) ;
#90 = ORIENTED_EDGE ( 'NONE', *, *, #374, .T. ) ;
#91 = VECTOR ( 'NONE', #438, 1000.000000000000000 ) ;
#92 = VERTEX_POINT ( 'NONE', #185 ) ;
#93 = DIRECTION ( 'NONE',  ( 0.000000000000000000, -0.000000000000000000, 1.000000000000000000 ) ) ;
#94 = CARTESIAN_POINT ( 'NONE',  ( 6.250000000000000000, 0.000000000000000000, 16.99999999999999645 ) ) ;
#95 = ORIENTED_EDGE ( 'NONE', *, *, #3, .T. ) ;
#96 = DIRECTION ( 'NONE',  ( 0.000000000000000000, 1.000000000000000000, 0.000000000000000000 ) ) ;
#97 = PLANE ( 'NONE',  #19 ) ;
#98 = VERTEX_POINT ( 'NONE', #334 ) ;
#99 = DIRECTION ( 'NONE',  ( -0.000000000000000000, -0.000000000000000000, -1.000000000000000000 ) ) ;
#100 = ORIENTED_EDGE ( 'NONE', *, *, #442, .F. ) ;
#101 = DIRECTION ( 'NONE',  ( 0.000000000000000000, -1.000000000000000000, 0.000000000000000000 ) ) ;
#102 = ADVANCED_FACE ( 'NONE', ( #71 ), #216, .T. ) ;
#103 = AXIS2_PLACEMENT_3D ( 'NONE', #352, #420, #27 ) ;
#104 = DIRECTION ( 'NONE',  ( 0.000000000000000000, 1.000000000000000000, 0.000000000000000000 ) ) ;
#105 = DIRECTION ( 'NONE',  ( -0.000000000000000000, -0.000000000000000000, 1.000000000000000000 ) ) ;
#106 = PLANE ( 'NONE',  #77 ) ;
#107 = SURFACE_STYLE_USAGE ( .BOTH. , #434 ) ;
#108 = CARTESIAN_POINT ( 'NONE',  ( -8.150000000000000355, -9.400000000000000355, 18.39999999999999858 ) ) ;
#109 = DIRECTION ( 'NONE',  ( 0.000000000000000000, 0.000000000000000000, -1.000000000000000000 ) ) ;
#110 = PRODUCT_DEFINITION ( 'UNKNOWN', '', #320, #367 ) ;
#111 = DIRECTION ( 'NONE',  ( 1.000000000000000000, -0.000000000000000000, 0.000000000000000000 ) ) ;
#112 = DIRECTION ( 'NONE',  ( -0.000000000000000000, -0.000000000000000000, -1.000000000000000000 ) ) ;
#113 = ORIENTED_EDGE ( 'NONE', *, *, #386, .T. ) ;
#114 = DIRECTION ( 'NONE',  ( -0.000000000000000000, -0.000000000000000000, 1.000000000000000000 ) ) ;
#115 = VECTOR ( 'NONE', #192, 1000.000000000000000 ) ;
#116 = DIRECTION ( 'NONE',  ( -0.000000000000000000, 0.000000000000000000, 1.000000000000000000 ) ) ;
#117 = ADVANCED_FACE ( 'NONE', ( #182 ), #436, .F. ) ;
#118 = EDGE_CURVE ( 'NONE', #302, #230, #471, .T. ) ;
#119 = VECTOR ( 'NONE', #357, 1000.000000000000000 ) ;
#120 = DIRECTION ( 'NONE',  ( 0.000000000000000000, -1.000000000000000000, 0.000000000000000000 ) ) ;
#121 = ORIENTED_EDGE ( 'NONE', *, *, #298, .T. ) ;
#122 = ADVANCED_FACE ( 'NONE', ( #440 ), #279, .T. ) ;
#123 = SHAPE_DEFINITION_REPRESENTATION ( #165, #255 ) ;
#124 = FACE_OUTER_BOUND ( 'NONE', #288, .T. ) ;
#125 = ORIENTED_EDGE ( 'NONE', *, *, #207, .T. ) ;
#126 = CARTESIAN_POINT ( 'NONE',  ( 7.150000000000000355, -8.400000000000000355, 18.00000000000000000 ) ) ;
#127 = ORIENTED_EDGE ( 'NONE', *, *, #354, .F. ) ;
#128 = VECTOR ( 'NONE', #38, 1000.000000000000000 ) ;
#129 = ORIENTED_EDGE ( 'NONE', *, *, #187, .T. ) ;
#130 = PLANE ( 'NONE',  #164 ) ;
#131 = LINE ( 'NONE', #464, #448 ) ;
#132 = UNCERTAINTY_MEASURE_WITH_UNIT (LENGTH_MEASURE( 1.000000000000000082E-05 ), #234, 'distance_accuracy_value', 'NONE');
#133 = ORIENTED_EDGE ( 'NONE', *, *, #298, .F. ) ;
#134 = AXIS2_PLACEMENT_3D ( 'NONE', #423, #385, #294 ) ;
#135 = CARTESIAN_POINT ( 'NONE',  ( -7.150000000000000355, 8.400000000000000355, 16.99999999999999645 ) ) ;
#136 = EDGE_LOOP ( 'NONE', ( #25, #184, #343, #469 ) ) ;
#137 = LINE ( 'NONE', #256, #356 ) ;
#138 = CARTESIAN_POINT ( 'NONE',  ( 0.000000000000000000, 7.500000000000000888, 16.99999999999999645 ) ) ;
#139 = ORIENTED_EDGE ( 'NONE', *, *, #235, .F. ) ;
#140 = ADVANCED_FACE ( 'NONE', ( #56, #124 ), #245, .T. ) ;
#141 = VERTEX_POINT ( 'NONE', #88 ) ;
#142 = DIRECTION ( 'NONE',  ( 1.000000000000000000, 0.000000000000000000, 0.000000000000000000 ) ) ;
#143 = CARTESIAN_POINT ( 'NONE',  ( -6.250000000000000000, 0.000000000000000000, 18.00000000000000000 ) ) ;
#144 = AXIS2_PLACEMENT_3D ( 'NONE', #82, #274, #308 ) ;
#145 = DIRECTION ( 'NONE',  ( -1.000000000000000000, 0.000000000000000000, 0.000000000000000000 ) ) ;
#146 = EDGE_CURVE ( 'NONE', #318, #151, #20, .T. ) ;
#147 = ORIENTED_EDGE ( 'NONE', *, *, #118, .F. ) ;
#148 = CARTESIAN_POINT ( 'NONE',  ( -7.150000000000000355, -8.400000000000000355, 16.99999999999999645 ) ) ;
#149 = VERTEX_POINT ( 'NONE', #335 ) ;
#150 = CARTESIAN_POINT ( 'NONE',  ( -8.150000000000000355, -9.400000000000000355, 18.00000000000000000 ) ) ;
#151 = VERTEX_POINT ( 'NONE', #427 ) ;
#152 = AXIS2_PLACEMENT_3D ( 'NONE', #402, #262, #221 ) ;
#153 = LINE ( 'NONE', #224, #441 ) ;
#154 = CARTESIAN_POINT ( 'NONE',  ( -8.150000000000000355, -9.400000000000000355, 18.00000000000000000 ) ) ;
#155 = EDGE_CURVE ( 'NONE', #467, #336, #137, .T. ) ;
#156 = ORIENTED_EDGE ( 'NONE', *, *, #360, .F. ) ;
#157 = CARTESIAN_POINT ( 'NONE',  ( 6.250000000000000000, 7.500000000000000888, 16.99999999999999645 ) ) ;
#158 = LINE ( 'NONE', #143, #189 ) ;
#159 = ORIENTED_EDGE ( 'NONE', *, *, #457, .T. ) ;
#160 = VECTOR ( 'NONE', #429, 1000.000000000000000 ) ;
#161 = EDGE_CURVE ( 'NONE', #345, #230, #403, .T. ) ;
#162 = CARTESIAN_POINT ( 'NONE',  ( 8.149999999999998579, 9.400000000000000355, 18.00000000000000000 ) ) ;
#163 = LINE ( 'NONE', #445, #261 ) ;
#164 = AXIS2_PLACEMENT_3D ( 'NONE', #419, #96, #55 ) ;
#165 = PRODUCT_DEFINITION_SHAPE ( 'NONE', 'NONE',  #110 ) ;
#166 = EDGE_LOOP ( 'NONE', ( #75, #17, #57, #458 ) ) ;
#167 = DIRECTION ( 'NONE',  ( -1.000000000000000000, -0.000000000000000000, -0.000000000000000000 ) ) ;
#168 = CARTESIAN_POINT ( 'NONE',  ( 7.150000000000000355, 0.000000000000000000, 16.99999999999999645 ) ) ;
#169 = EDGE_LOOP ( 'NONE', ( #366, #133, #333, #277 ) ) ;
#170 = DIRECTION ( 'NONE',  ( 1.000000000000000000, 0.000000000000000000, 0.000000000000000000 ) ) ;
#171 = ORIENTED_EDGE ( 'NONE', *, *, #327, .T. ) ;
#172 = VECTOR ( 'NONE', #53, 1000.000000000000000 ) ;
#173 = EDGE_CURVE ( 'NONE', #389, #302, #368, .T. ) ;
#174 = CARTESIAN_POINT ( 'NONE',  ( 6.250000000000000000, 7.500000000000000888, 18.00000000000000000 ) ) ;
#175 = VERTEX_POINT ( 'NONE', #148 ) ;
#176 = DIRECTION ( 'NONE',  ( -1.000000000000000000, 0.000000000000000000, 0.000000000000000000 ) ) ;
#177 = DIRECTION ( 'NONE',  ( 0.000000000000000000, -1.000000000000000000, 0.000000000000000000 ) ) ;
#178 = LINE ( 'NONE', #350, #59 ) ;
#179 = EDGE_CURVE ( 'NONE', #149, #351, #286, .T. ) ;
#180 = ORIENTED_EDGE ( 'NONE', *, *, #191, .F. ) ;
#181 = AXIS2_PLACEMENT_3D ( 'NONE', #39, #111, #109 ) ;
#182 = FACE_OUTER_BOUND ( 'NONE', #47, .T. ) ;
#183 = LINE ( 'NONE', #150, #275 ) ;
#184 = ORIENTED_EDGE ( 'NONE', *, *, #339, .F. ) ;
#185 = CARTESIAN_POINT ( 'NONE',  ( -8.150000000000000355, 9.400000000000000355, 18.39999999999999858 ) ) ;
#186 = VECTOR ( 'NONE', #376, 1000.000000000000000 ) ;
#187 = EDGE_CURVE ( 'NONE', #467, #330, #259, .T. ) ;
#188 = FACE_OUTER_BOUND ( 'NONE', #136, .T. ) ;
#189 = VECTOR ( 'NONE', #18, 1000.000000000000000 ) ;
#190 = DIRECTION ( 'NONE',  ( -1.000000000000000000, 0.000000000000000000, 0.000000000000000000 ) ) ;
#191 = EDGE_CURVE ( 'NONE', #63, #151, #183, .T. ) ;
#192 = DIRECTION ( 'NONE',  ( -0.000000000000000000, -0.000000000000000000, 1.000000000000000000 ) ) ;
#193 = AXIS2_PLACEMENT_3D ( 'NONE', #80, #331, #398 ) ;
#194 = CARTESIAN_POINT ( 'NONE',  ( -7.150000000000000355, -8.400000000000000355, 16.99999999999999645 ) ) ;
#195 = EDGE_CURVE ( 'NONE', #336, #406, #158, .T. ) ;
#196 = LINE ( 'NONE', #410, #186 ) ;
#197 = ORIENTED_EDGE ( 'NONE', *, *, #264, .T. ) ;
#198 = LINE ( 'NONE', #162, #128 ) ;
#199 = ADVANCED_FACE ( 'NONE', ( #400 ), #278, .F. ) ;
#200 = ORIENTED_EDGE ( 'NONE', *, *, #399, .F. ) ;
#201 = CARTESIAN_POINT ( 'NONE',  ( -0.000000000000000000, 8.400000000000000355, 18.00000000000000000 ) ) ;
#202 = STYLED_ITEM ( 'NONE', ( #273 ), #265 ) ;
#203 = VERTEX_POINT ( 'NONE', #311 ) ;
#204 = CARTESIAN_POINT ( 'NONE',  ( 0.000000000000000000, 8.400000000000000355, 16.99999999999999645 ) ) ;
#205 = CARTESIAN_POINT ( 'NONE',  ( -8.150000000000000355, -9.400000000000000355, 18.39999999999999858 ) ) ;
#206 = EDGE_LOOP ( 'NONE', ( #200, #139, #28, #180 ) ) ;
#207 = EDGE_CURVE ( 'NONE', #151, #351, #198, .T. ) ;
#208 = PLANE ( 'NONE',  #103 ) ;
#209 = ORIENTED_EDGE ( 'NONE', *, *, #191, .T. ) ;
#210 = DIRECTION ( 'NONE',  ( -0.000000000000000000, 1.000000000000000000, -0.000000000000000000 ) ) ;
#211 = VECTOR ( 'NONE', #332, 1000.000000000000000 ) ;
#212 = DIRECTION ( 'NONE',  ( -0.000000000000000000, 0.000000000000000000, 1.000000000000000000 ) ) ;
#213 = ADVANCED_FACE ( 'NONE', ( #238 ), #358, .F. ) ;
#214 = FILL_AREA_STYLE_COLOUR ( '', #83 ) ;
#215 = CARTESIAN_POINT ( 'NONE',  ( 6.250000000000000000, -7.500000000000000888, 18.00000000000000000 ) ) ;
#216 = PLANE ( 'NONE',  #181 ) ;
#217 = DIRECTION ( 'NONE',  ( 0.000000000000000000, -0.000000000000000000, -1.000000000000000000 ) ) ;
#218 = ORIENTED_EDGE ( 'NONE', *, *, #35, .F. ) ;
#219 = CARTESIAN_POINT ( 'NONE',  ( 0.000000000000000000, 0.000000000000000000, 18.00000000000000000 ) ) ;
#220 = DIRECTION ( 'NONE',  ( 0.000000000000000000, -1.000000000000000000, 0.000000000000000000 ) ) ;
#221 = DIRECTION ( 'NONE',  ( 0.000000000000000000, -0.000000000000000000, -1.000000000000000000 ) ) ;
#222 = EDGE_CURVE ( 'NONE', #51, #336, #326, .T. ) ;
#223 = VECTOR ( 'NONE', #99, 1000.000000000000000 ) ;
#224 = CARTESIAN_POINT ( 'NONE',  ( 6.250000000000000000, -7.500000000000000888, 16.99999999999999645 ) ) ;
#225 = ADVANCED_FACE ( 'NONE', ( #430 ), #106, .F. ) ;
#226 = APPLICATION_PROTOCOL_DEFINITION ( 'draft international standard', 'automotive_design', 1998, #231 ) ;
#227 = DIRECTION ( 'NONE',  ( -0.000000000000000000, -0.000000000000000000, 1.000000000000000000 ) ) ;
#228 = EDGE_LOOP ( 'NONE', ( #387, #30, #127, #353 ) ) ;
#229 =( GEOMETRIC_REPRESENTATION_CONTEXT ( 3 ) GLOBAL_UNCERTAINTY_ASSIGNED_CONTEXT ( ( #371 ) ) GLOBAL_UNIT_ASSIGNED_CONTEXT ( ( #355, #468, #6 ) ) REPRESENTATION_CONTEXT ( 'NONE', 'WORKASPACE' ) );
#230 = VERTEX_POINT ( 'NONE', #126 ) ;
#231 = APPLICATION_CONTEXT ( 'automotive_design' ) ;
#232 = LINE ( 'NONE', #271, #324 ) ;
#233 = ORIENTED_EDGE ( 'NONE', *, *, #155, .T. ) ;
#234 =( LENGTH_UNIT ( ) NAMED_UNIT ( * ) SI_UNIT ( .MILLI., .METRE. ) );
#235 = EDGE_CURVE ( 'NONE', #351, #307, #328, .T. ) ;
#236 =( NAMED_UNIT ( * ) SI_UNIT ( $, .STERADIAN. ) SOLID_ANGLE_UNIT ( ) );
#237 = ORIENTED_EDGE ( 'NONE', *, *, #222, .F. ) ;
#238 = FACE_OUTER_BOUND ( 'NONE', #411, .T. ) ;
#239 = FACE_OUTER_BOUND ( 'NONE', #22, .T. ) ;
#240 = VECTOR ( 'NONE', #306, 1000.000000000000000 ) ;
#241 = ORIENTED_EDGE ( 'NONE', *, *, #282, .F. ) ;
#242 = CARTESIAN_POINT ( 'NONE',  ( -6.250000000000000000, 7.500000000000000888, 16.99999999999999645 ) ) ;
#243 = ORIENTED_EDGE ( 'NONE', *, *, #173, .T. ) ;
#244 = MECHANICAL_DESIGN_GEOMETRIC_PRESENTATION_REPRESENTATION (  '', ( #202 ), #12 ) ;
#245 = PLANE ( 'NONE',  #266 ) ;
#246 = CARTESIAN_POINT ( 'NONE',  ( -0.000000000000000000, 7.500000000000000888, 18.00000000000000000 ) ) ;
#247 = ORIENTED_EDGE ( 'NONE', *, *, #173, .F. ) ;
#248 = VERTEX_POINT ( 'NONE', #316 ) ;
#249 = PLANE ( 'NONE',  #291 ) ;
#250 = LINE ( 'NONE', #246, #292 ) ;
#251 = CARTESIAN_POINT ( 'NONE',  ( -8.150000000000000355, 9.400000000000000355, 18.00000000000000000 ) ) ;
#252 = LINE ( 'NONE', #242, #23 ) ;
#253 = LINE ( 'NONE', #33, #377 ) ;
#254 = DIRECTION ( 'NONE',  ( -1.000000000000000000, 0.000000000000000000, 0.000000000000000000 ) ) ;
#255 = ADVANCED_BREP_SHAPE_REPRESENTATION ( 'Button Cap', ( #265, #144 ), #229 ) ;
#256 = CARTESIAN_POINT ( 'NONE',  ( -6.250000000000000000, -7.500000000000000888, 16.99999999999999645 ) ) ;
#257 = ORIENTED_EDGE ( 'NONE', *, *, #73, .F. ) ;
#258 = ADVANCED_FACE ( 'NONE', ( #380 ), #130, .T. ) ;
#259 = LINE ( 'NONE', #405, #348 ) ;
#260 = ORIENTED_EDGE ( 'NONE', *, *, #431, .T. ) ;
#261 = VECTOR ( 'NONE', #120, 1000.000000000000000 ) ;
#262 = DIRECTION ( 'NONE',  ( 0.000000000000000000, -1.000000000000000000, 0.000000000000000000 ) ) ;
#263 = FACE_OUTER_BOUND ( 'NONE', #285, .T. ) ;
#264 = EDGE_CURVE ( 'NONE', #330, #406, #252, .T. ) ;
#265 = MANIFOLD_SOLID_BREP ( 'Boss-Extrude4', #76 ) ;
#266 = AXIS2_PLACEMENT_3D ( 'NONE', #26, #64, #15 ) ;
#267 = PRESENTATION_LAYER_ASSIGNMENT (  '', '', ( #202 ) ) ;
#268 = EDGE_CURVE ( 'NONE', #175, #98, #21, .T. ) ;
#269 = CARTESIAN_POINT ( 'NONE',  ( 7.150000000000000355, 8.400000000000000355, 18.00000000000000000 ) ) ;
#270 = ORIENTED_EDGE ( 'NONE', *, *, #319, .F. ) ;
#271 = CARTESIAN_POINT ( 'NONE',  ( -7.150000000000000355, 8.400000000000000355, 16.99999999999999645 ) ) ;
#272 = EDGE_CURVE ( 'NONE', #141, #467, #396, .T. ) ;
#273 = PRESENTATION_STYLE_ASSIGNMENT (( #107 ) ) ;
#274 = DIRECTION ( 'NONE',  ( 0.000000000000000000, 0.000000000000000000, 1.000000000000000000 ) ) ;
#275 = VECTOR ( 'NONE', #384, 1000.000000000000000 ) ;
#276 = CARTESIAN_POINT ( 'NONE',  ( -8.150000000000000355, 9.400000000000000355, 18.00000000000000000 ) ) ;
#277 = ORIENTED_EDGE ( 'NONE', *, *, #268, .T. ) ;
#278 = PLANE ( 'NONE',  #407 ) ;
#279 = PLANE ( 'NONE',  #31 ) ;
#280 = CARTESIAN_POINT ( 'NONE',  ( 6.250000000000000000, 7.500000000000000888, 16.99999999999999645 ) ) ;
#281 = ORIENTED_EDGE ( 'NONE', *, *, #431, .F. ) ;
#282 = EDGE_CURVE ( 'NONE', #92, #203, #163, .T. ) ;
#283 = ORIENTED_EDGE ( 'NONE', *, *, #146, .T. ) ;
#284 = PLANE ( 'NONE',  #134 ) ;
#285 = EDGE_LOOP ( 'NONE', ( #346, #281, #241, #300 ) ) ;
#286 = LINE ( 'NONE', #1, #7 ) ;
#287 = DIRECTION ( 'NONE',  ( 0.000000000000000000, -0.000000000000000000, -1.000000000000000000 ) ) ;
#288 = EDGE_LOOP ( 'NONE', ( #243, #390, #171, #381 ) ) ;
#289 = ORIENTED_EDGE ( 'NONE', *, *, #317, .T. ) ;
#290 = DIRECTION ( 'NONE',  ( 1.000000000000000000, 0.000000000000000000, 0.000000000000000000 ) ) ;
#291 = AXIS2_PLACEMENT_3D ( 'NONE', #168, #68, #212 ) ;
#292 = VECTOR ( 'NONE', #391, 1000.000000000000000 ) ;
#293 = PLANE ( 'NONE',  #304 ) ;
#294 = DIRECTION ( 'NONE',  ( 0.000000000000000000, -0.000000000000000000, 1.000000000000000000 ) ) ;
#295 = SURFACE_STYLE_FILL_AREA ( #465 ) ;
#296 = VERTEX_POINT ( 'NONE', #280 ) ;
#297 = PLANE ( 'NONE',  #152 ) ;
#298 = EDGE_CURVE ( 'NONE', #424, #248, #232, .T. ) ;
#299 =( NAMED_UNIT ( * ) PLANE_ANGLE_UNIT ( ) SI_UNIT ( $, .RADIAN. ) );
#300 = ORIENTED_EDGE ( 'NONE', *, *, #303, .T. ) ;
#301 = FACE_OUTER_BOUND ( 'NONE', #166, .T. ) ;
#302 = VERTEX_POINT ( 'NONE', #408 ) ;
#303 = EDGE_CURVE ( 'NONE', #92, #307, #84, .T. ) ;
#304 = AXIS2_PLACEMENT_3D ( 'NONE', #219, #361, #437 ) ;
#305 = VECTOR ( 'NONE', #220, 1000.000000000000000 ) ;
#306 = DIRECTION ( 'NONE',  ( -0.000000000000000000, -0.000000000000000000, 1.000000000000000000 ) ) ;
#307 = VERTEX_POINT ( 'NONE', #276 ) ;
#308 = DIRECTION ( 'NONE',  ( 1.000000000000000000, 0.000000000000000000, 0.000000000000000000 ) ) ;
#309 = DIRECTION ( 'NONE',  ( 1.000000000000000000, 0.000000000000000000, 0.000000000000000000 ) ) ;
#310 = LINE ( 'NONE', #413, #312 ) ;
#311 = CARTESIAN_POINT ( 'NONE',  ( -8.150000000000000355, -9.400000000000000355, 18.39999999999999858 ) ) ;
#312 = VECTOR ( 'NONE', #176, 1000.000000000000000 ) ;
#313 = LINE ( 'NONE', #342, #375 ) ;
#314 = EDGE_LOOP ( 'NONE', ( #41, #147, #247, #447 ) ) ;
#315 = ORIENTED_EDGE ( 'NONE', *, *, #222, .T. ) ;
#316 = CARTESIAN_POINT ( 'NONE',  ( -7.150000000000000355, 8.400000000000000355, 18.00000000000000000 ) ) ;
#317 = EDGE_CURVE ( 'NONE', #149, #92, #196, .T. ) ;
#318 = VERTEX_POINT ( 'NONE', #340 ) ;
#319 = EDGE_CURVE ( 'NONE', #296, #141, #416, .T. ) ;
#320 = PRODUCT_DEFINITION_FORMATION_WITH_SPECIFIED_SOURCE ( 'ANY', '', #417, .NOT_KNOWN. ) ;
#321 = ORIENTED_EDGE ( 'NONE', *, *, #386, .F. ) ;
#322 = FACE_OUTER_BOUND ( 'NONE', #169, .T. ) ;
#323 = ORIENTED_EDGE ( 'NONE', *, *, #155, .F. ) ;
#324 = VECTOR ( 'NONE', #227, 1000.000000000000000 ) ;
#325 = DIRECTION ( 'NONE',  ( 0.000000000000000000, -1.000000000000000000, 0.000000000000000000 ) ) ;
#326 = LINE ( 'NONE', #58, #395 ) ;
#327 = EDGE_CURVE ( 'NONE', #175, #424, #313, .T. ) ;
#328 = LINE ( 'NONE', #251, #451 ) ;
#329 = VECTOR ( 'NONE', #145, 1000.000000000000000 ) ;
#330 = VERTEX_POINT ( 'NONE', #11 ) ;
#331 = DIRECTION ( 'NONE',  ( 1.000000000000000000, 0.000000000000000000, -0.000000000000000000 ) ) ;
#332 = DIRECTION ( 'NONE',  ( 0.000000000000000000, -1.000000000000000000, 0.000000000000000000 ) ) ;
#333 = ORIENTED_EDGE ( 'NONE', *, *, #327, .F. ) ;
#334 = CARTESIAN_POINT ( 'NONE',  ( -7.150000000000000355, -8.400000000000000355, 18.00000000000000000 ) ) ;
#335 = CARTESIAN_POINT ( 'NONE',  ( 8.149999999999998579, 9.400000000000000355, 18.39999999999999858 ) ) ;
#336 = VERTEX_POINT ( 'NONE', #16 ) ;
#337 = CARTESIAN_POINT ( 'NONE',  ( 7.150000000000000355, -8.400000000000000355, 16.99999999999999645 ) ) ;
#338 = PLANE ( 'NONE',  #363 ) ;
#339 = EDGE_CURVE ( 'NONE', #296, #456, #14, .T. ) ;
#340 = CARTESIAN_POINT ( 'NONE',  ( 8.149999999999998579, -9.400000000000000355, 18.39999999999999858 ) ) ;
#341 = VECTOR ( 'NONE', #190, 1000.000000000000000 ) ;
#342 = CARTESIAN_POINT ( 'NONE',  ( -7.150000000000000355, 0.000000000000000000, 16.99999999999999645 ) ) ;
#343 = ORIENTED_EDGE ( 'NONE', *, *, #319, .T. ) ;
#344 = DIRECTION ( 'NONE',  ( 0.000000000000000000, -1.000000000000000000, 0.000000000000000000 ) ) ;
#345 = VERTEX_POINT ( 'NONE', #269 ) ;
#346 = ORIENTED_EDGE ( 'NONE', *, *, #399, .T. ) ;
#347 = DIRECTION ( 'NONE',  ( -0.000000000000000000, 0.000000000000000000, 1.000000000000000000 ) ) ;
#348 = VECTOR ( 'NONE', #78, 1000.000000000000000 ) ;
#349 = ORIENTED_EDGE ( 'NONE', *, *, #9, .T. ) ;
#350 = CARTESIAN_POINT ( 'NONE',  ( 7.150000000000000355, 8.400000000000000355, 16.99999999999999645 ) ) ;
#351 = VERTEX_POINT ( 'NONE', #449 ) ;
#352 = CARTESIAN_POINT ( 'NONE',  ( -7.150000000000000355, 0.000000000000000000, 16.99999999999999645 ) ) ;
#353 = ORIENTED_EDGE ( 'NONE', *, *, #118, .T. ) ;
#354 = EDGE_CURVE ( 'NONE', #302, #175, #310, .T. ) ;
#355 =( LENGTH_UNIT ( ) NAMED_UNIT ( * ) SI_UNIT ( .MILLI., .METRE. ) );
#356 = VECTOR ( 'NONE', #74, 1000.000000000000000 ) ;
#357 = DIRECTION ( 'NONE',  ( 1.000000000000000000, 0.000000000000000000, 0.000000000000000000 ) ) ;
#358 = PLANE ( 'NONE',  #422 ) ;
#359 = VECTOR ( 'NONE', #290, 1000.000000000000000 ) ;
#360 = EDGE_CURVE ( 'NONE', #389, #345, #178, .T. ) ;
#361 = DIRECTION ( 'NONE',  ( -0.000000000000000000, 0.000000000000000000, 1.000000000000000000 ) ) ;
#362 = DIRECTION ( 'NONE',  ( 0.000000000000000000, 0.000000000000000000, 1.000000000000000000 ) ) ;
#363 = AXIS2_PLACEMENT_3D ( 'NONE', #8, #364, #10 ) ;
#364 = DIRECTION ( 'NONE',  ( -1.000000000000000000, 0.000000000000000000, -0.000000000000000000 ) ) ;
#365 = CARTESIAN_POINT ( 'NONE',  ( 7.150000000000000355, 0.000000000000000000, 16.99999999999999645 ) ) ;
#366 = ORIENTED_EDGE ( 'NONE', *, *, #35, .T. ) ;
#367 = PRODUCT_DEFINITION_CONTEXT ( 'detailed design', #231, 'design' ) ;
#368 = LINE ( 'NONE', #365, #211 ) ;
#369 = ORIENTED_EDGE ( 'NONE', *, *, #374, .F. ) ;
#370 = VECTOR ( 'NONE', #170, 1000.000000000000000 ) ;
#371 = UNCERTAINTY_MEASURE_WITH_UNIT (LENGTH_MEASURE( 1.000000000000000082E-05 ), #355, 'distance_accuracy_value', 'NONE');
#372 = DIRECTION ( 'NONE',  ( 0.000000000000000000, 1.000000000000000000, 0.000000000000000000 ) ) ;
#373 = ORIENTED_EDGE ( 'NONE', *, *, #442, .T. ) ;
#374 = EDGE_CURVE ( 'NONE', #330, #296, #131, .T. ) ;
#375 = VECTOR ( 'NONE', #372, 1000.000000000000000 ) ;
#376 = DIRECTION ( 'NONE',  ( -1.000000000000000000, -0.000000000000000000, -0.000000000000000000 ) ) ;
#377 = VECTOR ( 'NONE', #325, 1000.000000000000000 ) ;
#378 = CARTESIAN_POINT ( 'NONE',  ( -8.150000000000000355, 9.400000000000000355, 18.39999999999999858 ) ) ;
#379 = EDGE_LOOP ( 'NONE', ( #349, #315, #2, #373 ) ) ;
#380 = FACE_OUTER_BOUND ( 'NONE', #54, .T. ) ;
#381 = ORIENTED_EDGE ( 'NONE', *, *, #444, .T. ) ;
#382 = ADVANCED_FACE ( 'NONE', ( #322 ), #208, .F. ) ;
#383 = ORIENTED_EDGE ( 'NONE', *, *, #282, .T. ) ;
#384 = DIRECTION ( 'NONE',  ( 1.000000000000000000, 0.000000000000000000, 0.000000000000000000 ) ) ;
#385 = DIRECTION ( 'NONE',  ( 0.000000000000000000, 1.000000000000000000, 0.000000000000000000 ) ) ;
#386 = EDGE_CURVE ( 'NONE', #248, #345, #433, .T. ) ;
#387 = ORIENTED_EDGE ( 'NONE', *, *, #48, .T. ) ;
#388 = DIRECTION ( 'NONE',  ( -0.000000000000000000, -0.000000000000000000, 1.000000000000000000 ) ) ;
#389 = VERTEX_POINT ( 'NONE', #461 ) ;
#390 = ORIENTED_EDGE ( 'NONE', *, *, #354, .T. ) ;
#391 = DIRECTION ( 'NONE',  ( 1.000000000000000000, 0.000000000000000000, 0.000000000000000000 ) ) ;
#392 = ORIENTED_EDGE ( 'NONE', *, *, #187, .F. ) ;
#393 = FACE_OUTER_BOUND ( 'NONE', #314, .T. ) ;
#394 = LINE ( 'NONE', #24, #160 ) ;
#395 = VECTOR ( 'NONE', #69, 1000.000000000000000 ) ;
#396 = LINE ( 'NONE', #452, #341 ) ;
#397 = LINE ( 'NONE', #401, #40 ) ;
#398 = DIRECTION ( 'NONE',  ( -0.000000000000000000, 0.000000000000000000, -1.000000000000000000 ) ) ;
#399 = EDGE_CURVE ( 'NONE', #307, #63, #394, .T. ) ;
#400 = FACE_OUTER_BOUND ( 'NONE', #44, .T. ) ;
#401 = CARTESIAN_POINT ( 'NONE',  ( -7.150000000000000355, 0.000000000000000000, 18.00000000000000000 ) ) ;
#402 = CARTESIAN_POINT ( 'NONE',  ( -8.150000000000000355, 9.400000000000000355, 18.39999999999999858 ) ) ;
#403 = LINE ( 'NONE', #43, #305 ) ;
#404 = ORIENTED_EDGE ( 'NONE', *, *, #146, .F. ) ;
#405 = CARTESIAN_POINT ( 'NONE',  ( -6.250000000000000000, 0.000000000000000000, 16.99999999999999645 ) ) ;
#406 = VERTEX_POINT ( 'NONE', #426 ) ;
#407 = AXIS2_PLACEMENT_3D ( 'NONE', #415, #454, #93 ) ;
#408 = CARTESIAN_POINT ( 'NONE',  ( 7.150000000000000355, -8.400000000000000355, 16.99999999999999645 ) ) ;
#409 = EDGE_LOOP ( 'NONE', ( #383, #95, #159, #289 ) ) ;
#410 = CARTESIAN_POINT ( 'NONE',  ( -8.150000000000000355, 9.400000000000000355, 18.39999999999999858 ) ) ;
#411 = EDGE_LOOP ( 'NONE', ( #113, #156, #67, #121 ) ) ;
#412 = ORIENTED_EDGE ( 'NONE', *, *, #48, .F. ) ;
#413 = CARTESIAN_POINT ( 'NONE',  ( 0.000000000000000000, -8.400000000000000355, 16.99999999999999645 ) ) ;
#414 = ORIENTED_EDGE ( 'NONE', *, *, #3, .F. ) ;
#415 = CARTESIAN_POINT ( 'NONE',  ( -8.150000000000000355, -9.400000000000000355, 18.39999999999999858 ) ) ;
#416 = LINE ( 'NONE', #94, #85 ) ;
#417 = PRODUCT ( 'Button Cap', 'Button Cap', '', ( #13 ) ) ;
#418 = EDGE_LOOP ( 'NONE', ( #65, #321, #218, #412 ) ) ;
#419 = CARTESIAN_POINT ( 'NONE',  ( 0.000000000000000000, -7.500000000000000888, 16.99999999999999645 ) ) ;
#420 = DIRECTION ( 'NONE',  ( 1.000000000000000000, -0.000000000000000000, 0.000000000000000000 ) ) ;
#421 = ORIENTED_EDGE ( 'NONE', *, *, #272, .T. ) ;
#422 = AXIS2_PLACEMENT_3D ( 'NONE', #204, #177, #217 ) ;
#423 = CARTESIAN_POINT ( 'NONE',  ( 0.000000000000000000, -8.400000000000000355, 16.99999999999999645 ) ) ;
#424 = VERTEX_POINT ( 'NONE', #135 ) ;
#425 = ADVANCED_FACE ( 'NONE', ( #34 ), #284, .F. ) ;
#426 = CARTESIAN_POINT ( 'NONE',  ( -6.250000000000000000, 7.500000000000000888, 18.00000000000000000 ) ) ;
#427 = CARTESIAN_POINT ( 'NONE',  ( 8.149999999999998579, -9.400000000000000355, 18.00000000000000000 ) ) ;
#428 = LINE ( 'NONE', #108, #119 ) ;
#429 = DIRECTION ( 'NONE',  ( 0.000000000000000000, -1.000000000000000000, 0.000000000000000000 ) ) ;
#430 = FACE_OUTER_BOUND ( 'NONE', #379, .T. ) ;
#431 = EDGE_CURVE ( 'NONE', #203, #63, #62, .T. ) ;
#432 = FACE_OUTER_BOUND ( 'NONE', #206, .T. ) ;
#433 = LINE ( 'NONE', #201, #370 ) ;
#434 = SURFACE_SIDE_STYLE ('',( #295 ) ) ;
#435 = ORIENTED_EDGE ( 'NONE', *, *, #195, .F. ) ;
#436 = PLANE ( 'NONE',  #32 ) ;
#437 = DIRECTION ( 'NONE',  ( 1.000000000000000000, 0.000000000000000000, 0.000000000000000000 ) ) ;
#438 = DIRECTION ( 'NONE',  ( -0.000000000000000000, -0.000000000000000000, -1.000000000000000000 ) ) ;
#439 = ORIENTED_EDGE ( 'NONE', *, *, #457, .F. ) ;
#440 = FACE_OUTER_BOUND ( 'NONE', #409, .T. ) ;
#441 = VECTOR ( 'NONE', #446, 1000.000000000000000 ) ;
#442 = EDGE_CURVE ( 'NONE', #406, #456, #250, .T. ) ;
#443 = CARTESIAN_POINT ( 'NONE',  ( 0.000000000000000000, 0.000000000000000000, 18.39999999999999858 ) ) ;
#444 = EDGE_CURVE ( 'NONE', #424, #389, #29, .T. ) ;
#445 = CARTESIAN_POINT ( 'NONE',  ( -8.150000000000000355, 9.400000000000000355, 18.39999999999999858 ) ) ;
#446 = DIRECTION ( 'NONE',  ( -0.000000000000000000, -0.000000000000000000, 1.000000000000000000 ) ) ;
#447 = ORIENTED_EDGE ( 'NONE', *, *, #360, .T. ) ;
#448 = VECTOR ( 'NONE', #142, 1000.000000000000000 ) ;
#449 = CARTESIAN_POINT ( 'NONE',  ( 8.149999999999998579, 9.400000000000000355, 18.00000000000000000 ) ) ;
#450 = EDGE_LOOP ( 'NONE', ( #60, #270, #369, #392 ) ) ;
#451 = VECTOR ( 'NONE', #167, 1000.000000000000000 ) ;
#452 = CARTESIAN_POINT ( 'NONE',  ( 0.000000000000000000, -7.500000000000000888, 16.99999999999999645 ) ) ;
#453 = EDGE_LOOP ( 'NONE', ( #435, #323, #129, #197 ) ) ;
#454 = DIRECTION ( 'NONE',  ( 0.000000000000000000, 1.000000000000000000, 0.000000000000000000 ) ) ;
#455 = LINE ( 'NONE', #459, #50 ) ;
#456 = VERTEX_POINT ( 'NONE', #174 ) ;
#457 = EDGE_CURVE ( 'NONE', #318, #149, #455, .T. ) ;
#458 = ORIENTED_EDGE ( 'NONE', *, *, #179, .T. ) ;
#459 = CARTESIAN_POINT ( 'NONE',  ( 8.149999999999998579, 9.400000000000000355, 18.39999999999999858 ) ) ;
#460 = ORIENTED_EDGE ( 'NONE', *, *, #179, .F. ) ;
#461 = CARTESIAN_POINT ( 'NONE',  ( 7.150000000000000355, 8.400000000000000355, 16.99999999999999645 ) ) ;
#462 = DIRECTION ( 'NONE',  ( 1.000000000000000000, 0.000000000000000000, 0.000000000000000000 ) ) ;
#463 = ADVANCED_FACE ( 'NONE', ( #239 ), #97, .T. ) ;
#464 = CARTESIAN_POINT ( 'NONE',  ( 0.000000000000000000, 7.500000000000000888, 16.99999999999999645 ) ) ;
#465 = FILL_AREA_STYLE ('',( #214 ) ) ;
#466 = ADVANCED_FACE ( 'NONE', ( #393 ), #249, .F. ) ;
#467 = VERTEX_POINT ( 'NONE', #37 ) ;
#468 =( NAMED_UNIT ( * ) PLANE_ANGLE_UNIT ( ) SI_UNIT ( $, .RADIAN. ) );
#469 = ORIENTED_EDGE ( 'NONE', *, *, #73, .T. ) ;
#470 = FACE_BOUND ( 'NONE', #418, .T. ) ;
#471 = LINE ( 'NONE', #337, #89 ) ;
ENDSEC;
END-ISO-10303-21;
