ISO-10303-21;
HEADER;
FILE_DESCRIPTION (( 'STEP AP214' ),
    '1' );
FILE_NAME ('Button.STEP',
    '2026-08-31T09:01:44',
    ( '' ),
    ( '' ),
    'SwSTEP 2.0',
    'SolidWorks 2023',
    '' );
FILE_SCHEMA (( 'AUTOMOTIVE_DESIGN' ));
ENDSEC;

DATA;
#1 = CARTESIAN_POINT ( 'NONE',  ( 0.000000000000000000, -8.500000000000000000, 0.000000000000000000 ) ) ;
#2 = ORIENTED_EDGE ( 'NONE', *, *, #488, .T. ) ;
#3 = DIRECTION ( 'NONE',  ( -1.000000000000000000, -3.061276722312015942E-16, 0.000000000000000000 ) ) ;
#4 = CARTESIAN_POINT ( 'NONE',  ( 1.000000000000000000, 8.500000000000000000, 15.00000000000000000 ) ) ;
#5 = CARTESIAN_POINT ( 'NONE',  ( 1.399999999999999911, -10.59999999999999964, 0.000000000000000000 ) ) ;
#6 = DIRECTION ( 'NONE',  ( 1.000000000000000000, -1.807003620809174878E-16, 0.000000000000000000 ) ) ;
#7 = ADVANCED_FACE ( 'NONE', ( #1153 ), #275, .F. ) ;
#8 = CARTESIAN_POINT ( 'NONE',  ( 8.149999999999998579, 1.399999999999999911, 0.000000000000000000 ) ) ;
#9 = ORIENTED_EDGE ( 'NONE', *, *, #735, .F. ) ;
#10 = APPLICATION_CONTEXT ( 'automotive_design' ) ;
#11 = ORIENTED_EDGE ( 'NONE', *, *, #868, .F. ) ;
#12 = CARTESIAN_POINT ( 'NONE',  ( -7.250000000000000000, -1.000000000000000000, -24.82153022471871040 ) ) ;
#13 = DIRECTION ( 'NONE',  ( 0.000000000000000000, 0.000000000000000000, 1.000000000000000000 ) ) ;
#14 = CARTESIAN_POINT ( 'NONE',  ( 1.399999999999999911, 9.400000000000000355, 10.00000000000000000 ) ) ;
#15 = ORIENTED_EDGE ( 'NONE', *, *, #373, .F. ) ;
#16 = VECTOR ( 'NONE', #220, 1000.000000000000000 ) ;
#17 = VECTOR ( 'NONE', #1046, 1000.000000000000000 ) ;
#18 = LINE ( 'NONE', #381, #910 ) ;
#19 = ORIENTED_EDGE ( 'NONE', *, *, #735, .T. ) ;
#20 = LINE ( 'NONE', #1067, #347 ) ;
#21 = CARTESIAN_POINT ( 'NONE',  ( -1.399999999999999911, -9.400000000000000355, 0.000000000000000000 ) ) ;
#22 = VERTEX_POINT ( 'NONE', #1038 ) ;
#23 = DIRECTION ( 'NONE',  ( -5.102127870520019996E-17, -1.000000000000000000, 0.000000000000000000 ) ) ;
#24 = ORIENTED_EDGE ( 'NONE', *, *, #665, .T. ) ;
#25 = EDGE_CURVE ( 'NONE', #287, #1111, #363, .T. ) ;
#26 = EDGE_CURVE ( 'NONE', #94, #283, #1225, .T. ) ;
#27 = ORIENTED_EDGE ( 'NONE', *, *, #369, .F. ) ;
#28 = FACE_OUTER_BOUND ( 'NONE', #256, .T. ) ;
#29 = STYLED_ITEM ( 'NONE', ( #714 ), #794 ) ;
#30 = AXIS2_PLACEMENT_3D ( 'NONE', #830, #1203, #240 ) ;
#31 = CARTESIAN_POINT ( 'NONE',  ( -8.149999999999998579, 9.400000000000000355, 20.00000000000000000 ) ) ;
#32 = VERTEX_POINT ( 'NONE', #384 ) ;
#33 = ORIENTED_EDGE ( 'NONE', *, *, #237, .T. ) ;
#34 = DIRECTION ( 'NONE',  ( 0.000000000000000000, -1.000000000000000000, 0.000000000000000000 ) ) ;
#35 = CARTESIAN_POINT ( 'NONE',  ( 7.250000000000000000, -3.699042706127014867E-16, 0.000000000000000000 ) ) ;
#36 = DIRECTION ( 'NONE',  ( -5.102127870520019996E-17, -1.000000000000000000, 0.000000000000000000 ) ) ;
#37 = EDGE_CURVE ( 'NONE', #920, #207, #763, .T. ) ;
#38 = DIRECTION ( 'NONE',  ( 0.000000000000000000, 0.000000000000000000, 1.000000000000000000 ) ) ;
#39 = CARTESIAN_POINT ( 'NONE',  ( -8.149999999999998579, -7.520210813410089529E-16, 20.00000000000000000 ) ) ;
#40 = CARTESIAN_POINT ( 'NONE',  ( -7.250000000000000000, 1.000000000000000000, -2.999999999999999112 ) ) ;
#41 = EDGE_CURVE ( 'NONE', #221, #1062, #222, .T. ) ;
#42 = EDGE_CURVE ( 'NONE', #1036, #800, #586, .T. ) ;
#43 = LINE ( 'NONE', #328, #93 ) ;
#44 = ORIENTED_EDGE ( 'NONE', *, *, #1208, .T. ) ;
#45 = CARTESIAN_POINT ( 'NONE',  ( -1.000000000000000000, 8.500000000000000000, 0.000000000000000000 ) ) ;
#46 = EDGE_LOOP ( 'NONE', ( #117, #1029, #335, #854 ) ) ;
#47 = DIRECTION ( 'NONE',  ( 0.000000000000000000, 1.000000000000000000, 0.000000000000000000 ) ) ;
#48 = DIRECTION ( 'NONE',  ( 1.000000000000000000, 0.000000000000000000, 0.000000000000000000 ) ) ;
#49 = VECTOR ( 'NONE', #900, 1000.000000000000000 ) ;
#50 = VECTOR ( 'NONE', #72, 1000.000000000000000 ) ;
#51 = ORIENTED_EDGE ( 'NONE', *, *, #279, .T. ) ;
#52 = VECTOR ( 'NONE', #1168, 1000.000000000000000 ) ;
#53 = ORIENTED_EDGE ( 'NONE', *, *, #296, .F. ) ;
#54 = LINE ( 'NONE', #431, #16 ) ;
#55 = ORIENTED_EDGE ( 'NONE', *, *, #445, .T. ) ;
#56 = ADVANCED_FACE ( 'NONE', ( #28 ), #1155, .T. ) ;
#57 = ORIENTED_EDGE ( 'NONE', *, *, #759, .F. ) ;
#58 = EDGE_CURVE ( 'NONE', #102, #438, #598, .T. ) ;
#59 = ORIENTED_EDGE ( 'NONE', *, *, #691, .F. ) ;
#60 = CARTESIAN_POINT ( 'NONE',  ( -0.9999999999999995559, 1.000000000000000000, -2.999999999999999112 ) ) ;
#61 = PLANE ( 'NONE',  #372 ) ;
#62 = ORIENTED_EDGE ( 'NONE', *, *, #125, .T. ) ;
#63 = CARTESIAN_POINT ( 'NONE',  ( -8.149999999999998579, -1.399999999999999911, 10.00000000000000000 ) ) ;
#64 = ORIENTED_EDGE ( 'NONE', *, *, #1193, .T. ) ;
#65 = CARTESIAN_POINT ( 'NONE',  ( -7.250000000000000000, 0.000000000000000000, 0.000000000000000000 ) ) ;
#66 = CARTESIAN_POINT ( 'NONE',  ( -7.250000000000000000, 0.000000000000000000, 0.000000000000000000 ) ) ;
#67 = ORIENTED_EDGE ( 'NONE', *, *, #658, .F. ) ;
#68 = VECTOR ( 'NONE', #127, 1000.000000000000000 ) ;
#69 = DIRECTION ( 'NONE',  ( 1.845450506358304832E-16, -1.000000000000000000, 0.000000000000000000 ) ) ;
#70 = ORIENTED_EDGE ( 'NONE', *, *, #1015, .T. ) ;
#71 = VECTOR ( 'NONE', #1101, 1000.000000000000000 ) ;
#72 = DIRECTION ( 'NONE',  ( -0.000000000000000000, -0.000000000000000000, 1.000000000000000000 ) ) ;
#73 = ORIENTED_EDGE ( 'NONE', *, *, #758, .F. ) ;
#74 = CARTESIAN_POINT ( 'NONE',  ( -8.149999999999998579, 1.399999999999999911, 0.000000000000000000 ) ) ;
#75 = VECTOR ( 'NONE', #865, 1000.000000000000000 ) ;
#76 = EDGE_CURVE ( 'NONE', #812, #158, #409, .T. ) ;
#77 = LINE ( 'NONE', #1207, #247 ) ;
#78 = EDGE_CURVE ( 'NONE', #1053, #738, #866, .T. ) ;
#79 = DIRECTION ( 'NONE',  ( 1.000000000000000000, 0.000000000000000000, 0.000000000000000000 ) ) ;
#80 = EDGE_LOOP ( 'NONE', ( #1022, #239, #462, #540, #731 ) ) ;
#81 = CARTESIAN_POINT ( 'NONE',  ( -9.350000000000001421, 1.399999999999999911, 10.00000000000000000 ) ) ;
#82 = ORIENTED_EDGE ( 'NONE', *, *, #457, .T. ) ;
#83 = CARTESIAN_POINT ( 'NONE',  ( 0.000000000000000000, 0.000000000000000000, 18.00000000000000000 ) ) ;
#84 = DIRECTION ( 'NONE',  ( 0.000000000000000000, 0.000000000000000000, -1.000000000000000000 ) ) ;
#85 = ORIENTED_EDGE ( 'NONE', *, *, #903, .T. ) ;
#86 = ORIENTED_EDGE ( 'NONE', *, *, #702, .F. ) ;
#87 = DIRECTION ( 'NONE',  ( -4.213850198253310980E-17, 1.000000000000000000, 0.000000000000000000 ) ) ;
#88 = LINE ( 'NONE', #197, #1125 ) ;
#89 = CARTESIAN_POINT ( 'NONE',  ( -8.149999999999998579, 1.399999999999999911, 10.00000000000000000 ) ) ;
#90 = ORIENTED_EDGE ( 'NONE', *, *, #1208, .F. ) ;
#91 = ADVANCED_FACE ( 'NONE', ( #394 ), #778, .F. ) ;
#92 = AXIS2_PLACEMENT_3D ( 'NONE', #123, #963, #878 ) ;
#93 = VECTOR ( 'NONE', #1177, 1000.000000000000000 ) ;
#94 = VERTEX_POINT ( 'NONE', #966 ) ;
#95 = PRODUCT_CONTEXT ( 'NONE', #1051, 'mechanical' ) ;
#96 = UNCERTAINTY_MEASURE_WITH_UNIT (LENGTH_MEASURE( 1.000000000000000082E-05 ), #614, 'distance_accuracy_value', 'NONE');
#97 = FACE_OUTER_BOUND ( 'NONE', #575, .T. ) ;
#98 = LINE ( 'NONE', #286, #1044 ) ;
#99 = ORIENTED_EDGE ( 'NONE', *, *, #972, .F. ) ;
#100 = DIRECTION ( 'NONE',  ( 0.000000000000000000, 0.000000000000000000, 1.000000000000000000 ) ) ;
#101 = EDGE_CURVE ( 'NONE', #544, #1092, #343, .T. ) ;
#102 = VERTEX_POINT ( 'NONE', #160 ) ;
#103 = ADVANCED_FACE ( 'NONE', ( #442 ), #823, .T. ) ;
#104 = DIRECTION ( 'NONE',  ( 1.000000000000000000, 0.000000000000000000, 0.000000000000000000 ) ) ;
#105 = CARTESIAN_POINT ( 'NONE',  ( 7.250000000000000000, -1.000000000000000000, 15.00000000000000000 ) ) ;
#106 = DIRECTION ( 'NONE',  ( 1.000000000000000000, 0.000000000000000000, 0.000000000000000000 ) ) ;
#107 = ORIENTED_EDGE ( 'NONE', *, *, #665, .F. ) ;
#108 = ORIENTED_EDGE ( 'NONE', *, *, #758, .T. ) ;
#109 = DIRECTION ( 'NONE',  ( 0.000000000000000000, 0.000000000000000000, 1.000000000000000000 ) ) ;
#110 = DIRECTION ( 'NONE',  ( -1.807003620809174878E-16, -1.000000000000000000, 0.000000000000000000 ) ) ;
#111 = DIRECTION ( 'NONE',  ( 0.000000000000000000, -1.000000000000000000, 0.000000000000000000 ) ) ;
#112 = ORIENTED_EDGE ( 'NONE', *, *, #121, .F. ) ;
#113 = PLANE ( 'NONE',  #671 ) ;
#114 = ORIENTED_EDGE ( 'NONE', *, *, #1078, .T. ) ;
#115 = DIRECTION ( 'NONE',  ( 1.000000000000000000, -0.000000000000000000, 0.000000000000000000 ) ) ;
#116 = VECTOR ( 'NONE', #1117, 1000.000000000000000 ) ;
#117 = ORIENTED_EDGE ( 'NONE', *, *, #1103, .F. ) ;
#118 = AXIS2_PLACEMENT_3D ( 'NONE', #834, #553, #451 ) ;
#119 = EDGE_CURVE ( 'NONE', #1091, #298, #512, .T. ) ;
#120 = VECTOR ( 'NONE', #497, 1000.000000000000000 ) ;
#121 = EDGE_CURVE ( 'NONE', #920, #621, #901, .T. ) ;
#122 = EDGE_LOOP ( 'NONE', ( #59, #1076, #1097, #468, #505, #155, #681, #391 ) ) ;
#123 = CARTESIAN_POINT ( 'NONE',  ( 0.000000000000000000, -9.400000000000000355, 20.00000000000000000 ) ) ;
#124 = LINE ( 'NONE', #35, #120 ) ;
#125 = EDGE_CURVE ( 'NONE', #922, #708, #1106, .T. ) ;
#126 = DIRECTION ( 'NONE',  ( 1.000000000000000000, -5.009278717172354367E-16, 0.000000000000000000 ) ) ;
#127 = DIRECTION ( 'NONE',  ( 1.845450506358304832E-16, -1.000000000000000000, 0.000000000000000000 ) ) ;
#128 = DIRECTION ( 'NONE',  ( 0.000000000000000000, 0.000000000000000000, -1.000000000000000000 ) ) ;
#129 = ORIENTED_EDGE ( 'NONE', *, *, #119, .T. ) ;
#130 = EDGE_CURVE ( 'NONE', #812, #1190, #570, .T. ) ;
#131 = CARTESIAN_POINT ( 'NONE',  ( -7.250000000000000000, 0.000000000000000000, 20.00000000000000000 ) ) ;
#132 = VECTOR ( 'NONE', #503, 1000.000000000000000 ) ;
#133 = CARTESIAN_POINT ( 'NONE',  ( -9.350000000000001421, 1.399999999999999911, 10.00000000000000000 ) ) ;
#134 = VECTOR ( 'NONE', #579, 1000.000000000000000 ) ;
#135 = EDGE_CURVE ( 'NONE', #489, #920, #175, .T. ) ;
#136 = EDGE_CURVE ( 'NONE', #195, #582, #737, .T. ) ;
#137 = PLANE ( 'NONE',  #987 ) ;
#138 = VERTEX_POINT ( 'NONE', #755 ) ;
#139 = DIRECTION ( 'NONE',  ( 0.000000000000000000, 0.000000000000000000, -1.000000000000000000 ) ) ;
#140 = ORIENTED_EDGE ( 'NONE', *, *, #261, .T. ) ;
#141 = LINE ( 'NONE', #519, #49 ) ;
#142 = DIRECTION ( 'NONE',  ( 1.000000000000000000, 0.000000000000000000, 0.000000000000000000 ) ) ;
#143 = DIRECTION ( 'NONE',  ( -1.000000000000000000, 0.000000000000000000, 0.000000000000000000 ) ) ;
#144 = CARTESIAN_POINT ( 'NONE',  ( -7.250000000000000000, 1.000000000000000000, -2.999999999999999112 ) ) ;
#145 = ORIENTED_EDGE ( 'NONE', *, *, #37, .T. ) ;
#146 = ORIENTED_EDGE ( 'NONE', *, *, #224, .T. ) ;
#147 = DIRECTION ( 'NONE',  ( -0.000000000000000000, 1.000000000000000000, 0.000000000000000000 ) ) ;
#148 = EDGE_CURVE ( 'NONE', #1091, #221, #1135, .T. ) ;
#149 = DIRECTION ( 'NONE',  ( -1.000000000000000000, 0.000000000000000000, -0.000000000000000000 ) ) ;
#150 = AXIS2_PLACEMENT_3D ( 'NONE', #1107, #804, #255 ) ;
#151 = EDGE_CURVE ( 'NONE', #713, #645, #254, .T. ) ;
#152 = DIRECTION ( 'NONE',  ( 0.000000000000000000, 0.000000000000000000, -1.000000000000000000 ) ) ;
#153 = ORIENTED_EDGE ( 'NONE', *, *, #562, .F. ) ;
#154 = AXIS2_PLACEMENT_3D ( 'NONE', #856, #104, #772 ) ;
#155 = ORIENTED_EDGE ( 'NONE', *, *, #278, .T. ) ;
#156 = PLANE ( 'NONE',  #1061 ) ;
#157 = DIRECTION ( 'NONE',  ( 1.000000000000000000, 0.000000000000000000, 0.000000000000000000 ) ) ;
#158 = VERTEX_POINT ( 'NONE', #661 ) ;
#159 = VERTEX_POINT ( 'NONE', #1112 ) ;
#160 = CARTESIAN_POINT ( 'NONE',  ( 8.149999999999996803, 9.400000000000000355, 18.00000000000000000 ) ) ;
#161 = VERTEX_POINT ( 'NONE', #1041 ) ;
#162 = PLANE ( 'NONE',  #310 ) ;
#163 = DIRECTION ( 'NONE',  ( -0.000000000000000000, -0.000000000000000000, -1.000000000000000000 ) ) ;
#164 = SURFACE_SIDE_STYLE ('',( #721 ) ) ;
#165 = VERTEX_POINT ( 'NONE', #1037 ) ;
#166 = LINE ( 'NONE', #274, #214 ) ;
#167 = EDGE_CURVE ( 'NONE', #686, #616, #166, .T. ) ;
#168 = ORIENTED_EDGE ( 'NONE', *, *, #167, .T. ) ;
#169 = DIRECTION ( 'NONE',  ( 0.000000000000000000, -0.000000000000000000, -1.000000000000000000 ) ) ;
#170 = CARTESIAN_POINT ( 'NONE',  ( -1.399999999999999911, -9.400000000000000355, 10.00000000000000000 ) ) ;
#171 = ORIENTED_EDGE ( 'NONE', *, *, #539, .T. ) ;
#172 = VECTOR ( 'NONE', #679, 1000.000000000000000 ) ;
#173 = CARTESIAN_POINT ( 'NONE',  ( -1.399999999999999911, 9.400000000000000355, 10.00000000000000000 ) ) ;
#174 = VECTOR ( 'NONE', #923, 1000.000000000000000 ) ;
#175 = LINE ( 'NONE', #1224, #288 ) ;
#176 = VECTOR ( 'NONE', #660, 1000.000000000000000 ) ;
#177 = ORIENTED_EDGE ( 'NONE', *, *, #1075, .F. ) ;
#178 = FACE_OUTER_BOUND ( 'NONE', #641, .T. ) ;
#179 = CARTESIAN_POINT ( 'NONE',  ( 0.000000000000000000, 9.400000000000000355, 20.00000000000000000 ) ) ;
#180 = PRODUCT ( 'Button', 'Button', '', ( #95 ) ) ;
#181 = EDGE_LOOP ( 'NONE', ( #534, #200, #986, #962 ) ) ;
#182 = DIRECTION ( 'NONE',  ( -1.000000000000000000, 1.807003620809174878E-16, 0.000000000000000000 ) ) ;
#183 = ORIENTED_EDGE ( 'NONE', *, *, #76, .T. ) ;
#184 = CARTESIAN_POINT ( 'NONE',  ( -1.000000000000000000, 8.500000000000000000, -24.82153022471871040 ) ) ;
#185 = DIRECTION ( 'NONE',  ( 0.000000000000000000, 0.000000000000000000, -1.000000000000000000 ) ) ;
#186 = LINE ( 'NONE', #1115, #1122 ) ;
#187 = EDGE_LOOP ( 'NONE', ( #864, #715, #82, #875 ) ) ;
#188 = DIRECTION ( 'NONE',  ( 4.213850198253310980E-17, -1.000000000000000000, 0.000000000000000000 ) ) ;
#189 = DIRECTION ( 'NONE',  ( 0.000000000000000000, 0.000000000000000000, -1.000000000000000000 ) ) ;
#190 = EDGE_CURVE ( 'NONE', #469, #800, #1196, .T. ) ;
#191 = CARTESIAN_POINT ( 'NONE',  ( 8.149999999999998579, 9.400000000000000355, 20.00000000000000000 ) ) ;
#192 = ADVANCED_FACE ( 'NONE', ( #1128 ), #951, .T. ) ;
#193 = DIRECTION ( 'NONE',  ( 0.000000000000000000, 0.000000000000000000, -1.000000000000000000 ) ) ;
#194 = AXIS2_PLACEMENT_3D ( 'NONE', #133, #692, #38 ) ;
#195 = VERTEX_POINT ( 'NONE', #262 ) ;
#196 = VECTOR ( 'NONE', #34, 1000.000000000000000 ) ;
#197 = CARTESIAN_POINT ( 'NONE',  ( -1.399999999999999911, 9.400000000000000355, 10.00000000000000000 ) ) ;
#198 = CARTESIAN_POINT ( 'NONE',  ( -7.250000000000000000, 8.500000000000000000, 0.000000000000000000 ) ) ;
#199 = LINE ( 'NONE', #647, #1074 ) ;
#200 = ORIENTED_EDGE ( 'NONE', *, *, #1118, .F. ) ;
#201 = ORIENTED_EDGE ( 'NONE', *, *, #853, .F. ) ;
#202 = LINE ( 'NONE', #1043, #134 ) ;
#203 = DIRECTION ( 'NONE',  ( -1.000000000000000000, 0.000000000000000000, 0.000000000000000000 ) ) ;
#204 = ORIENTED_EDGE ( 'NONE', *, *, #684, .T. ) ;
#205 = DIRECTION ( 'NONE',  ( 0.000000000000000000, 0.000000000000000000, 1.000000000000000000 ) ) ;
#206 = ORIENTED_EDGE ( 'NONE', *, *, #311, .T. ) ;
#207 = VERTEX_POINT ( 'NONE', #1017 ) ;
#208 = EDGE_CURVE ( 'NONE', #1091, #161, #545, .T. ) ;
#209 = CARTESIAN_POINT ( 'NONE',  ( 7.250000000000000000, -1.000000000000000000, -2.999999999999999112 ) ) ;
#210 = DIRECTION ( 'NONE',  ( 0.000000000000000000, 0.000000000000000000, -1.000000000000000000 ) ) ;
#211 = ADVANCED_FACE ( 'NONE', ( #974 ), #583, .F. ) ;
#212 = CARTESIAN_POINT ( 'NONE',  ( 7.250000000000000000, 8.500000000000000000, 20.00000000000000000 ) ) ;
#213 = ORIENTED_EDGE ( 'NONE', *, *, #596, .F. ) ;
#214 = VECTOR ( 'NONE', #449, 1000.000000000000000 ) ;
#215 = AXIS2_PLACEMENT_3D ( 'NONE', #914, #930, #79 ) ;
#216 = LINE ( 'NONE', #285, #1123 ) ;
#217 = ORIENTED_EDGE ( 'NONE', *, *, #658, .T. ) ;
#218 = DIRECTION ( 'NONE',  ( 0.000000000000000000, 0.000000000000000000, -1.000000000000000000 ) ) ;
#219 = ADVANCED_FACE ( 'NONE', ( #694 ), #289, .T. ) ;
#220 = DIRECTION ( 'NONE',  ( 0.000000000000000000, 0.000000000000000000, -1.000000000000000000 ) ) ;
#221 = VERTEX_POINT ( 'NONE', #1159 ) ;
#222 = LINE ( 'NONE', #1064, #664 ) ;
#223 = ORIENTED_EDGE ( 'NONE', *, *, #701, .T. ) ;
#224 = EDGE_CURVE ( 'NONE', #956, #159, #20, .T. ) ;
#225 = EDGE_CURVE ( 'NONE', #713, #287, #400, .T. ) ;
#226 = CARTESIAN_POINT ( 'NONE',  ( -1.399999999999999911, -9.400000000000000355, 0.000000000000000000 ) ) ;
#227 = VECTOR ( 'NONE', #325, 1000.000000000000000 ) ;
#228 = CARTESIAN_POINT ( 'NONE',  ( 1.399999999999999911, -10.59999999999999964, 10.00000000000000000 ) ) ;
#229 = EDGE_LOOP ( 'NONE', ( #153, #510, #399, #516, #33, #919 ) ) ;
#230 = ORIENTED_EDGE ( 'NONE', *, *, #539, .F. ) ;
#231 = LINE ( 'NONE', #975, #396 ) ;
#232 = LINE ( 'NONE', #418, #132 ) ;
#233 = FACE_OUTER_BOUND ( 'NONE', #1141, .T. ) ;
#234 = ORIENTED_EDGE ( 'NONE', *, *, #78, .F. ) ;
#235 = DIRECTION ( 'NONE',  ( 1.000000000000000000, 0.000000000000000000, 0.000000000000000000 ) ) ;
#236 = ORIENTED_EDGE ( 'NONE', *, *, #225, .T. ) ;
#237 = EDGE_CURVE ( 'NONE', #1181, #544, #301, .T. ) ;
#238 = LINE ( 'NONE', #416, #1073 ) ;
#239 = ORIENTED_EDGE ( 'NONE', *, *, #410, .F. ) ;
#240 = DIRECTION ( 'NONE',  ( 0.000000000000000000, 1.000000000000000000, 0.000000000000000000 ) ) ;
#241 = EDGE_LOOP ( 'NONE', ( #67, #742, #976, #223 ) ) ;
#242 = PRODUCT_DEFINITION ( 'UNKNOWN', '', #411, #788 ) ;
#243 = CARTESIAN_POINT ( 'NONE',  ( 1.000000000000000000, 3.061276722312014463E-16, 15.00000000000000000 ) ) ;
#244 = AXIS2_PLACEMENT_3D ( 'NONE', #1104, #330, #235 ) ;
#245 = EDGE_LOOP ( 'NONE', ( #852, #882, #349, #1212, #112 ) ) ;
#246 = AXIS2_PLACEMENT_3D ( 'NONE', #1170, #1175, #1070 ) ;
#247 = VECTOR ( 'NONE', #359, 1000.000000000000000 ) ;
#248 = ORIENTED_EDGE ( 'NONE', *, *, #500, .T. ) ;
#249 = CARTESIAN_POINT ( 'NONE',  ( -8.149999999999998579, 1.399999999999999911, 0.000000000000000000 ) ) ;
#250 = DIRECTION ( 'NONE',  ( 0.000000000000000000, 0.000000000000000000, -1.000000000000000000 ) ) ;
#251 = ORIENTED_EDGE ( 'NONE', *, *, #297, .T. ) ;
#252 = ADVANCED_FACE ( 'NONE', ( #1142 ), #762, .T. ) ;
#253 = ORIENTED_EDGE ( 'NONE', *, *, #684, .F. ) ;
#254 = LINE ( 'NONE', #282, #50 ) ;
#255 = DIRECTION ( 'NONE',  ( 1.000000000000000000, 0.000000000000000000, 0.000000000000000000 ) ) ;
#256 = EDGE_LOOP ( 'NONE', ( #994, #810, #1042, #1102, #564, #537, #533, #1158 ) ) ;
#257 = CARTESIAN_POINT ( 'NONE',  ( 7.250000000000000000, -3.699042706127014867E-16, 18.00000000000000000 ) ) ;
#258 = CARTESIAN_POINT ( 'NONE',  ( 7.250000000000000000, 1.000000000000000000, 0.000000000000000000 ) ) ;
#259 = EDGE_CURVE ( 'NONE', #738, #686, #474, .T. ) ;
#260 = ORIENTED_EDGE ( 'NONE', *, *, #1161, .F. ) ;
#261 = EDGE_CURVE ( 'NONE', #161, #1036, #785, .T. ) ;
#262 = CARTESIAN_POINT ( 'NONE',  ( -1.399999999999999911, -9.400000000000000355, 10.00000000000000000 ) ) ;
#263 = ORIENTED_EDGE ( 'NONE', *, *, #1172, .F. ) ;
#264 = DIRECTION ( 'NONE',  ( 0.000000000000000000, 0.000000000000000000, -1.000000000000000000 ) ) ;
#265 = DIRECTION ( 'NONE',  ( 0.000000000000000000, -1.000000000000000000, 0.000000000000000000 ) ) ;
#266 = AXIS2_PLACEMENT_3D ( 'NONE', #1057, #773, #210 ) ;
#267 = LINE ( 'NONE', #949, #1219 ) ;
#268 = VECTOR ( 'NONE', #87, 1000.000000000000000 ) ;
#269 = ORIENTED_EDGE ( 'NONE', *, *, #1161, .T. ) ;
#270 = DIRECTION ( 'NONE',  ( 0.000000000000000000, 1.000000000000000000, 0.000000000000000000 ) ) ;
#271 = LINE ( 'NONE', #1033, #509 ) ;
#272 = DIRECTION ( 'NONE',  ( 0.000000000000000000, -1.000000000000000000, 0.000000000000000000 ) ) ;
#273 = ORIENTED_EDGE ( 'NONE', *, *, #58, .F. ) ;
#274 = CARTESIAN_POINT ( 'NONE',  ( 0.000000000000000000, 9.400000000000000355, 0.000000000000000000 ) ) ;
#275 = PLANE ( 'NONE',  #1060 ) ;
#276 = CARTESIAN_POINT ( 'NONE',  ( 7.250000000000000000, 1.000000000000000000, -2.999999999999999112 ) ) ;
#277 = LINE ( 'NONE', #561, #351 ) ;
#278 = EDGE_CURVE ( 'NONE', #899, #812, #659, .T. ) ;
#279 = EDGE_CURVE ( 'NONE', #158, #358, #18, .T. ) ;
#280 = CARTESIAN_POINT ( 'NONE',  ( 7.250000000000000000, 1.000000000000000000, -2.999999999999999112 ) ) ;
#281 = ORIENTED_EDGE ( 'NONE', *, *, #208, .F. ) ;
#282 = CARTESIAN_POINT ( 'NONE',  ( 1.000000000000000000, 8.500000000000000000, -24.82153022471871040 ) ) ;
#283 = VERTEX_POINT ( 'NONE', #496 ) ;
#284 = PLANE ( 'NONE',  #851 ) ;
#285 = CARTESIAN_POINT ( 'NONE',  ( 7.250000000000000000, -3.699042706127014867E-16, 0.000000000000000000 ) ) ;
#286 = CARTESIAN_POINT ( 'NONE',  ( 1.399999999999999911, 10.59999999999999964, 0.000000000000000000 ) ) ;
#287 = VERTEX_POINT ( 'NONE', #862 ) ;
#288 = VECTOR ( 'NONE', #455, 1000.000000000000000 ) ;
#289 = PLANE ( 'NONE',  #1072 ) ;
#290 = VERTEX_POINT ( 'NONE', #304 ) ;
#291 = VECTOR ( 'NONE', #270, 1000.000000000000000 ) ;
#292 = PLANE ( 'NONE',  #530 ) ;
#293 = CARTESIAN_POINT ( 'NONE',  ( -0.9999999999999995559, 1.000000000000000000, 18.00000000000000000 ) ) ;
#294 = LINE ( 'NONE', #280, #176 ) ;
#295 = ORIENTED_EDGE ( 'NONE', *, *, #903, .F. ) ;
#296 = EDGE_CURVE ( 'NONE', #1092, #867, #216, .T. ) ;
#297 = EDGE_CURVE ( 'NONE', #165, #499, #667, .T. ) ;
#298 = VERTEX_POINT ( 'NONE', #198 ) ;
#299 = DIRECTION ( 'NONE',  ( 0.000000000000000000, 0.000000000000000000, -1.000000000000000000 ) ) ;
#300 = ORIENTED_EDGE ( 'NONE', *, *, #837, .T. ) ;
#301 = LINE ( 'NONE', #688, #547 ) ;
#302 = EDGE_CURVE ( 'NONE', #1010, #693, #573, .T. ) ;
#303 = CARTESIAN_POINT ( 'NONE',  ( -8.149999999999998579, -9.400000000000000355, 20.00000000000000000 ) ) ;
#304 = CARTESIAN_POINT ( 'NONE',  ( -8.149999999999998579, -9.400000000000000355, 18.00000000000000000 ) ) ;
#305 = ORIENTED_EDGE ( 'NONE', *, *, #625, .F. ) ;
#306 = DIRECTION ( 'NONE',  ( -1.000000000000000000, 0.000000000000000000, 0.000000000000000000 ) ) ;
#307 = CARTESIAN_POINT ( 'NONE',  ( -1.000000000000000000, 8.500000000000000000, -2.999999999999999112 ) ) ;
#308 = CARTESIAN_POINT ( 'NONE',  ( 1.000000000000000000, 8.500000000000000000, 15.00000000000000000 ) ) ;
#309 = DIRECTION ( 'NONE',  ( 0.000000000000000000, -1.000000000000000000, 0.000000000000000000 ) ) ;
#310 = AXIS2_PLACEMENT_3D ( 'NONE', #184, #560, #169 ) ;
#311 = EDGE_CURVE ( 'NONE', #819, #1215, #521, .T. ) ;
#312 = VECTOR ( 'NONE', #696, 1000.000000000000000 ) ;
#313 = VECTOR ( 'NONE', #1049, 1000.000000000000000 ) ;
#314 = VERTEX_POINT ( 'NONE', #912 ) ;
#315 = ADVANCED_FACE ( 'NONE', ( #984 ), #426, .F. ) ;
#316 = EDGE_CURVE ( 'NONE', #1055, #366, #1088, .T. ) ;
#317 = CARTESIAN_POINT ( 'NONE',  ( -7.250000000000000000, 1.000000000000000000, -24.82153022471871040 ) ) ;
#318 = ORIENTED_EDGE ( 'NONE', *, *, #41, .T. ) ;
#319 = CARTESIAN_POINT ( 'NONE',  ( 9.350000000000001421, 1.399999999999999911, 0.000000000000000000 ) ) ;
#320 = DIRECTION ( 'NONE',  ( 0.000000000000000000, 1.000000000000000000, 0.000000000000000000 ) ) ;
#321 = LINE ( 'NONE', #31, #312 ) ;
#322 = ORIENTED_EDGE ( 'NONE', *, *, #130, .F. ) ;
#323 = LINE ( 'NONE', #40, #447 ) ;
#324 = DIRECTION ( 'NONE',  ( 0.000000000000000000, 1.000000000000000000, 0.000000000000000000 ) ) ;
#325 = DIRECTION ( 'NONE',  ( 0.000000000000000000, 0.000000000000000000, -1.000000000000000000 ) ) ;
#326 = CARTESIAN_POINT ( 'NONE',  ( 0.000000000000000000, -8.500000000000000000, 20.00000000000000000 ) ) ;
#327 = VECTOR ( 'NONE', #492, 1000.000000000000000 ) ;
#328 = CARTESIAN_POINT ( 'NONE',  ( -7.250000000000000000, -1.000000000000000000, 15.00000000000000000 ) ) ;
#329 = EDGE_LOOP ( 'NONE', ( #1185, #915, #1058, #376 ) ) ;
#330 = DIRECTION ( 'NONE',  ( 0.000000000000000000, 0.000000000000000000, 1.000000000000000000 ) ) ;
#331 = ADVANCED_FACE ( 'NONE', ( #233 ), #894, .T. ) ;
#332 = EDGE_LOOP ( 'NONE', ( #571, #318, #518, #11 ) ) ;
#333 = CARTESIAN_POINT ( 'NONE',  ( -7.250000000000000000, 8.500000000000000000, 20.00000000000000000 ) ) ;
#334 = DIRECTION ( 'NONE',  ( 0.000000000000000000, 0.000000000000000000, -1.000000000000000000 ) ) ;
#335 = ORIENTED_EDGE ( 'NONE', *, *, #78, .T. ) ;
#336 = CARTESIAN_POINT ( 'NONE',  ( -7.250000000000000000, -8.500000000000000000, 20.00000000000000000 ) ) ;
#337 = ORIENTED_EDGE ( 'NONE', *, *, #795, .T. ) ;
#338 = EDGE_CURVE ( 'NONE', #821, #621, #799, .T. ) ;
#339 = CARTESIAN_POINT ( 'NONE',  ( 1.399999999999999911, -9.400000000000000355, 10.00000000000000000 ) ) ;
#340 = ORIENTED_EDGE ( 'NONE', *, *, #1093, .T. ) ;
#341 = PLANE ( 'NONE',  #30 ) ;
#342 = ORIENTED_EDGE ( 'NONE', *, *, #419, .F. ) ;
#343 = LINE ( 'NONE', #417, #490 ) ;
#344 = ORIENTED_EDGE ( 'NONE', *, *, #926, .F. ) ;
#345 = LINE ( 'NONE', #917, #425 ) ;
#346 = VECTOR ( 'NONE', #378, 1000.000000000000000 ) ;
#347 = VECTOR ( 'NONE', #589, 1000.000000000000000 ) ;
#348 = LINE ( 'NONE', #452, #690 ) ;
#349 = ORIENTED_EDGE ( 'NONE', *, *, #1075, .T. ) ;
#350 = VECTOR ( 'NONE', #760, 1000.000000000000000 ) ;
#351 = VECTOR ( 'NONE', #1227, 1000.000000000000000 ) ;
#352 = ORIENTED_EDGE ( 'NONE', *, *, #926, .T. ) ;
#353 = ORIENTED_EDGE ( 'NONE', *, *, #1210, .T. ) ;
#354 = EDGE_CURVE ( 'NONE', #298, #816, #238, .T. ) ;
#355 = DIRECTION ( 'NONE',  ( 0.000000000000000000, 0.000000000000000000, 1.000000000000000000 ) ) ;
#356 = EDGE_CURVE ( 'NONE', #438, #290, #806, .T. ) ;
#357 = CARTESIAN_POINT ( 'NONE',  ( 1.000000000000000000, 3.061276722312014463E-16, 15.00000000000000000 ) ) ;
#358 = VERTEX_POINT ( 'NONE', #1068 ) ;
#359 = DIRECTION ( 'NONE',  ( 9.227252531791529091E-17, -1.000000000000000000, 0.000000000000000000 ) ) ;
#360 = ORIENTED_EDGE ( 'NONE', *, *, #135, .T. ) ;
#361 = DIRECTION ( 'NONE',  ( 0.000000000000000000, -1.000000000000000000, 0.000000000000000000 ) ) ;
#362 = ORIENTED_EDGE ( 'NONE', *, *, #1093, .F. ) ;
#363 = LINE ( 'NONE', #744, #566 ) ;
#364 = DIRECTION ( 'NONE',  ( 0.000000000000000000, 1.000000000000000000, 0.000000000000000000 ) ) ;
#365 = CARTESIAN_POINT ( 'NONE',  ( -7.250000000000000000, 1.000000000000000000, 15.00000000000000000 ) ) ;
#366 = VERTEX_POINT ( 'NONE', #1169 ) ;
#367 = AXIS2_PLACEMENT_3D ( 'NONE', #453, #838, #857 ) ;
#368 = VECTOR ( 'NONE', #904, 1000.000000000000000 ) ;
#369 = EDGE_CURVE ( 'NONE', #32, #165, #321, .T. ) ;
#370 = ORIENTED_EDGE ( 'NONE', *, *, #837, .F. ) ;
#371 = CARTESIAN_POINT ( 'NONE',  ( -1.399999999999999911, -10.59999999999999964, 0.000000000000000000 ) ) ;
#372 = AXIS2_PLACEMENT_3D ( 'NONE', #243, #626, #1194 ) ;
#373 = EDGE_CURVE ( 'NONE', #680, #648, #700, .T. ) ;
#374 = DIRECTION ( 'NONE',  ( 1.000000000000000000, 0.000000000000000000, 0.000000000000000000 ) ) ;
#375 = LINE ( 'NONE', #1209, #17 ) ;
#376 = ORIENTED_EDGE ( 'NONE', *, *, #208, .T. ) ;
#377 = DIRECTION ( 'NONE',  ( 0.000000000000000000, 0.000000000000000000, -1.000000000000000000 ) ) ;
#378 = DIRECTION ( 'NONE',  ( -1.000000000000000000, 0.000000000000000000, 0.000000000000000000 ) ) ;
#379 = DIRECTION ( 'NONE',  ( 0.000000000000000000, 1.000000000000000000, 0.000000000000000000 ) ) ;
#380 = FACE_OUTER_BOUND ( 'NONE', #187, .T. ) ;
#381 = CARTESIAN_POINT ( 'NONE',  ( -9.350000000000001421, -1.399999999999999911, 10.00000000000000000 ) ) ;
#382 = LINE ( 'NONE', #754, #707 ) ;
#383 = ORIENTED_EDGE ( 'NONE', *, *, #1103, .T. ) ;
#384 = CARTESIAN_POINT ( 'NONE',  ( -8.150000000000000355, 9.400000000000000355, 18.00000000000000000 ) ) ;
#385 = PLANE ( 'NONE',  #154 ) ;
#386 = CARTESIAN_POINT ( 'NONE',  ( 1.000000000000000444, 1.000000000000000000, 15.00000000000000000 ) ) ;
#387 = EDGE_CURVE ( 'NONE', #438, #913, #1000, .T. ) ;
#388 = DIRECTION ( 'NONE',  ( 1.000000000000000000, 0.000000000000000000, 0.000000000000000000 ) ) ;
#389 = VECTOR ( 'NONE', #483, 1000.000000000000000 ) ;
#390 = AXIS2_PLACEMENT_3D ( 'NONE', #886, #712, #791 ) ;
#391 = ORIENTED_EDGE ( 'NONE', *, *, #514, .T. ) ;
#392 = AXIS2_PLACEMENT_3D ( 'NONE', #63, #638, #139 ) ;
#393 = CARTESIAN_POINT ( 'NONE',  ( -1.000000000000000000, 8.500000000000000000, 15.00000000000000000 ) ) ;
#394 = FACE_OUTER_BOUND ( 'NONE', #245, .T. ) ;
#395 = EDGE_LOOP ( 'NONE', ( #99, #1174, #206, #491 ) ) ;
#396 = VECTOR ( 'NONE', #320, 1000.000000000000000 ) ;
#397 = DIRECTION ( 'NONE',  ( 0.000000000000000000, 0.000000000000000000, -1.000000000000000000 ) ) ;
#398 = ADVANCED_FACE ( 'NONE', ( #990 ), #137, .F. ) ;
#399 = ORIENTED_EDGE ( 'NONE', *, *, #407, .T. ) ;
#400 = LINE ( 'NONE', #307, #908 ) ;
#401 = CARTESIAN_POINT ( 'NONE',  ( -8.149999999999998579, 9.400000000000000355, 18.00000000000000000 ) ) ;
#402 = CARTESIAN_POINT ( 'NONE',  ( 0.000000000000000000, 9.400000000000000355, 0.000000000000000000 ) ) ;
#403 = ORIENTED_EDGE ( 'NONE', *, *, #941, .T. ) ;
#404 = DIRECTION ( 'NONE',  ( 1.000000000000000000, 0.000000000000000000, 0.000000000000000000 ) ) ;
#405 = ORIENTED_EDGE ( 'NONE', *, *, #759, .T. ) ;
#406 = DIRECTION ( 'NONE',  ( 1.000000000000000000, 0.000000000000000000, 0.000000000000000000 ) ) ;
#407 = EDGE_CURVE ( 'NONE', #207, #22, #43, .T. ) ;
#408 = LINE ( 'NONE', #303, #672 ) ;
#409 = LINE ( 'NONE', #508, #847 ) ;
#410 = EDGE_CURVE ( 'NONE', #1010, #800, #420, .T. ) ;
#411 = PRODUCT_DEFINITION_FORMATION_WITH_SPECIFIED_SOURCE ( 'ANY', '', #180, .NOT_KNOWN. ) ;
#412 = AXIS2_PLACEMENT_3D ( 'NONE', #471, #115, #185 ) ;
#413 = CARTESIAN_POINT ( 'NONE',  ( 8.149999999999998579, 1.399999999999999911, 10.00000000000000000 ) ) ;
#414 = VERTEX_POINT ( 'NONE', #599 ) ;
#415 = DIRECTION ( 'NONE',  ( 0.000000000000000000, -1.000000000000000000, 0.000000000000000000 ) ) ;
#416 = CARTESIAN_POINT ( 'NONE',  ( 0.000000000000000000, 8.500000000000000000, 0.000000000000000000 ) ) ;
#417 = CARTESIAN_POINT ( 'NONE',  ( 7.250000000000000000, -1.000000000000000000, -24.82153022471871040 ) ) ;
#418 = CARTESIAN_POINT ( 'NONE',  ( 0.000000000000000000, -9.400000000000000355, 0.000000000000000000 ) ) ;
#419 = EDGE_CURVE ( 'NONE', #1215, #1055, #54, .T. ) ;
#420 = LINE ( 'NONE', #1081, #1146 ) ;
#421 = EDGE_LOOP ( 'NONE', ( #577, #1069, #1066, #942, #140, #792, #807, #86 ) ) ;
#422 = ADVANCED_FACE ( 'NONE', ( #504 ), #727, .T. ) ;
#423 = EDGE_LOOP ( 'NONE', ( #768, #602, #340, #996 ) ) ;
#424 = LINE ( 'NONE', #611, #594 ) ;
#425 = VECTOR ( 'NONE', #725, 1000.000000000000000 ) ;
#426 = PLANE ( 'NONE',  #390 ) ;
#427 = ORIENTED_EDGE ( 'NONE', *, *, #979, .T. ) ;
#428 = AXIS2_PLACEMENT_3D ( 'NONE', #548, #918, #720 ) ;
#429 = PLANE ( 'NONE',  #244 ) ;
#430 = ORIENTED_EDGE ( 'NONE', *, *, #718, .T. ) ;
#431 = CARTESIAN_POINT ( 'NONE',  ( 9.350000000000001421, 1.399999999999999911, 10.00000000000000000 ) ) ;
#432 = VERTEX_POINT ( 'NONE', #386 ) ;
#433 = LINE ( 'NONE', #709, #466 ) ;
#434 = EDGE_CURVE ( 'NONE', #971, #597, #630, .T. ) ;
#435 = ORIENTED_EDGE ( 'NONE', *, *, #1192, .T. ) ;
#436 = DIRECTION ( 'NONE',  ( 0.000000000000000000, 1.000000000000000000, 0.000000000000000000 ) ) ;
#437 = LINE ( 'NONE', #1050, #1026 ) ;
#438 = VERTEX_POINT ( 'NONE', #1027 ) ;
#439 = CARTESIAN_POINT ( 'NONE',  ( 8.149999999999998579, 1.399999999999999911, 10.00000000000000000 ) ) ;
#440 = ORIENTED_EDGE ( 'NONE', *, *, #1034, .F. ) ;
#441 = CARTESIAN_POINT ( 'NONE',  ( -8.149999999999998579, -1.399999999999999911, 10.00000000000000000 ) ) ;
#442 = FACE_OUTER_BOUND ( 'NONE', #780, .T. ) ;
#443 =( LENGTH_UNIT ( ) NAMED_UNIT ( * ) SI_UNIT ( .MILLI., .METRE. ) );
#444 = ADVANCED_FACE ( 'NONE', ( #960 ), #818, .T. ) ;
#445 = EDGE_CURVE ( 'NONE', #1190, #358, #765, .T. ) ;
#446 = LINE ( 'NONE', #675, #1200 ) ;
#447 = VECTOR ( 'NONE', #617, 1000.000000000000000 ) ;
#448 = EDGE_LOOP ( 'NONE', ( #1084, #935, #57, #177, #756, #898, #1127, #722 ) ) ;
#449 = DIRECTION ( 'NONE',  ( 1.000000000000000000, 0.000000000000000000, 0.000000000000000000 ) ) ;
#450 = ORIENTED_EDGE ( 'NONE', *, *, #25, .T. ) ;
#451 = DIRECTION ( 'NONE',  ( -1.845450506358304832E-16, 1.000000000000000000, 0.000000000000000000 ) ) ;
#452 = CARTESIAN_POINT ( 'NONE',  ( 9.350000000000001421, -1.399999999999999911, 10.00000000000000000 ) ) ;
#453 = CARTESIAN_POINT ( 'NONE',  ( 7.250000000000000000, -3.699042706127014867E-16, 20.00000000000000000 ) ) ;
#454 = ORIENTED_EDGE ( 'NONE', *, *, #26, .F. ) ;
#455 = DIRECTION ( 'NONE',  ( -1.000000000000000000, 0.000000000000000000, 0.000000000000000000 ) ) ;
#456 = ORIENTED_EDGE ( 'NONE', *, *, #1172, .T. ) ;
#457 = EDGE_CURVE ( 'NONE', #956, #680, #1019, .T. ) ;
#458 = FACE_OUTER_BOUND ( 'NONE', #887, .T. ) ;
#459 = EDGE_CURVE ( 'NONE', #161, #1062, #929, .T. ) ;
#460 = VERTEX_POINT ( 'NONE', #1145 ) ;
#461 = DIRECTION ( 'NONE',  ( 1.000000000000000000, 0.000000000000000000, 0.000000000000000000 ) ) ;
#462 = ORIENTED_EDGE ( 'NONE', *, *, #302, .T. ) ;
#463 = CARTESIAN_POINT ( 'NONE',  ( -7.250000000000000000, -1.000000000000000000, -2.999999999999999112 ) ) ;
#464 = FACE_OUTER_BOUND ( 'NONE', #229, .T. ) ;
#465 = CARTESIAN_POINT ( 'NONE',  ( 1.399999999999999911, 10.59999999999999964, 10.00000000000000000 ) ) ;
#466 = VECTOR ( 'NONE', #1188, 1000.000000000000000 ) ;
#467 = LINE ( 'NONE', #1, #909 ) ;
#468 = ORIENTED_EDGE ( 'NONE', *, *, #1100, .T. ) ;
#469 = VERTEX_POINT ( 'NONE', #829 ) ;
#470 = VECTOR ( 'NONE', #265, 1000.000000000000000 ) ;
#471 = CARTESIAN_POINT ( 'NONE',  ( -7.250000000000000000, -1.000000000000000000, -24.82153022471871040 ) ) ;
#472 = CARTESIAN_POINT ( 'NONE',  ( -8.149999999999998579, 1.399999999999999911, 10.00000000000000000 ) ) ;
#473 = LINE ( 'NONE', #940, #350 ) ;
#474 = LINE ( 'NONE', #779, #172 ) ;
#475 = ORIENTED_EDGE ( 'NONE', *, *, #612, .F. ) ;
#476 = EDGE_CURVE ( 'NONE', #314, #207, #933, .T. ) ;
#477 = PLANE ( 'NONE',  #874 ) ;
#478 = DIRECTION ( 'NONE',  ( 0.000000000000000000, 0.000000000000000000, -1.000000000000000000 ) ) ;
#479 = ORIENTED_EDGE ( 'NONE', *, *, #855, .F. ) ;
#480 = CARTESIAN_POINT ( 'NONE',  ( 3.354101966249685152, 1.000000000000000000, -2.999999999999999112 ) ) ;
#481 = CARTESIAN_POINT ( 'NONE',  ( -1.399999999999999911, 10.59999999999999964, 10.00000000000000000 ) ) ;
#482 = ORIENTED_EDGE ( 'NONE', *, *, #752, .T. ) ;
#483 = DIRECTION ( 'NONE',  ( 1.000000000000000000, -0.000000000000000000, 0.000000000000000000 ) ) ;
#484 = CARTESIAN_POINT ( 'NONE',  ( 0.000000000000000000, 0.000000000000000000, 10.00000000000000000 ) ) ;
#485 = DIRECTION ( 'NONE',  ( -9.227252531791529091E-17, 1.000000000000000000, 0.000000000000000000 ) ) ;
#486 = CARTESIAN_POINT ( 'NONE',  ( 8.149999999999998579, 1.504042162682019878E-15, 18.00000000000000000 ) ) ;
#487 = EDGE_CURVE ( 'NONE', #489, #1111, #814, .T. ) ;
#488 = EDGE_CURVE ( 'NONE', #1003, #366, #348, .T. ) ;
#489 = VERTEX_POINT ( 'NONE', #543 ) ;
#490 = VECTOR ( 'NONE', #723, 1000.000000000000000 ) ;
#491 = ORIENTED_EDGE ( 'NONE', *, *, #419, .T. ) ;
#492 = DIRECTION ( 'NONE',  ( -0.000000000000000000, -0.000000000000000000, 1.000000000000000000 ) ) ;
#493 = VECTOR ( 'NONE', #142, 1000.000000000000000 ) ;
#494 = LINE ( 'NONE', #401, #989 ) ;
#495 = AXIS2_PLACEMENT_3D ( 'NONE', #39, #803, #1079 ) ;
#496 = CARTESIAN_POINT ( 'NONE',  ( -1.000000000000000000, 8.500000000000000000, 15.00000000000000000 ) ) ;
#497 = DIRECTION ( 'NONE',  ( -5.102127870520019996E-17, -1.000000000000000000, 0.000000000000000000 ) ) ;
#498 = DIRECTION ( 'NONE',  ( 1.000000000000000000, -0.000000000000000000, 0.000000000000000000 ) ) ;
#499 = VERTEX_POINT ( 'NONE', #861 ) ;
#500 = EDGE_CURVE ( 'NONE', #22, #711, #836, .T. ) ;
#501 = EDGE_CURVE ( 'NONE', #738, #833, #446, .T. ) ;
#502 = DIRECTION ( 'NONE',  ( 0.000000000000000000, 0.000000000000000000, -1.000000000000000000 ) ) ;
#503 = DIRECTION ( 'NONE',  ( 1.000000000000000000, 0.000000000000000000, 0.000000000000000000 ) ) ;
#504 = FACE_OUTER_BOUND ( 'NONE', #936, .T. ) ;
#505 = ORIENTED_EDGE ( 'NONE', *, *, #1193, .F. ) ;
#506 = VECTOR ( 'NONE', #377, 1000.000000000000000 ) ;
#507 = PRESENTATION_LAYER_ASSIGNMENT (  '', '', ( #29 ) ) ;
#508 = CARTESIAN_POINT ( 'NONE',  ( -8.149999999999998579, -1.399999999999999911, 10.00000000000000000 ) ) ;
#509 = VECTOR ( 'NONE', #652, 1000.000000000000000 ) ;
#510 = ORIENTED_EDGE ( 'NONE', *, *, #476, .T. ) ;
#511 = CARTESIAN_POINT ( 'NONE',  ( 1.399999999999999911, -10.59999999999999964, 10.00000000000000000 ) ) ;
#512 = LINE ( 'NONE', #333, #227 ) ;
#513 = ADVANCED_FACE ( 'NONE', ( #1110 ), #1186, .F. ) ;
#514 = EDGE_CURVE ( 'NONE', #1190, #1165, #77, .T. ) ;
#515 = CARTESIAN_POINT ( 'NONE',  ( 7.250000000000000000, 1.000000000000000000, -24.82153022471871040 ) ) ;
#516 = ORIENTED_EDGE ( 'NONE', *, *, #1015, .F. ) ;
#517 = CARTESIAN_POINT ( 'NONE',  ( -8.149999999999998579, -1.399999999999999911, 10.00000000000000000 ) ) ;
#518 = ORIENTED_EDGE ( 'NONE', *, *, #939, .T. ) ;
#519 = CARTESIAN_POINT ( 'NONE',  ( -1.000000000000000000, 8.500000000000000000, -24.82153022471871040 ) ) ;
#520 = DIRECTION ( 'NONE',  ( 9.227252531791529091E-17, -1.000000000000000000, 0.000000000000000000 ) ) ;
#521 = LINE ( 'NONE', #413, #889 ) ;
#522 = ORIENTED_EDGE ( 'NONE', *, *, #167, .F. ) ;
#523 = FACE_OUTER_BOUND ( 'NONE', #1108, .T. ) ;
#524 = ORIENTED_EDGE ( 'NONE', *, *, #596, .T. ) ;
#525 = EDGE_LOOP ( 'NONE', ( #619, #724, #635, #213, #587, #944, #977, #639 ) ) ;
#526 = VECTOR ( 'NONE', #364, 1000.000000000000000 ) ;
#527 = VECTOR ( 'NONE', #128, 1000.000000000000000 ) ;
#528 = DIRECTION ( 'NONE',  ( -0.000000000000000000, -0.000000000000000000, 1.000000000000000000 ) ) ;
#529 = ORIENTED_EDGE ( 'NONE', *, *, #354, .T. ) ;
#530 = AXIS2_PLACEMENT_3D ( 'NONE', #757, #1138, #299 ) ;
#531 = ADVANCED_FACE ( 'NONE', ( #1094 ), #740, .T. ) ;
#532 = FACE_OUTER_BOUND ( 'NONE', #1211, .T. ) ;
#533 = ORIENTED_EDGE ( 'NONE', *, *, #407, .F. ) ;
#534 = ORIENTED_EDGE ( 'NONE', *, *, #695, .F. ) ;
#535 = DIRECTION ( 'NONE',  ( 1.000000000000000000, 0.000000000000000000, 0.000000000000000000 ) ) ;
#536 = DIRECTION ( 'NONE',  ( -1.000000000000000000, 0.000000000000000000, 0.000000000000000000 ) ) ;
#537 = ORIENTED_EDGE ( 'NONE', *, *, #500, .F. ) ;
#538 =( NAMED_UNIT ( * ) SI_UNIT ( $, .STERADIAN. ) SOLID_ANGLE_UNIT ( ) );
#539 = EDGE_CURVE ( 'NONE', #680, #414, #437, .T. ) ;
#540 = ORIENTED_EDGE ( 'NONE', *, *, #1210, .F. ) ;
#541 = ADVANCED_FACE ( 'NONE', ( #580 ), #61, .F. ) ;
#542 = ORIENTED_EDGE ( 'NONE', *, *, #893, .T. ) ;
#543 = CARTESIAN_POINT ( 'NONE',  ( -0.9999999999999995559, 1.000000000000000000, 15.00000000000000000 ) ) ;
#544 = VERTEX_POINT ( 'NONE', #209 ) ;
#545 = LINE ( 'NONE', #1204, #389 ) ;
#546 = CARTESIAN_POINT ( 'NONE',  ( -9.350000000000001421, 1.399999999999999911, 0.000000000000000000 ) ) ;
#547 = VECTOR ( 'NONE', #126, 1000.000000000000000 ) ;
#548 = CARTESIAN_POINT ( 'NONE',  ( 0.000000000000000000, 0.000000000000000000, 10.00000000000000000 ) ) ;
#549 = AXIS2_PLACEMENT_3D ( 'NONE', #1126, #361, #84 ) ;
#550 = CARTESIAN_POINT ( 'NONE',  ( 7.250000000000000000, -8.500000000000000000, 0.000000000000000000 ) ) ;
#551 = ORIENTED_EDGE ( 'NONE', *, *, #278, .F. ) ;
#552 = ORIENTED_EDGE ( 'NONE', *, *, #151, .T. ) ;
#553 = DIRECTION ( 'NONE',  ( 1.000000000000000000, 1.845450506358304832E-16, 0.000000000000000000 ) ) ;
#554 = ADVANCED_FACE ( 'NONE', ( #464 ), #292, .T. ) ;
#555 = DIRECTION ( 'NONE',  ( -1.000000000000000000, 0.000000000000000000, 0.000000000000000000 ) ) ;
#556 = EDGE_CURVE ( 'NONE', #283, #816, #959, .T. ) ;
#557 = DIRECTION ( 'NONE',  ( 1.000000000000000000, 0.000000000000000000, 0.000000000000000000 ) ) ;
#558 = ORIENTED_EDGE ( 'NONE', *, *, #387, .F. ) ;
#559 = ORIENTED_EDGE ( 'NONE', *, *, #316, .T. ) ;
#560 = DIRECTION ( 'NONE',  ( 0.000000000000000000, -1.000000000000000000, 0.000000000000000000 ) ) ;
#561 = CARTESIAN_POINT ( 'NONE',  ( 8.149999999999998579, 1.504042162682019878E-15, 0.000000000000000000 ) ) ;
#562 = EDGE_CURVE ( 'NONE', #314, #1092, #585, .T. ) ;
#563 = CARTESIAN_POINT ( 'NONE',  ( 8.149999999999998579, -1.399999999999999911, 10.00000000000000000 ) ) ;
#564 = ORIENTED_EDGE ( 'NONE', *, *, #811, .T. ) ;
#565 = FACE_OUTER_BOUND ( 'NONE', #1023, .T. ) ;
#566 = VECTOR ( 'NONE', #188, 1000.000000000000000 ) ;
#567 = COLOUR_RGB ( '',0.7921568627450980005, 0.8196078431372548767, 0.9333333333333333481 ) ;
#568 = CARTESIAN_POINT ( 'NONE',  ( 1.399999999999999911, -9.400000000000000355, 10.00000000000000000 ) ) ;
#569 = VECTOR ( 'NONE', #739, 1000.000000000000000 ) ;
#570 = LINE ( 'NONE', #441, #588 ) ;
#571 = ORIENTED_EDGE ( 'NONE', *, *, #811, .F. ) ;
#572 = FACE_OUTER_BOUND ( 'NONE', #952, .T. ) ;
#573 = LINE ( 'NONE', #480, #591 ) ;
#574 = CARTESIAN_POINT ( 'NONE',  ( -9.350000000000001421, 1.399999999999999911, 10.00000000000000000 ) ) ;
#575 = EDGE_LOOP ( 'NONE', ( #234, #362, #475, #703 ) ) ;
#576 = ADVANCED_FACE ( 'NONE', ( #572 ), #965, .F. ) ;
#577 = ORIENTED_EDGE ( 'NONE', *, *, #562, .T. ) ;
#578 = ADVANCED_FACE ( 'NONE', ( #97 ), #777, .T. ) ;
#579 = DIRECTION ( 'NONE',  ( 0.000000000000000000, 0.000000000000000000, -1.000000000000000000 ) ) ;
#580 = FACE_OUTER_BOUND ( 'NONE', #1095, .T. ) ;
#581 = FACE_BOUND ( 'NONE', #677, .T. ) ;
#582 = VERTEX_POINT ( 'NONE', #21 ) ;
#583 = PLANE ( 'NONE',  #92 ) ;
#584 = ORIENTED_EDGE ( 'NONE', *, *, #101, .F. ) ;
#585 = LINE ( 'NONE', #938, #770 ) ;
#586 = LINE ( 'NONE', #982, #983 ) ;
#587 = ORIENTED_EDGE ( 'NONE', *, *, #701, .F. ) ;
#588 = VECTOR ( 'NONE', #1216, 1000.000000000000000 ) ;
#589 = DIRECTION ( 'NONE',  ( 0.000000000000000000, 0.000000000000000000, -1.000000000000000000 ) ) ;
#590 = VECTOR ( 'NONE', #379, 1000.000000000000000 ) ;
#591 = VECTOR ( 'NONE', #143, 1000.000000000000000 ) ;
#592 = ORIENTED_EDGE ( 'NONE', *, *, #695, .T. ) ;
#593 = FACE_OUTER_BOUND ( 'NONE', #122, .T. ) ;
#594 = VECTOR ( 'NONE', #797, 1000.000000000000000 ) ;
#595 = ADVANCED_FACE ( 'NONE', ( #380 ), #385, .T. ) ;
#596 = EDGE_CURVE ( 'NONE', #138, #913, #277, .T. ) ;
#597 = VERTEX_POINT ( 'NONE', #945 ) ;
#598 = LINE ( 'NONE', #486, #68 ) ;
#599 = CARTESIAN_POINT ( 'NONE',  ( -1.399999999999999911, -10.59999999999999964, 10.00000000000000000 ) ) ;
#600 = ORIENTED_EDGE ( 'NONE', *, *, #1009, .T. ) ;
#601 = CARTESIAN_POINT ( 'NONE',  ( 7.250000000000000000, 8.500000000000000000, 0.000000000000000000 ) ) ;
#602 = ORIENTED_EDGE ( 'NONE', *, *, #434, .F. ) ;
#603 = ADVANCED_FACE ( 'NONE', ( #565 ), #284, .F. ) ;
#604 = DIRECTION ( 'NONE',  ( 0.000000000000000000, 1.000000000000000000, 0.000000000000000000 ) ) ;
#605 = AXIS2_PLACEMENT_3D ( 'NONE', #170, #555, #355 ) ;
#606 = VECTOR ( 'NONE', #1011, 1000.000000000000000 ) ;
#607 = CARTESIAN_POINT ( 'NONE',  ( 8.149999999999998579, -9.400000000000000355, 20.00000000000000000 ) ) ;
#608 = ORIENTED_EDGE ( 'NONE', *, *, #972, .T. ) ;
#609 = ORIENTED_EDGE ( 'NONE', *, *, #1078, .F. ) ;
#610 = EDGE_CURVE ( 'NONE', #819, #771, #202, .T. ) ;
#611 = CARTESIAN_POINT ( 'NONE',  ( 8.149999999999998579, -1.399999999999999911, 10.00000000000000000 ) ) ;
#612 = EDGE_CURVE ( 'NONE', #833, #971, #88, .T. ) ;
#613 = DIRECTION ( 'NONE',  ( 1.000000000000000000, -1.807003620809174878E-16, 0.000000000000000000 ) ) ;
#614 =( LENGTH_UNIT ( ) NAMED_UNIT ( * ) SI_UNIT ( .MILLI., .METRE. ) );
#615 = ORIENTED_EDGE ( 'NONE', *, *, #42, .F. ) ;
#616 = VERTEX_POINT ( 'NONE', #678 ) ;
#617 = DIRECTION ( 'NONE',  ( -1.000000000000000000, 0.000000000000000000, 0.000000000000000000 ) ) ;
#618 = DIRECTION ( 'NONE',  ( 0.000000000000000000, -1.000000000000000000, 0.000000000000000000 ) ) ;
#619 = ORIENTED_EDGE ( 'NONE', *, *, #893, .F. ) ;
#620 = FACE_OUTER_BOUND ( 'NONE', #423, .T. ) ;
#621 = VERTEX_POINT ( 'NONE', #953 ) ;
#622 = ORIENTED_EDGE ( 'NONE', *, *, #297, .F. ) ;
#623 = CARTESIAN_POINT ( 'NONE',  ( -8.149999999999998579, 1.399999999999999911, 10.00000000000000000 ) ) ;
#624 = VECTOR ( 'NONE', #676, 1000.000000000000000 ) ;
#625 = EDGE_CURVE ( 'NONE', #290, #32, #494, .T. ) ;
#626 = DIRECTION ( 'NONE',  ( -1.000000000000000000, -3.061276722312015942E-16, 0.000000000000000000 ) ) ;
#627 =( NAMED_UNIT ( * ) PLANE_ANGLE_UNIT ( ) SI_UNIT ( $, .RADIAN. ) );
#628 = ORIENTED_EDGE ( 'NONE', *, *, #958, .T. ) ;
#629 = LINE ( 'NONE', #1024, #606 ) ;
#630 = LINE ( 'NONE', #637, #947 ) ;
#631 = ORIENTED_EDGE ( 'NONE', *, *, #356, .T. ) ;
#632 = LINE ( 'NONE', #357, #848 ) ;
#633 = ORIENTED_EDGE ( 'NONE', *, *, #868, .T. ) ;
#634 = DIRECTION ( 'NONE',  ( -1.000000000000000000, 0.000000000000000000, 0.000000000000000000 ) ) ;
#635 = ORIENTED_EDGE ( 'NONE', *, *, #387, .T. ) ;
#636 =( NAMED_UNIT ( * ) SI_UNIT ( $, .STERADIAN. ) SOLID_ANGLE_UNIT ( ) );
#637 = CARTESIAN_POINT ( 'NONE',  ( -1.399999999999999911, 10.59999999999999964, 10.00000000000000000 ) ) ;
#638 = DIRECTION ( 'NONE',  ( 0.000000000000000000, -1.000000000000000000, 0.000000000000000000 ) ) ;
#639 = ORIENTED_EDGE ( 'NONE', *, *, #795, .F. ) ;
#640 = ADVANCED_FACE ( 'NONE', ( #1056 ), #477, .T. ) ;
#641 = EDGE_LOOP ( 'NONE', ( #305, #839, #273, #295 ) ) ;
#642 = DIRECTION ( 'NONE',  ( 0.000000000000000000, -1.000000000000000000, 0.000000000000000000 ) ) ;
#643 = DIRECTION ( 'NONE',  ( 1.807003620809174878E-16, 1.000000000000000000, 0.000000000000000000 ) ) ;
#644 = VECTOR ( 'NONE', #163, 1000.000000000000000 ) ;
#645 = VERTEX_POINT ( 'NONE', #1039 ) ;
#646 = VECTOR ( 'NONE', #264, 1000.000000000000000 ) ;
#647 = CARTESIAN_POINT ( 'NONE',  ( 1.399999999999999911, -9.400000000000000355, 10.00000000000000000 ) ) ;
#648 = VERTEX_POINT ( 'NONE', #5 ) ;
#649 = DIRECTION ( 'NONE',  ( 0.000000000000000000, 0.000000000000000000, 1.000000000000000000 ) ) ;
#650 = ORIENTED_EDGE ( 'NONE', *, *, #279, .F. ) ;
#651 = LINE ( 'NONE', #841, #526 ) ;
#652 = DIRECTION ( 'NONE',  ( 0.000000000000000000, -1.000000000000000000, 0.000000000000000000 ) ) ;
#653 = DIRECTION ( 'NONE',  ( 0.000000000000000000, 0.000000000000000000, -1.000000000000000000 ) ) ;
#654 = PLANE ( 'NONE',  #367 ) ;
#655 = DIRECTION ( 'NONE',  ( 0.000000000000000000, -1.000000000000000000, 0.000000000000000000 ) ) ;
#656 = SHAPE_DEFINITION_REPRESENTATION ( #730, #999 ) ;
#657 = CARTESIAN_POINT ( 'NONE',  ( 0.000000000000000000, 0.000000000000000000, 10.00000000000000000 ) ) ;
#658 = EDGE_CURVE ( 'NONE', #366, #138, #1157, .T. ) ;
#659 = LINE ( 'NONE', #472, #1178 ) ;
#660 = DIRECTION ( 'NONE',  ( 0.000000000000000000, 1.000000000000000000, 0.000000000000000000 ) ) ;
#661 = CARTESIAN_POINT ( 'NONE',  ( -9.350000000000001421, -1.399999999999999911, 10.00000000000000000 ) ) ;
#662 = ORIENTED_EDGE ( 'NONE', *, *, #354, .F. ) ;
#663 = DIRECTION ( 'NONE',  ( -0.000000000000000000, 1.000000000000000000, 0.000000000000000000 ) ) ;
#664 = VECTOR ( 'NONE', #498, 1000.000000000000000 ) ;
#665 = EDGE_CURVE ( 'NONE', #414, #1134, #764, .T. ) ;
#666 = VECTOR ( 'NONE', #1045, 1000.000000000000000 ) ;
#667 = LINE ( 'NONE', #402, #666 ) ;
#668 = PLANE ( 'NONE',  #549 ) ;
#669 = EDGE_CURVE ( 'NONE', #816, #645, #1144, .T. ) ;
#670 = ORIENTED_EDGE ( 'NONE', *, *, #921, .T. ) ;
#671 = AXIS2_PLACEMENT_3D ( 'NONE', #1052, #205, #461 ) ;
#672 = VECTOR ( 'NONE', #502, 1000.000000000000000 ) ;
#673 = EDGE_LOOP ( 'NONE', ( #450, #888, #108, #1089, #9 ) ) ;
#674 = CARTESIAN_POINT ( 'NONE',  ( 0.000000000000000000, 8.500000000000000000, 0.000000000000000000 ) ) ;
#675 = CARTESIAN_POINT ( 'NONE',  ( 1.399999999999999911, 9.400000000000000355, 10.00000000000000000 ) ) ;
#676 = DIRECTION ( 'NONE',  ( 1.000000000000000000, -1.807003620809174878E-16, 0.000000000000000000 ) ) ;
#677 = EDGE_LOOP ( 'NONE', ( #633, #53, #253, #615, #90, #1001, #662, #877, #300, #248 ) ) ;
#678 = CARTESIAN_POINT ( 'NONE',  ( 8.149999999999998579, 9.400000000000000355, 0.000000000000000000 ) ) ;
#679 = DIRECTION ( 'NONE',  ( 0.000000000000000000, 0.000000000000000000, -1.000000000000000000 ) ) ;
#680 = VERTEX_POINT ( 'NONE', #511 ) ;
#681 = ORIENTED_EDGE ( 'NONE', *, *, #130, .T. ) ;
#682 = ADVANCED_FACE ( 'NONE', ( #593 ), #981, .F. ) ;
#683 = CARTESIAN_POINT ( 'NONE',  ( 1.399999999999999911, 9.400000000000000355, 10.00000000000000000 ) ) ;
#684 = EDGE_CURVE ( 'NONE', #800, #1092, #124, .T. ) ;
#685 = VECTOR ( 'NONE', #193, 1000.000000000000000 ) ;
#686 = VERTEX_POINT ( 'NONE', #896 ) ;
#687 = LINE ( 'NONE', #465, #569 ) ;
#688 = CARTESIAN_POINT ( 'NONE',  ( -3.354101966249684263, -1.000000000000001998, -2.999999999999999112 ) ) ;
#689 =( GEOMETRIC_REPRESENTATION_CONTEXT ( 3 ) GLOBAL_UNCERTAINTY_ASSIGNED_CONTEXT ( ( #751 ) ) GLOBAL_UNIT_ASSIGNED_CONTEXT ( ( #443, #1199, #636 ) ) REPRESENTATION_CONTEXT ( 'NONE', 'WORKASPACE' ) );
#690 = VECTOR ( 'NONE', #478, 1000.000000000000000 ) ;
#691 = EDGE_CURVE ( 'NONE', #290, #1165, #408, .T. ) ;
#692 = DIRECTION ( 'NONE',  ( -1.000000000000000000, 0.000000000000000000, 0.000000000000000000 ) ) ;
#693 = VERTEX_POINT ( 'NONE', #1171 ) ;
#694 = FACE_OUTER_BOUND ( 'NONE', #1098, .T. ) ;
#695 = EDGE_CURVE ( 'NONE', #499, #597, #231, .T. ) ;
#696 = DIRECTION ( 'NONE',  ( 0.000000000000000000, 0.000000000000000000, -1.000000000000000000 ) ) ;
#697 = EDGE_LOOP ( 'NONE', ( #1105, #204, #584, #403 ) ) ;
#698 = CARTESIAN_POINT ( 'NONE',  ( 7.250000000000000000, -8.500000000000000000, 18.00000000000000000 ) ) ;
#699 = CARTESIAN_POINT ( 'NONE',  ( 7.250000000000000000, -1.000000000000000000, 15.00000000000000000 ) ) ;
#700 = LINE ( 'NONE', #228, #826 ) ;
#701 = EDGE_CURVE ( 'NONE', #831, #138, #424, .T. ) ;
#702 = EDGE_CURVE ( 'NONE', #314, #469, #1059, .T. ) ;
#703 = ORIENTED_EDGE ( 'NONE', *, *, #501, .F. ) ;
#704 = AXIS2_PLACEMENT_3D ( 'NONE', #859, #3, #883 ) ;
#705 = VECTOR ( 'NONE', #111, 1000.000000000000000 ) ;
#706 = CARTESIAN_POINT ( 'NONE',  ( -7.250000000000000000, 8.500000000000000000, 18.00000000000000000 ) ) ;
#707 = VECTOR ( 'NONE', #1133, 1000.000000000000000 ) ;
#708 = VERTEX_POINT ( 'NONE', #880 ) ;
#709 = CARTESIAN_POINT ( 'NONE',  ( -7.250000000000000000, -1.000000000000000000, -2.999999999999999112 ) ) ;
#710 = EDGE_LOOP ( 'NONE', ( #551, #479, #263, #905 ) ) ;
#711 = VERTEX_POINT ( 'NONE', #783 ) ;
#712 = DIRECTION ( 'NONE',  ( 0.000000000000000000, -1.000000000000000000, 0.000000000000000000 ) ) ;
#713 = VERTEX_POINT ( 'NONE', #1176 ) ;
#714 = PRESENTATION_STYLE_ASSIGNMENT (( #1096 ) ) ;
#715 = ORIENTED_EDGE ( 'NONE', *, *, #224, .F. ) ;
#716 = ORIENTED_EDGE ( 'NONE', *, *, #311, .F. ) ;
#717 = CARTESIAN_POINT ( 'NONE',  ( 7.250000000000000000, -1.000000000000000000, 0.000000000000000000 ) ) ;
#718 = EDGE_CURVE ( 'NONE', #94, #645, #789, .T. ) ;
#719 = EDGE_CURVE ( 'NONE', #1134, #582, #1071, .T. ) ;
#720 = DIRECTION ( 'NONE',  ( 0.000000000000000000, -1.000000000000000000, 0.000000000000000000 ) ) ;
#721 = SURFACE_STYLE_FILL_AREA ( #995 ) ;
#722 = ORIENTED_EDGE ( 'NONE', *, *, #302, .F. ) ;
#723 = DIRECTION ( 'NONE',  ( -0.000000000000000000, -0.000000000000000000, 1.000000000000000000 ) ) ;
#724 = ORIENTED_EDGE ( 'NONE', *, *, #58, .T. ) ;
#725 = DIRECTION ( 'NONE',  ( 0.000000000000000000, 0.000000000000000000, -1.000000000000000000 ) ) ;
#726 = VECTOR ( 'NONE', #152, 1000.000000000000000 ) ;
#727 = PLANE ( 'NONE',  #786 ) ;
#728 = ORIENTED_EDGE ( 'NONE', *, *, #259, .F. ) ;
#729 = DIRECTION ( 'NONE',  ( -3.061276722312015942E-16, 1.000000000000000000, 0.000000000000000000 ) ) ;
#730 = PRODUCT_DEFINITION_SHAPE ( 'NONE', 'NONE',  #242 ) ;
#731 = ORIENTED_EDGE ( 'NONE', *, *, #979, .F. ) ;
#732 = FACE_OUTER_BOUND ( 'NONE', #525, .T. ) ;
#733 = CARTESIAN_POINT ( 'NONE',  ( -8.149999999999998579, -1.399999999999999911, 0.000000000000000000 ) ) ;
#734 = DIRECTION ( 'NONE',  ( -3.061276722312015942E-16, 1.000000000000000000, 0.000000000000000000 ) ) ;
#735 = EDGE_CURVE ( 'NONE', #287, #816, #141, .T. ) ;
#736 = ORIENTED_EDGE ( 'NONE', *, *, #702, .T. ) ;
#737 = LINE ( 'NONE', #840, #506 ) ;
#738 = VERTEX_POINT ( 'NONE', #683 ) ;
#739 = DIRECTION ( 'NONE',  ( 0.000000000000000000, 0.000000000000000000, -1.000000000000000000 ) ) ;
#740 = PLANE ( 'NONE',  #891 ) ;
#741 = FACE_OUTER_BOUND ( 'NONE', #421, .T. ) ;
#742 = ORIENTED_EDGE ( 'NONE', *, *, #488, .F. ) ;
#743 = CARTESIAN_POINT ( 'NONE',  ( -7.250000000000000000, 0.000000000000000000, 18.00000000000000000 ) ) ;
#744 = CARTESIAN_POINT ( 'NONE',  ( -0.9999999999999997780, 3.354101966249685152, -2.999999999999999112 ) ) ;
#745 = FACE_BOUND ( 'NONE', #329, .T. ) ;
#746 = LINE ( 'NONE', #563, #1164 ) ;
#747 = ORIENTED_EDGE ( 'NONE', *, *, #476, .F. ) ;
#748 = CARTESIAN_POINT ( 'NONE',  ( 7.250000000000000000, 1.000000000000000000, 15.00000000000000000 ) ) ;
#749 = ORIENTED_EDGE ( 'NONE', *, *, #556, .F. ) ;
#750 = LINE ( 'NONE', #623, #646 ) ;
#751 = UNCERTAINTY_MEASURE_WITH_UNIT (LENGTH_MEASURE( 1.000000000000000082E-05 ), #443, 'distance_accuracy_value', 'NONE');
#752 = EDGE_CURVE ( 'NONE', #432, #94, #632, .T. ) ;
#753 = CARTESIAN_POINT ( 'NONE',  ( -1.399999999999999911, -10.59999999999999964, 10.00000000000000000 ) ) ;
#754 = CARTESIAN_POINT ( 'NONE',  ( 7.250000000000000000, -8.500000000000000000, 20.00000000000000000 ) ) ;
#755 = CARTESIAN_POINT ( 'NONE',  ( 8.149999999999998579, -1.399999999999999911, 0.000000000000000000 ) ) ;
#756 = ORIENTED_EDGE ( 'NONE', *, *, #25, .F. ) ;
#757 = CARTESIAN_POINT ( 'NONE',  ( 7.250000000000000000, -1.000000000000000000, 15.00000000000000000 ) ) ;
#758 = EDGE_CURVE ( 'NONE', #489, #283, #1014, .T. ) ;
#759 = EDGE_CURVE ( 'NONE', #821, #1181, #433, .T. ) ;
#760 = DIRECTION ( 'NONE',  ( -1.000000000000000000, 0.000000000000000000, 0.000000000000000000 ) ) ;
#761 = ORIENTED_EDGE ( 'NONE', *, *, #752, .F. ) ;
#762 = PLANE ( 'NONE',  #704 ) ;
#763 = LINE ( 'NONE', #1143, #784 ) ;
#764 = LINE ( 'NONE', #753, #1166 ) ;
#765 = LINE ( 'NONE', #733, #71 ) ;
#766 = AXIS2_PLACEMENT_3D ( 'NONE', #131, #881, #604 ) ;
#767 = PLANE ( 'NONE',  #1197 ) ;
#768 = ORIENTED_EDGE ( 'NONE', *, *, #958, .F. ) ;
#769 = AXIS2_PLACEMENT_3D ( 'NONE', #1048, #109, #404 ) ;
#770 = VECTOR ( 'NONE', #1032, 1000.000000000000000 ) ;
#771 = VERTEX_POINT ( 'NONE', #820 ) ;
#772 = DIRECTION ( 'NONE',  ( 0.000000000000000000, 1.000000000000000000, 0.000000000000000000 ) ) ;
#773 = DIRECTION ( 'NONE',  ( 0.000000000000000000, -1.000000000000000000, 0.000000000000000000 ) ) ;
#774 = ORIENTED_EDGE ( 'NONE', *, *, #718, .F. ) ;
#775 = DIRECTION ( 'NONE',  ( -1.000000000000000000, 0.000000000000000000, 0.000000000000000000 ) ) ;
#776 = ADVANCED_FACE ( 'NONE', ( #924 ), #429, .F. ) ;
#777 = PLANE ( 'NONE',  #1221 ) ;
#778 = PLANE ( 'NONE',  #266 ) ;
#779 = CARTESIAN_POINT ( 'NONE',  ( 1.399999999999999911, 9.400000000000000355, 10.00000000000000000 ) ) ;
#780 = EDGE_LOOP ( 'NONE', ( #73, #360, #145, #747, #736, #427, #482, #1202 ) ) ;
#781 = APPLICATION_PROTOCOL_DEFINITION ( 'draft international standard', 'automotive_design', 1998, #1051 ) ;
#782 = LINE ( 'NONE', #1160, #590 ) ;
#783 = CARTESIAN_POINT ( 'NONE',  ( -7.250000000000000000, -8.500000000000000000, 0.000000000000000000 ) ) ;
#784 = VECTOR ( 'NONE', #309, 1000.000000000000000 ) ;
#785 = LINE ( 'NONE', #212, #869 ) ;
#786 = AXIS2_PLACEMENT_3D ( 'NONE', #179, #1008, #157 ) ;
#787 = VECTOR ( 'NONE', #934, 1000.000000000000000 ) ;
#788 = PRODUCT_DEFINITION_CONTEXT ( 'detailed design', #10, 'design' ) ;
#789 = LINE ( 'NONE', #308, #1007 ) ;
#790 = LINE ( 'NONE', #902, #52 ) ;
#791 = DIRECTION ( 'NONE',  ( 0.000000000000000000, 0.000000000000000000, -1.000000000000000000 ) ) ;
#792 = ORIENTED_EDGE ( 'NONE', *, *, #42, .T. ) ;
#793 = PLANE ( 'NONE',  #246 ) ;
#794 = MANIFOLD_SOLID_BREP ( 'Boss-Extrude2', #906 ) ;
#795 = EDGE_CURVE ( 'NONE', #616, #771, #907, .T. ) ;
#796 = ADVANCED_FACE ( 'NONE', ( #532 ), #341, .T. ) ;
#797 = DIRECTION ( 'NONE',  ( 0.000000000000000000, 0.000000000000000000, -1.000000000000000000 ) ) ;
#798 = PLANE ( 'NONE',  #1025 ) ;
#799 = LINE ( 'NONE', #317, #368 ) ;
#800 = VERTEX_POINT ( 'NONE', #258 ) ;
#801 = LINE ( 'NONE', #336, #726 ) ;
#802 = AXIS2_PLACEMENT_3D ( 'NONE', #822, #634, #649 ) ;
#803 = DIRECTION ( 'NONE',  ( 1.000000000000000000, 9.227252531791529091E-17, 0.000000000000000000 ) ) ;
#804 = DIRECTION ( 'NONE',  ( 0.000000000000000000, 0.000000000000000000, 1.000000000000000000 ) ) ;
#805 = CARTESIAN_POINT ( 'NONE',  ( -8.149999999999998579, -7.520210813410089529E-16, 0.000000000000000000 ) ) ;
#806 = LINE ( 'NONE', #1173, #849 ) ;
#807 = ORIENTED_EDGE ( 'NONE', *, *, #190, .F. ) ;
#808 = CARTESIAN_POINT ( 'NONE',  ( 8.149999999999998579, 1.504042162682019878E-15, 0.000000000000000000 ) ) ;
#809 = ADVANCED_FACE ( 'NONE', ( #523 ), #1090, .T. ) ;
#810 = ORIENTED_EDGE ( 'NONE', *, *, #1121, .F. ) ;
#811 = EDGE_CURVE ( 'NONE', #221, #711, #801, .T. ) ;
#812 = VERTEX_POINT ( 'NONE', #517 ) ;
#813 = DIRECTION ( 'NONE',  ( 1.000000000000000000, 0.000000000000000000, 0.000000000000000000 ) ) ;
#814 = LINE ( 'NONE', #293, #644 ) ;
#815 = FILL_AREA_STYLE_COLOUR ( '', #567 ) ;
#816 = VERTEX_POINT ( 'NONE', #45 ) ;
#817 = CARTESIAN_POINT ( 'NONE',  ( -8.149999999999998579, -1.399999999999999911, 0.000000000000000000 ) ) ;
#818 = PLANE ( 'NONE',  #605 ) ;
#819 = VERTEX_POINT ( 'NONE', #439 ) ;
#820 = CARTESIAN_POINT ( 'NONE',  ( 8.149999999999998579, 1.399999999999999911, 0.000000000000000000 ) ) ;
#821 = VERTEX_POINT ( 'NONE', #144 ) ;
#822 = CARTESIAN_POINT ( 'NONE',  ( -1.399999999999999911, 9.400000000000000355, 10.00000000000000000 ) ) ;
#823 = PLANE ( 'NONE',  #150 ) ;
#824 = PLANE ( 'NONE',  #118 ) ;
#825 = MECHANICAL_DESIGN_GEOMETRIC_PRESENTATION_REPRESENTATION (  '', ( #29 ), #890 ) ;
#826 = VECTOR ( 'NONE', #334, 1000.000000000000000 ) ;
#827 = VECTOR ( 'NONE', #520, 1000.000000000000000 ) ;
#828 = ADVANCED_FACE ( 'NONE', ( #620 ), #1002, .T. ) ;
#829 = CARTESIAN_POINT ( 'NONE',  ( 7.250000000000000000, 1.000000000000000000, 15.00000000000000000 ) ) ;
#830 = CARTESIAN_POINT ( 'NONE',  ( 9.350000000000001421, 1.399999999999999911, 10.00000000000000000 ) ) ;
#831 = VERTEX_POINT ( 'NONE', #1021 ) ;
#832 = DIRECTION ( 'NONE',  ( 0.000000000000000000, 0.000000000000000000, -1.000000000000000000 ) ) ;
#833 = VERTEX_POINT ( 'NONE', #173 ) ;
#834 = CARTESIAN_POINT ( 'NONE',  ( 8.149999999999998579, 1.504042162682019878E-15, 20.00000000000000000 ) ) ;
#835 = EDGE_CURVE ( 'NONE', #648, #1134, #473, .T. ) ;
#836 = LINE ( 'NONE', #66, #470 ) ;
#837 = EDGE_CURVE ( 'NONE', #621, #22, #186, .T. ) ;
#838 = DIRECTION ( 'NONE',  ( 1.000000000000000000, -5.102127870520019996E-17, 0.000000000000000000 ) ) ;
#839 = ORIENTED_EDGE ( 'NONE', *, *, #356, .F. ) ;
#840 = CARTESIAN_POINT ( 'NONE',  ( -1.399999999999999911, -9.400000000000000355, 10.00000000000000000 ) ) ;
#841 = CARTESIAN_POINT ( 'NONE',  ( 8.149999999999998579, 1.399999999999999911, 10.00000000000000000 ) ) ;
#842 = DIRECTION ( 'NONE',  ( -0.000000000000000000, 1.000000000000000000, 0.000000000000000000 ) ) ;
#843 = DIRECTION ( 'NONE',  ( 0.000000000000000000, 0.000000000000000000, -1.000000000000000000 ) ) ;
#844 = ORIENTED_EDGE ( 'NONE', *, *, #1100, .F. ) ;
#845 = LINE ( 'NONE', #1218, #1147 ) ;
#846 = CARTESIAN_POINT ( 'NONE',  ( 8.149999999999998579, -1.399999999999999911, 10.00000000000000000 ) ) ;
#847 = VECTOR ( 'NONE', #892, 1000.000000000000000 ) ;
#848 = VECTOR ( 'NONE', #729, 1000.000000000000000 ) ;
#849 = VECTOR ( 'NONE', #1183, 1000.000000000000000 ) ;
#850 = LINE ( 'NONE', #191, #968 ) ;
#851 = AXIS2_PLACEMENT_3D ( 'NONE', #1131, #663, #1154 ) ;
#852 = ORIENTED_EDGE ( 'NONE', *, *, #135, .F. ) ;
#853 = EDGE_CURVE ( 'NONE', #1003, #831, #746, .T. ) ;
#854 = ORIENTED_EDGE ( 'NONE', *, *, #259, .T. ) ;
#855 = EDGE_CURVE ( 'NONE', #922, #899, #955, .T. ) ;
#856 = CARTESIAN_POINT ( 'NONE',  ( 1.399999999999999911, -9.400000000000000355, 10.00000000000000000 ) ) ;
#857 = DIRECTION ( 'NONE',  ( -5.102127870520019996E-17, -1.000000000000000000, 0.000000000000000000 ) ) ;
#858 = ORIENTED_EDGE ( 'NONE', *, *, #1009, .F. ) ;
#859 = CARTESIAN_POINT ( 'NONE',  ( -1.000000000000000000, -3.061276722312014463E-16, 15.00000000000000000 ) ) ;
#860 = DIRECTION ( 'NONE',  ( -1.000000000000000000, 1.807003620809174878E-16, 0.000000000000000000 ) ) ;
#861 = CARTESIAN_POINT ( 'NONE',  ( -1.399999999999999911, 9.400000000000000355, 0.000000000000000000 ) ) ;
#862 = CARTESIAN_POINT ( 'NONE',  ( -1.000000000000000000, 8.500000000000000000, -2.999999999999999112 ) ) ;
#863 = LINE ( 'NONE', #8, #624 ) ;
#864 = ORIENTED_EDGE ( 'NONE', *, *, #1047, .F. ) ;
#865 = DIRECTION ( 'NONE',  ( -1.000000000000000000, 1.807003620809174878E-16, 0.000000000000000000 ) ) ;
#866 = LINE ( 'NONE', #14, #946 ) ;
#867 = VERTEX_POINT ( 'NONE', #550 ) ;
#868 = EDGE_CURVE ( 'NONE', #711, #867, #467, .T. ) ;
#869 = VECTOR ( 'NONE', #954, 1000.000000000000000 ) ;
#870 = ADVANCED_FACE ( 'NONE', ( #1149 ), #668, .T. ) ;
#871 = VECTOR ( 'NONE', #536, 1000.000000000000000 ) ;
#872 = VECTOR ( 'NONE', #306, 1000.000000000000000 ) ;
#873 = CARTESIAN_POINT ( 'NONE',  ( 0.000000000000000000, 0.000000000000000000, 10.00000000000000000 ) ) ;
#874 = AXIS2_PLACEMENT_3D ( 'NONE', #846, #110, #860 ) ;
#875 = ORIENTED_EDGE ( 'NONE', *, *, #373, .T. ) ;
#876 = DIRECTION ( 'NONE',  ( 0.000000000000000000, 1.000000000000000000, 0.000000000000000000 ) ) ;
#877 = ORIENTED_EDGE ( 'NONE', *, *, #1121, .T. ) ;
#878 = DIRECTION ( 'NONE',  ( 1.000000000000000000, 0.000000000000000000, 0.000000000000000000 ) ) ;
#879 = ORIENTED_EDGE ( 'NONE', *, *, #457, .F. ) ;
#880 = CARTESIAN_POINT ( 'NONE',  ( -9.350000000000001421, 1.399999999999999911, 0.000000000000000000 ) ) ;
#881 = DIRECTION ( 'NONE',  ( 1.000000000000000000, 0.000000000000000000, 0.000000000000000000 ) ) ;
#882 = ORIENTED_EDGE ( 'NONE', *, *, #487, .T. ) ;
#883 = DIRECTION ( 'NONE',  ( -3.061276722312015942E-16, 1.000000000000000000, 0.000000000000000000 ) ) ;
#884 = ADVANCED_FACE ( 'NONE', ( #741 ), #654, .F. ) ;
#885 = LINE ( 'NONE', #805, #827 ) ;
#886 = CARTESIAN_POINT ( 'NONE',  ( 7.250000000000000000, 1.000000000000000000, 15.00000000000000000 ) ) ;
#887 = EDGE_LOOP ( 'NONE', ( #1187, #1119, #932, #64 ) ) ;
#888 = ORIENTED_EDGE ( 'NONE', *, *, #487, .F. ) ;
#889 = VECTOR ( 'NONE', #613, 1000.000000000000000 ) ;
#890 =( GEOMETRIC_REPRESENTATION_CONTEXT ( 3 ) GLOBAL_UNCERTAINTY_ASSIGNED_CONTEXT ( ( #96 ) ) GLOBAL_UNIT_ASSIGNED_CONTEXT ( ( #614, #627, #538 ) ) REPRESENTATION_CONTEXT ( 'NONE', 'WORKASPACE' ) );
#891 = AXIS2_PLACEMENT_3D ( 'NONE', #1114, #643, #6 ) ;
#892 = DIRECTION ( 'NONE',  ( -1.000000000000000000, 0.000000000000000000, 0.000000000000000000 ) ) ;
#893 = EDGE_CURVE ( 'NONE', #102, #616, #850, .T. ) ;
#894 = PLANE ( 'NONE',  #194 ) ;
#895 = ORIENTED_EDGE ( 'NONE', *, *, #1118, .T. ) ;
#896 = CARTESIAN_POINT ( 'NONE',  ( 1.399999999999999911, 9.400000000000000355, 0.000000000000000000 ) ) ;
#897 = DIRECTION ( 'NONE',  ( -0.000000000000000000, 0.000000000000000000, 1.000000000000000000 ) ) ;
#898 = ORIENTED_EDGE ( 'NONE', *, *, #225, .F. ) ;
#899 = VERTEX_POINT ( 'NONE', #1028 ) ;
#900 = DIRECTION ( 'NONE',  ( -0.000000000000000000, -0.000000000000000000, 1.000000000000000000 ) ) ;
#901 = LINE ( 'NONE', #943, #985 ) ;
#902 = CARTESIAN_POINT ( 'NONE',  ( 1.399999999999999911, 9.400000000000000355, 0.000000000000000000 ) ) ;
#903 = EDGE_CURVE ( 'NONE', #32, #102, #267, .T. ) ;
#904 = DIRECTION ( 'NONE',  ( -0.000000000000000000, -0.000000000000000000, 1.000000000000000000 ) ) ;
#905 = ORIENTED_EDGE ( 'NONE', *, *, #76, .F. ) ;
#906 = CLOSED_SHELL ( 'NONE', ( #103, #776, #603, #884, #56, #1087, #541, #252, #91, #315, #513, #870, #444, #595, #578, #192, #828, #1054, #219, #531, #796, #640, #7, #809, #331, #927, #978, #422, #1226, #682, #211, #554, #1139, #1150, #576, #398 ) ) ;
#907 = LINE ( 'NONE', #808, #928 ) ;
#908 = VECTOR ( 'NONE', #775, 1000.000000000000000 ) ;
#909 = VECTOR ( 'NONE', #557, 1000.000000000000000 ) ;
#910 = VECTOR ( 'NONE', #397, 1000.000000000000000 ) ;
#911 = ORIENTED_EDGE ( 'NONE', *, *, #261, .F. ) ;
#912 = CARTESIAN_POINT ( 'NONE',  ( 7.250000000000000000, -1.000000000000000000, 15.00000000000000000 ) ) ;
#913 = VERTEX_POINT ( 'NONE', #1222 ) ;
#914 = CARTESIAN_POINT ( 'NONE',  ( 1.399999999999999911, 10.59999999999999964, 10.00000000000000000 ) ) ;
#915 = ORIENTED_EDGE ( 'NONE', *, *, #41, .F. ) ;
#916 = ORIENTED_EDGE ( 'NONE', *, *, #316, .F. ) ;
#917 = CARTESIAN_POINT ( 'NONE',  ( -1.399999999999999911, 9.400000000000000355, 10.00000000000000000 ) ) ;
#918 = DIRECTION ( 'NONE',  ( 0.000000000000000000, 0.000000000000000000, -1.000000000000000000 ) ) ;
#919 = ORIENTED_EDGE ( 'NONE', *, *, #101, .T. ) ;
#920 = VERTEX_POINT ( 'NONE', #365 ) ;
#921 = EDGE_CURVE ( 'NONE', #159, #913, #375, .T. ) ;
#922 = VERTEX_POINT ( 'NONE', #574 ) ;
#923 = DIRECTION ( 'NONE',  ( -5.102127870520019996E-17, -1.000000000000000000, 0.000000000000000000 ) ) ;
#924 = FACE_OUTER_BOUND ( 'NONE', #448, .T. ) ;
#925 = CARTESIAN_POINT ( 'NONE',  ( -9.350000000000001421, 1.399999999999999911, 10.00000000000000000 ) ) ;
#926 = EDGE_CURVE ( 'NONE', #195, #956, #199, .T. ) ;
#927 = ADVANCED_FACE ( 'NONE', ( #458 ), #767, .T. ) ;
#928 = VECTOR ( 'NONE', #69, 1000.000000000000000 ) ;
#929 = LINE ( 'NONE', #257, #174 ) ;
#930 = DIRECTION ( 'NONE',  ( -0.000000000000000000, 1.000000000000000000, 0.000000000000000000 ) ) ;
#931 = ORIENTED_EDGE ( 'NONE', *, *, #136, .F. ) ;
#932 = ORIENTED_EDGE ( 'NONE', *, *, #855, .T. ) ;
#933 = LINE ( 'NONE', #105, #871 ) ;
#934 = DIRECTION ( 'NONE',  ( 1.000000000000000000, 0.000000000000000000, 0.000000000000000000 ) ) ;
#935 = ORIENTED_EDGE ( 'NONE', *, *, #237, .F. ) ;
#936 = EDGE_LOOP ( 'NONE', ( #27, #85, #542, #522, #728, #1205, #895, #622 ) ) ;
#937 = LINE ( 'NONE', #546, #291 ) ;
#938 = CARTESIAN_POINT ( 'NONE',  ( 7.250000000000000000, -1.000000000000000000, 15.00000000000000000 ) ) ;
#939 = EDGE_CURVE ( 'NONE', #1062, #867, #382, .T. ) ;
#940 = CARTESIAN_POINT ( 'NONE',  ( 1.399999999999999911, -10.59999999999999964, 0.000000000000000000 ) ) ;
#941 = EDGE_CURVE ( 'NONE', #544, #1010, #294, .T. ) ;
#942 = ORIENTED_EDGE ( 'NONE', *, *, #459, .F. ) ;
#943 = CARTESIAN_POINT ( 'NONE',  ( -7.250000000000000000, 1.000000000000000000, 15.00000000000000000 ) ) ;
#944 = ORIENTED_EDGE ( 'NONE', *, *, #1148, .T. ) ;
#945 = CARTESIAN_POINT ( 'NONE',  ( -1.399999999999999911, 10.59999999999999964, 0.000000000000000000 ) ) ;
#946 = VECTOR ( 'NONE', #415, 1000.000000000000000 ) ;
#947 = VECTOR ( 'NONE', #250, 1000.000000000000000 ) ;
#948 = VECTOR ( 'NONE', #642, 1000.000000000000000 ) ;
#949 = CARTESIAN_POINT ( 'NONE',  ( 0.000000000000000000, 9.400000000000000355, 18.00000000000000000 ) ) ;
#950 = LINE ( 'NONE', #1152, #872 ) ;
#951 = PLANE ( 'NONE',  #802 ) ;
#952 = EDGE_LOOP ( 'NONE', ( #70, #370, #997, #405 ) ) ;
#953 = CARTESIAN_POINT ( 'NONE',  ( -7.250000000000000000, 1.000000000000000000, 0.000000000000000000 ) ) ;
#954 = DIRECTION ( 'NONE',  ( 0.000000000000000000, 0.000000000000000000, -1.000000000000000000 ) ) ;
#955 = LINE ( 'NONE', #89, #787 ) ;
#956 = VERTEX_POINT ( 'NONE', #568 ) ;
#957 = EDGE_LOOP ( 'NONE', ( #844, #251, #592, #628, #383, #168, #337, #608, #559, #217, #524, #1030, #973, #1116, #1151, #609, #1223, #55, #269, #435 ) ) ;
#958 = EDGE_CURVE ( 'NONE', #597, #460, #98, .T. ) ;
#959 = LINE ( 'NONE', #393, #1167 ) ;
#960 = FACE_OUTER_BOUND ( 'NONE', #967, .T. ) ;
#961 = FACE_OUTER_BOUND ( 'NONE', #957, .T. ) ;
#962 = ORIENTED_EDGE ( 'NONE', *, *, #434, .T. ) ;
#963 = DIRECTION ( 'NONE',  ( -0.000000000000000000, 1.000000000000000000, 0.000000000000000000 ) ) ;
#964 = EDGE_LOOP ( 'NONE', ( #879, #344, #440, #230 ) ) ;
#965 = PLANE ( 'NONE',  #412 ) ;
#966 = CARTESIAN_POINT ( 'NONE',  ( 1.000000000000000000, 8.500000000000000000, 15.00000000000000000 ) ) ;
#967 = EDGE_LOOP ( 'NONE', ( #1156, #107, #1189, #1086 ) ) ;
#968 = VECTOR ( 'NONE', #1040, 1000.000000000000000 ) ;
#969 = VECTOR ( 'NONE', #618, 1000.000000000000000 ) ;
#970 = DIRECTION ( 'NONE',  ( 0.000000000000000000, -1.000000000000000000, 0.000000000000000000 ) ) ;
#971 = VERTEX_POINT ( 'NONE', #481 ) ;
#972 = EDGE_CURVE ( 'NONE', #771, #1055, #863, .T. ) ;
#973 = ORIENTED_EDGE ( 'NONE', *, *, #1047, .T. ) ;
#974 = FACE_OUTER_BOUND ( 'NONE', #1184, .T. ) ;
#975 = CARTESIAN_POINT ( 'NONE',  ( -1.399999999999999911, 9.400000000000000355, 0.000000000000000000 ) ) ;
#976 = ORIENTED_EDGE ( 'NONE', *, *, #853, .T. ) ;
#977 = ORIENTED_EDGE ( 'NONE', *, *, #610, .T. ) ;
#978 = ADVANCED_FACE ( 'NONE', ( #581, #961 ), #113, .F. ) ;
#979 = EDGE_CURVE ( 'NONE', #469, #432, #950, .T. ) ;
#980 = LINE ( 'NONE', #1182, #196 ) ;
#981 = PLANE ( 'NONE',  #495 ) ;
#982 = CARTESIAN_POINT ( 'NONE',  ( 7.250000000000000000, -3.699042706127014867E-16, 0.000000000000000000 ) ) ;
#983 = VECTOR ( 'NONE', #36, 1000.000000000000000 ) ;
#984 = FACE_OUTER_BOUND ( 'NONE', #80, .T. ) ;
#985 = VECTOR ( 'NONE', #843, 1000.000000000000000 ) ;
#986 = ORIENTED_EDGE ( 'NONE', *, *, #612, .T. ) ;
#987 = AXIS2_PLACEMENT_3D ( 'NONE', #515, #149, #897 ) ;
#988 = VECTOR ( 'NONE', #436, 1000.000000000000000 ) ;
#989 = VECTOR ( 'NONE', #485, 1000.000000000000000 ) ;
#990 = FACE_OUTER_BOUND ( 'NONE', #697, .T. ) ;
#991 = ORIENTED_EDGE ( 'NONE', *, *, #1162, .T. ) ;
#992 = CARTESIAN_POINT ( 'NONE',  ( 1.399999999999999911, 10.59999999999999964, 10.00000000000000000 ) ) ;
#993 = EDGE_CURVE ( 'NONE', #1053, #460, #687, .T. ) ;
#994 = ORIENTED_EDGE ( 'NONE', *, *, #121, .T. ) ;
#995 = FILL_AREA_STYLE ('',( #815 ) ) ;
#996 = ORIENTED_EDGE ( 'NONE', *, *, #993, .T. ) ;
#997 = ORIENTED_EDGE ( 'NONE', *, *, #338, .F. ) ;
#998 = FACE_OUTER_BOUND ( 'NONE', #332, .T. ) ;
#999 = ADVANCED_BREP_SHAPE_REPRESENTATION ( 'Button', ( #794, #769 ), #689 ) ;
#1000 = LINE ( 'NONE', #607, #527 ) ;
#1001 = ORIENTED_EDGE ( 'NONE', *, *, #669, .F. ) ;
#1002 = PLANE ( 'NONE',  #215 ) ;
#1003 = VERTEX_POINT ( 'NONE', #1124 ) ;
#1004 = VECTOR ( 'NONE', #734, 1000.000000000000000 ) ;
#1005 = CARTESIAN_POINT ( 'NONE',  ( 1.399999999999999911, 10.59999999999999964, 10.00000000000000000 ) ) ;
#1006 = DIRECTION ( 'NONE',  ( 1.000000000000000000, 0.000000000000000000, 0.000000000000000000 ) ) ;
#1007 = VECTOR ( 'NONE', #218, 1000.000000000000000 ) ;
#1008 = DIRECTION ( 'NONE',  ( -0.000000000000000000, 1.000000000000000000, 0.000000000000000000 ) ) ;
#1009 = EDGE_CURVE ( 'NONE', #1215, #1003, #271, .T. ) ;
#1010 = VERTEX_POINT ( 'NONE', #276 ) ;
#1011 = DIRECTION ( 'NONE',  ( -0.000000000000000000, -0.000000000000000000, -1.000000000000000000 ) ) ;
#1012 = LINE ( 'NONE', #12, #327 ) ;
#1013 = ORIENTED_EDGE ( 'NONE', *, *, #151, .F. ) ;
#1014 = LINE ( 'NONE', #1083, #1004 ) ;
#1015 = EDGE_CURVE ( 'NONE', #1181, #22, #1012, .T. ) ;
#1016 = ORIENTED_EDGE ( 'NONE', *, *, #835, .F. ) ;
#1017 = CARTESIAN_POINT ( 'NONE',  ( -7.250000000000000000, -1.000000000000000000, 15.00000000000000000 ) ) ;
#1018 = LINE ( 'NONE', #65, #948 ) ;
#1019 = LINE ( 'NONE', #339, #705 ) ;
#1020 = EDGE_LOOP ( 'NONE', ( #19, #1217, #1013, #236 ) ) ;
#1021 = CARTESIAN_POINT ( 'NONE',  ( 8.149999999999998579, -1.399999999999999911, 10.00000000000000000 ) ) ;
#1022 = ORIENTED_EDGE ( 'NONE', *, *, #190, .T. ) ;
#1023 = EDGE_LOOP ( 'NONE', ( #430, #44, #911, #281, #129, #529, #749, #454 ) ) ;
#1024 = CARTESIAN_POINT ( 'NONE',  ( 1.000000000000000444, 1.000000000000000000, 18.00000000000000000 ) ) ;
#1025 = AXIS2_PLACEMENT_3D ( 'NONE', #326, #147, #813 ) ;
#1026 = VECTOR ( 'NONE', #203, 1000.000000000000000 ) ;
#1027 = CARTESIAN_POINT ( 'NONE',  ( 8.149999999999998579, -9.400000000000000355, 18.00000000000000000 ) ) ;
#1028 = CARTESIAN_POINT ( 'NONE',  ( -8.149999999999998579, 1.399999999999999911, 10.00000000000000000 ) ) ;
#1029 = ORIENTED_EDGE ( 'NONE', *, *, #993, .F. ) ;
#1030 = ORIENTED_EDGE ( 'NONE', *, *, #921, .F. ) ;
#1031 = LINE ( 'NONE', #1099, #268 ) ;
#1032 = DIRECTION ( 'NONE',  ( 0.000000000000000000, 0.000000000000000000, -1.000000000000000000 ) ) ;
#1033 = CARTESIAN_POINT ( 'NONE',  ( 9.350000000000001421, 1.399999999999999911, 10.00000000000000000 ) ) ;
#1034 = EDGE_CURVE ( 'NONE', #414, #195, #782, .T. ) ;
#1035 = CARTESIAN_POINT ( 'NONE',  ( -8.149999999999998579, 1.399999999999999911, 10.00000000000000000 ) ) ;
#1036 = VERTEX_POINT ( 'NONE', #601 ) ;
#1037 = CARTESIAN_POINT ( 'NONE',  ( -8.149999999999998579, 9.400000000000000355, 0.000000000000000000 ) ) ;
#1038 = CARTESIAN_POINT ( 'NONE',  ( -7.250000000000000000, -1.000000000000000888, 0.000000000000000000 ) ) ;
#1039 = CARTESIAN_POINT ( 'NONE',  ( 1.000000000000000000, 8.500000000000000000, 0.000000000000000000 ) ) ;
#1040 = DIRECTION ( 'NONE',  ( 0.000000000000000000, 0.000000000000000000, -1.000000000000000000 ) ) ;
#1041 = CARTESIAN_POINT ( 'NONE',  ( 7.250000000000000000, 8.500000000000000000, 18.00000000000000000 ) ) ;
#1042 = ORIENTED_EDGE ( 'NONE', *, *, #119, .F. ) ;
#1043 = CARTESIAN_POINT ( 'NONE',  ( 8.149999999999998579, 1.399999999999999911, 10.00000000000000000 ) ) ;
#1044 = VECTOR ( 'NONE', #106, 1000.000000000000000 ) ;
#1045 = DIRECTION ( 'NONE',  ( 1.000000000000000000, 0.000000000000000000, 0.000000000000000000 ) ) ;
#1046 = DIRECTION ( 'NONE',  ( 1.000000000000000000, 0.000000000000000000, 0.000000000000000000 ) ) ;
#1047 = EDGE_CURVE ( 'NONE', #159, #648, #980, .T. ) ;
#1048 = CARTESIAN_POINT ( 'NONE',  ( 0.000000000000000000, 0.000000000000000000, 0.000000000000000000 ) ) ;
#1049 = DIRECTION ( 'NONE',  ( 1.000000000000000000, 0.000000000000000000, 0.000000000000000000 ) ) ;
#1050 = CARTESIAN_POINT ( 'NONE',  ( 1.399999999999999911, -10.59999999999999964, 10.00000000000000000 ) ) ;
#1051 = APPLICATION_CONTEXT ( 'automotive_design' ) ;
#1052 = CARTESIAN_POINT ( 'NONE',  ( 0.000000000000000000, 0.000000000000000000, 0.000000000000000000 ) ) ;
#1053 = VERTEX_POINT ( 'NONE', #1005 ) ;
#1054 = ADVANCED_FACE ( 'NONE', ( #1085 ), #793, .T. ) ;
#1055 = VERTEX_POINT ( 'NONE', #319 ) ;
#1056 = FACE_OUTER_BOUND ( 'NONE', #241, .T. ) ;
#1057 = CARTESIAN_POINT ( 'NONE',  ( 7.250000000000000000, 1.000000000000000000, 15.00000000000000000 ) ) ;
#1058 = ORIENTED_EDGE ( 'NONE', *, *, #148, .F. ) ;
#1059 = LINE ( 'NONE', #699, #1077 ) ;
#1060 = AXIS2_PLACEMENT_3D ( 'NONE', #484, #1129, #655 ) ;
#1061 = AXIS2_PLACEMENT_3D ( 'NONE', #83, #1120, #535 ) ;
#1062 = VERTEX_POINT ( 'NONE', #698 ) ;
#1063 = VECTOR ( 'NONE', #324, 1000.000000000000000 ) ;
#1064 = CARTESIAN_POINT ( 'NONE',  ( 0.000000000000000000, -8.500000000000000000, 18.00000000000000000 ) ) ;
#1065 = CARTESIAN_POINT ( 'NONE',  ( 9.350000000000001421, 1.399999999999999911, 0.000000000000000000 ) ) ;
#1066 = ORIENTED_EDGE ( 'NONE', *, *, #939, .F. ) ;
#1067 = CARTESIAN_POINT ( 'NONE',  ( 1.399999999999999911, -9.400000000000000355, 10.00000000000000000 ) ) ;
#1068 = CARTESIAN_POINT ( 'NONE',  ( -9.350000000000001421, -1.399999999999999911, 0.000000000000000000 ) ) ;
#1069 = ORIENTED_EDGE ( 'NONE', *, *, #296, .T. ) ;
#1070 = DIRECTION ( 'NONE',  ( 0.000000000000000000, 1.000000000000000000, 0.000000000000000000 ) ) ;
#1071 = LINE ( 'NONE', #226, #1063 ) ;
#1072 = AXIS2_PLACEMENT_3D ( 'NONE', #873, #100, #406 ) ;
#1073 = VECTOR ( 'NONE', #48, 1000.000000000000000 ) ;
#1074 = VECTOR ( 'NONE', #388, 1000.000000000000000 ) ;
#1075 = EDGE_CURVE ( 'NONE', #1111, #821, #323, .T. ) ;
#1076 = ORIENTED_EDGE ( 'NONE', *, *, #625, .T. ) ;
#1077 = VECTOR ( 'NONE', #47, 1000.000000000000000 ) ;
#1078 = EDGE_CURVE ( 'NONE', #1165, #582, #232, .T. ) ;
#1079 = DIRECTION ( 'NONE',  ( -9.227252531791529091E-17, 1.000000000000000000, 0.000000000000000000 ) ) ;
#1080 = LINE ( 'NONE', #992, #493 ) ;
#1081 = CARTESIAN_POINT ( 'NONE',  ( 7.250000000000000000, 1.000000000000000000, -24.82153022471871040 ) ) ;
#1082 = ORIENTED_EDGE ( 'NONE', *, *, #445, .F. ) ;
#1083 = CARTESIAN_POINT ( 'NONE',  ( -1.000000000000000000, -3.061276722312014463E-16, 15.00000000000000000 ) ) ;
#1084 = ORIENTED_EDGE ( 'NONE', *, *, #941, .F. ) ;
#1085 = FACE_OUTER_BOUND ( 'NONE', #46, .T. ) ;
#1086 = ORIENTED_EDGE ( 'NONE', *, *, #136, .T. ) ;
#1087 = ADVANCED_FACE ( 'NONE', ( #998 ), #798, .T. ) ;
#1088 = LINE ( 'NONE', #1065, #969 ) ;
#1089 = ORIENTED_EDGE ( 'NONE', *, *, #556, .T. ) ;
#1090 = PLANE ( 'NONE',  #392 ) ;
#1091 = VERTEX_POINT ( 'NONE', #706 ) ;
#1092 = VERTEX_POINT ( 'NONE', #717 ) ;
#1093 = EDGE_CURVE ( 'NONE', #971, #1053, #1080, .T. ) ;
#1094 = FACE_OUTER_BOUND ( 'NONE', #395, .T. ) ;
#1095 = EDGE_LOOP ( 'NONE', ( #761, #353, #991, #552, #774 ) ) ;
#1096 = SURFACE_STYLE_USAGE ( .BOTH. , #164 ) ;
#1097 = ORIENTED_EDGE ( 'NONE', *, *, #369, .T. ) ;
#1098 = EDGE_LOOP ( 'NONE', ( #1136, #201, #858, #716 ) ) ;
#1099 = CARTESIAN_POINT ( 'NONE',  ( 1.000000000000000000, 8.500000000000000000, -2.999999999999999112 ) ) ;
#1100 = EDGE_CURVE ( 'NONE', #165, #1198, #885, .T. ) ;
#1101 = DIRECTION ( 'NONE',  ( -1.000000000000000000, 0.000000000000000000, 0.000000000000000000 ) ) ;
#1102 = ORIENTED_EDGE ( 'NONE', *, *, #148, .T. ) ;
#1103 = EDGE_CURVE ( 'NONE', #460, #686, #790, .T. ) ;
#1104 = CARTESIAN_POINT ( 'NONE',  ( 0.000000000000000000, 0.000000000000000000, -3.000000000000000000 ) ) ;
#1105 = ORIENTED_EDGE ( 'NONE', *, *, #410, .T. ) ;
#1106 = LINE ( 'NONE', #81, #685 ) ;
#1107 = CARTESIAN_POINT ( 'NONE',  ( 0.000000000000000000, 0.000000000000000000, 15.00000000000000000 ) ) ;
#1108 = EDGE_LOOP ( 'NONE', ( #1082, #322, #183, #51 ) ) ;
#1109 = FACE_OUTER_BOUND ( 'NONE', #1020, .T. ) ;
#1110 = FACE_OUTER_BOUND ( 'NONE', #964, .T. ) ;
#1111 = VERTEX_POINT ( 'NONE', #60 ) ;
#1112 = CARTESIAN_POINT ( 'NONE',  ( 1.399999999999999911, -9.400000000000000355, 0.000000000000000000 ) ) ;
#1113 = CARTESIAN_POINT ( 'NONE',  ( -8.149999999999998579, -9.400000000000000355, 0.000000000000000000 ) ) ;
#1114 = CARTESIAN_POINT ( 'NONE',  ( 8.149999999999998579, 1.399999999999999911, 10.00000000000000000 ) ) ;
#1115 = CARTESIAN_POINT ( 'NONE',  ( -7.250000000000000000, 0.000000000000000000, 0.000000000000000000 ) ) ;
#1116 = ORIENTED_EDGE ( 'NONE', *, *, #835, .T. ) ;
#1117 = DIRECTION ( 'NONE',  ( 0.000000000000000000, -1.000000000000000000, 0.000000000000000000 ) ) ;
#1118 = EDGE_CURVE ( 'NONE', #833, #499, #345, .T. ) ;
#1119 = ORIENTED_EDGE ( 'NONE', *, *, #125, .F. ) ;
#1120 = DIRECTION ( 'NONE',  ( -0.000000000000000000, 0.000000000000000000, 1.000000000000000000 ) ) ;
#1121 = EDGE_CURVE ( 'NONE', #298, #621, #1018, .T. ) ;
#1122 = VECTOR ( 'NONE', #272, 1000.000000000000000 ) ;
#1123 = VECTOR ( 'NONE', #23, 1000.000000000000000 ) ;
#1124 = CARTESIAN_POINT ( 'NONE',  ( 9.350000000000001421, -1.399999999999999911, 10.00000000000000000 ) ) ;
#1125 = VECTOR ( 'NONE', #876, 1000.000000000000000 ) ;
#1126 = CARTESIAN_POINT ( 'NONE',  ( 1.399999999999999911, -10.59999999999999964, 10.00000000000000000 ) ) ;
#1127 = ORIENTED_EDGE ( 'NONE', *, *, #1162, .F. ) ;
#1128 = FACE_OUTER_BOUND ( 'NONE', #181, .T. ) ;
#1129 = DIRECTION ( 'NONE',  ( 0.000000000000000000, 0.000000000000000000, -1.000000000000000000 ) ) ;
#1130 = CARTESIAN_POINT ( 'NONE',  ( 9.350000000000001421, 1.399999999999999911, 10.00000000000000000 ) ) ;
#1131 = CARTESIAN_POINT ( 'NONE',  ( 0.000000000000000000, 8.500000000000000000, 20.00000000000000000 ) ) ;
#1132 = PRODUCT_RELATED_PRODUCT_CATEGORY ( 'part', '', ( #180 ) ) ;
#1133 = DIRECTION ( 'NONE',  ( 0.000000000000000000, 0.000000000000000000, -1.000000000000000000 ) ) ;
#1134 = VERTEX_POINT ( 'NONE', #371 ) ;
#1135 = LINE ( 'NONE', #743, #116 ) ;
#1136 = ORIENTED_EDGE ( 'NONE', *, *, #1148, .F. ) ;
#1137 = APPLICATION_PROTOCOL_DEFINITION ( 'draft international standard', 'automotive_design', 1998, #10 ) ;
#1138 = DIRECTION ( 'NONE',  ( 0.000000000000000000, -1.000000000000000000, 0.000000000000000000 ) ) ;
#1139 = ADVANCED_FACE ( 'NONE', ( #178, #745 ), #156, .T. ) ;
#1140 = DIRECTION ( 'NONE',  ( 1.000000000000000000, 0.000000000000000000, 0.000000000000000000 ) ) ;
#1141 = EDGE_LOOP ( 'NONE', ( #260, #650, #456, #62 ) ) ;
#1142 = FACE_OUTER_BOUND ( 'NONE', #673, .T. ) ;
#1143 = CARTESIAN_POINT ( 'NONE',  ( -7.250000000000000000, 1.000000000000000000, 15.00000000000000000 ) ) ;
#1144 = LINE ( 'NONE', #674, #313 ) ;
#1145 = CARTESIAN_POINT ( 'NONE',  ( 1.399999999999999911, 10.59999999999999964, 0.000000000000000000 ) ) ;
#1146 = VECTOR ( 'NONE', #528, 1000.000000000000000 ) ;
#1147 = VECTOR ( 'NONE', #1006, 1000.000000000000000 ) ;
#1148 = EDGE_CURVE ( 'NONE', #831, #819, #651, .T. ) ;
#1149 = FACE_OUTER_BOUND ( 'NONE', #1195, .T. ) ;
#1150 = ADVANCED_FACE ( 'NONE', ( #1109 ), #162, .F. ) ;
#1151 = ORIENTED_EDGE ( 'NONE', *, *, #719, .T. ) ;
#1152 = CARTESIAN_POINT ( 'NONE',  ( 7.250000000000000000, 1.000000000000000000, 15.00000000000000000 ) ) ;
#1153 = FACE_OUTER_BOUND ( 'NONE', #710, .T. ) ;
#1154 = DIRECTION ( 'NONE',  ( 1.000000000000000000, 0.000000000000000000, 0.000000000000000000 ) ) ;
#1155 = PLANE ( 'NONE',  #766 ) ;
#1156 = ORIENTED_EDGE ( 'NONE', *, *, #719, .F. ) ;
#1157 = LINE ( 'NONE', #1220, #75 ) ;
#1158 = ORIENTED_EDGE ( 'NONE', *, *, #37, .F. ) ;
#1159 = CARTESIAN_POINT ( 'NONE',  ( -7.250000000000000000, -8.500000000000000000, 18.00000000000000000 ) ) ;
#1160 = CARTESIAN_POINT ( 'NONE',  ( -1.399999999999999911, -9.400000000000000355, 10.00000000000000000 ) ) ;
#1161 = EDGE_CURVE ( 'NONE', #358, #708, #937, .T. ) ;
#1162 = EDGE_CURVE ( 'NONE', #693, #713, #1031, .T. ) ;
#1163 = VECTOR ( 'NONE', #832, 1000.000000000000000 ) ;
#1164 = VECTOR ( 'NONE', #182, 1000.000000000000000 ) ;
#1165 = VERTEX_POINT ( 'NONE', #1113 ) ;
#1166 = VECTOR ( 'NONE', #189, 1000.000000000000000 ) ;
#1167 = VECTOR ( 'NONE', #653, 1000.000000000000000 ) ;
#1168 = DIRECTION ( 'NONE',  ( 0.000000000000000000, -1.000000000000000000, 0.000000000000000000 ) ) ;
#1169 = CARTESIAN_POINT ( 'NONE',  ( 9.350000000000001421, -1.399999999999999911, 0.000000000000000000 ) ) ;
#1170 = CARTESIAN_POINT ( 'NONE',  ( 1.399999999999999911, 9.400000000000000355, 10.00000000000000000 ) ) ;
#1171 = CARTESIAN_POINT ( 'NONE',  ( 1.000000000000000444, 1.000000000000000000, -2.999999999999999112 ) ) ;
#1172 = EDGE_CURVE ( 'NONE', #158, #922, #1206, .T. ) ;
#1173 = CARTESIAN_POINT ( 'NONE',  ( -8.149999999999998579, -9.400000000000000355, 18.00000000000000000 ) ) ;
#1174 = ORIENTED_EDGE ( 'NONE', *, *, #610, .F. ) ;
#1175 = DIRECTION ( 'NONE',  ( 1.000000000000000000, 0.000000000000000000, 0.000000000000000000 ) ) ;
#1176 = CARTESIAN_POINT ( 'NONE',  ( 1.000000000000000000, 8.500000000000000000, -2.999999999999999112 ) ) ;
#1177 = DIRECTION ( 'NONE',  ( 0.000000000000000000, 0.000000000000000000, -1.000000000000000000 ) ) ;
#1178 = VECTOR ( 'NONE', #970, 1000.000000000000000 ) ;
#1179 = ORIENTED_EDGE ( 'NONE', *, *, #691, .T. ) ;
#1180 = VECTOR ( 'NONE', #1191, 1000.000000000000000 ) ;
#1181 = VERTEX_POINT ( 'NONE', #463 ) ;
#1182 = CARTESIAN_POINT ( 'NONE',  ( 1.399999999999999911, -9.400000000000000355, 0.000000000000000000 ) ) ;
#1183 = DIRECTION ( 'NONE',  ( -1.000000000000000000, 0.000000000000000000, 0.000000000000000000 ) ) ;
#1184 = EDGE_LOOP ( 'NONE', ( #558, #631, #1179, #114, #931, #352, #146, #670 ) ) ;
#1185 = ORIENTED_EDGE ( 'NONE', *, *, #459, .T. ) ;
#1186 = PLANE ( 'NONE',  #428 ) ;
#1187 = ORIENTED_EDGE ( 'NONE', *, *, #1192, .F. ) ;
#1188 = DIRECTION ( 'NONE',  ( -0.000000000000000000, -1.000000000000000000, 0.000000000000000000 ) ) ;
#1189 = ORIENTED_EDGE ( 'NONE', *, *, #1034, .T. ) ;
#1190 = VERTEX_POINT ( 'NONE', #817 ) ;
#1191 = DIRECTION ( 'NONE',  ( 1.000000000000000000, 0.000000000000000000, 0.000000000000000000 ) ) ;
#1192 = EDGE_CURVE ( 'NONE', #708, #1198, #1213, .T. ) ;
#1193 = EDGE_CURVE ( 'NONE', #899, #1198, #750, .T. ) ;
#1194 = DIRECTION ( 'NONE',  ( -3.061276722312015942E-16, 1.000000000000000000, 0.000000000000000000 ) ) ;
#1195 = EDGE_LOOP ( 'NONE', ( #1016, #15, #171, #24 ) ) ;
#1196 = LINE ( 'NONE', #748, #1163 ) ;
#1197 = AXIS2_PLACEMENT_3D ( 'NONE', #1035, #842, #1214 ) ;
#1198 = VERTEX_POINT ( 'NONE', #249 ) ;
#1199 =( NAMED_UNIT ( * ) PLANE_ANGLE_UNIT ( ) SI_UNIT ( $, .RADIAN. ) );
#1200 = VECTOR ( 'NONE', #1201, 1000.000000000000000 ) ;
#1201 = DIRECTION ( 'NONE',  ( -1.000000000000000000, 0.000000000000000000, 0.000000000000000000 ) ) ;
#1202 = ORIENTED_EDGE ( 'NONE', *, *, #26, .T. ) ;
#1203 = DIRECTION ( 'NONE',  ( 1.000000000000000000, 0.000000000000000000, 0.000000000000000000 ) ) ;
#1204 = CARTESIAN_POINT ( 'NONE',  ( 0.000000000000000000, 8.500000000000000000, 18.00000000000000000 ) ) ;
#1205 = ORIENTED_EDGE ( 'NONE', *, *, #501, .T. ) ;
#1206 = LINE ( 'NONE', #925, #988 ) ;
#1207 = CARTESIAN_POINT ( 'NONE',  ( -8.149999999999998579, -7.520210813410089529E-16, 0.000000000000000000 ) ) ;
#1208 = EDGE_CURVE ( 'NONE', #645, #1036, #845, .T. ) ;
#1209 = CARTESIAN_POINT ( 'NONE',  ( 0.000000000000000000, -9.400000000000000355, 0.000000000000000000 ) ) ;
#1210 = EDGE_CURVE ( 'NONE', #432, #693, #629, .T. ) ;
#1211 = EDGE_LOOP ( 'NONE', ( #916, #342, #600, #2 ) ) ;
#1212 = ORIENTED_EDGE ( 'NONE', *, *, #338, .T. ) ;
#1213 = LINE ( 'NONE', #74, #1180 ) ;
#1214 = DIRECTION ( 'NONE',  ( 1.000000000000000000, 0.000000000000000000, 0.000000000000000000 ) ) ;
#1215 = VERTEX_POINT ( 'NONE', #1130 ) ;
#1216 = DIRECTION ( 'NONE',  ( 0.000000000000000000, 0.000000000000000000, -1.000000000000000000 ) ) ;
#1217 = ORIENTED_EDGE ( 'NONE', *, *, #669, .T. ) ;
#1218 = CARTESIAN_POINT ( 'NONE',  ( 0.000000000000000000, 8.500000000000000000, 0.000000000000000000 ) ) ;
#1219 = VECTOR ( 'NONE', #1140, 1000.000000000000000 ) ;
#1220 = CARTESIAN_POINT ( 'NONE',  ( 8.149999999999998579, -1.399999999999999911, 0.000000000000000000 ) ) ;
#1221 = AXIS2_PLACEMENT_3D ( 'NONE', #657, #13, #374 ) ;
#1222 = CARTESIAN_POINT ( 'NONE',  ( 8.149999999999998579, -9.400000000000000355, 0.000000000000000000 ) ) ;
#1223 = ORIENTED_EDGE ( 'NONE', *, *, #514, .F. ) ;
#1224 = CARTESIAN_POINT ( 'NONE',  ( 7.250000000000000000, 1.000000000000000000, 15.00000000000000000 ) ) ;
#1225 = LINE ( 'NONE', #4, #346 ) ;
#1226 = ADVANCED_FACE ( 'NONE', ( #732 ), #824, .T. ) ;
#1227 = DIRECTION ( 'NONE',  ( 1.845450506358304832E-16, -1.000000000000000000, 0.000000000000000000 ) ) ;
ENDSEC;
END-ISO-10303-21;
