M48
; DRILL file {KiCad (5.1.5)-3} date 01/17/20 15:00:20
; FORMAT={-:-/ absolute / metric / decimal}
; #@! TF.CreationDate,2020-01-17T15:00:20+01:00
; #@! TF.GenerationSoftware,Kicad,Pcbnew,(5.1.5)-3
FMAT,2
METRIC
T1C0.300
T2C0.800
T3C0.920
T4C1.000
T5C2.330
T6C3.800
%
G90
G05
T1
X80.918Y-51.788
X80.918Y-62.202
X80.918Y-81.934
X80.918Y-106.934
X80.918Y-125.584
X80.918Y-131.934
X82.442Y-51.788
X82.442Y-81.934
X82.442Y-106.934
X82.442Y-125.009
X82.442Y-131.934
X83.204Y-55.598
X83.966Y-51.788
X83.966Y-81.934
X83.966Y-106.934
X83.966Y-124.434
X83.966Y-131.934
X85.109Y-58.773
X85.49Y-50.772
X85.49Y-81.172
X85.49Y-106.172
X85.49Y-131.172
X87.376Y-59.436
X88.538Y-58.392
X89.3Y-53.312
X90.57Y-132.696
X91.967Y-57.503
X92.602Y-131.426
X93.11Y-72.79
X93.11Y-74.314
X93.745Y-57.503
X103.143Y-58.392
X105.918Y-81.934
X105.918Y-106.934
X105.918Y-125.584
X105.918Y-131.934
X106.934Y-63.9
X106.934Y-65.424
X107.442Y-81.934
X107.442Y-106.934
X107.442Y-125.009
X107.442Y-131.934
X108.712Y-52.042
X108.966Y-81.934
X108.966Y-106.934
X108.966Y-124.434
X108.966Y-131.934
X109.474Y-52.042
X110.236Y-52.042
X110.49Y-81.172
X110.49Y-106.172
X110.49Y-131.172
X112.268Y-34.516
X112.268Y-37.31
X113.03Y-34.516
X113.03Y-37.31
X113.03Y-56.868
X115.57Y-132.442
X116.459Y-46.708
X117.602Y-33.246
X117.602Y-47.724
X117.856Y-131.68
X118.618Y-89.408
X118.618Y-91.186
X118.618Y-97.282
X118.618Y-99.314
X119.38Y-34.008
X119.38Y-49.248
X119.888Y-30.96
X119.907Y-42.136
X120.269Y-37.31
X120.396Y-49.502
X121.158Y-50.264
X121.666Y-40.358
X122.174Y-52.042
X122.428Y-32.992
X123.19Y-46.962
X123.19Y-50.264
X123.698Y-30.452
X123.952Y-39.342
X123.952Y-46.962
X123.952Y-50.264
X124.46Y-33.754
X124.638Y-39.479
X124.841Y-36.548
X124.86Y-59.281
X124.994Y-45.412
X125.069Y-47.115
X125.527Y-50.315
X125.527Y-51.315
X125.622Y-105.763
X125.629Y-46.047
X125.85Y-34.35
X125.984Y-29.775
X126.238Y-44.676
X126.492Y-30.452
X126.492Y-52.804
X126.527Y-50.315
X126.527Y-51.315
X126.746Y-31.214
X127.0Y-34.897
X127.0Y-45.692
X127.048Y-37.516
X127.254Y-52.804
X127.762Y-37.564
X127.762Y-42.517
X127.762Y-44.93
X128.016Y-52.804
X128.198Y-36.938
X128.33Y-44.168
X128.515Y-46.2
X128.515Y-47.537
X128.778Y-36.04
X128.924Y-75.029
X129.286Y-35.532
X129.432Y-63.218
X129.559Y-42.39
X129.559Y-47.687
X129.794Y-36.294
X129.988Y-40.837
X130.067Y-67.917
X130.067Y-77.442
X130.302Y-32.738
X130.321Y-62.075
X130.918Y-81.934
X130.918Y-106.934
X130.918Y-125.584
X130.918Y-131.934
X131.169Y-42.136
X131.21Y-61.059
X131.318Y-43.914
X131.591Y-42.898
X132.099Y-75.791
X132.226Y-60.043
X132.308Y-33.728
X132.442Y-81.934
X132.442Y-106.934
X132.442Y-125.009
X132.442Y-131.934
X132.461Y-38.072
X132.842Y-34.897
X132.969Y-36.167
X133.096Y-38.46
X133.242Y-30.706
X133.369Y-37.31
X133.75Y-46.327
X133.858Y-53.82
X133.966Y-81.934
X133.966Y-106.934
X133.966Y-124.434
X133.966Y-131.934
X134.366Y-52.042
X134.982Y-92.456
X135.001Y-37.31
X135.02Y-32.103
X135.401Y-43.152
X135.401Y-44.803
X135.401Y-46.327
X135.49Y-81.172
X135.49Y-106.172
X135.49Y-131.172
X135.528Y-58.265
X135.655Y-30.833
X136.252Y-91.186
X136.417Y-85.824
X136.579Y-42.679
X137.522Y-99.568
X138.284Y-97.282
X138.703Y-31.468
X138.792Y-101.346
X140.316Y-89.916
X140.316Y-131.934
X140.354Y-65.123
X141.224Y-124.968
X141.243Y-66.139
X142.856Y-132.95
X144.272Y-124.968
T2
X131.49Y-119.02
X138.39Y-116.22
X106.49Y-94.02
X113.39Y-91.22
X106.49Y-119.02
X113.39Y-116.22
X81.49Y-119.02
X88.39Y-116.22
X81.49Y-38.62
X88.39Y-35.82
X131.49Y-94.02
X138.39Y-91.22
X81.49Y-69.02
X88.39Y-66.22
X81.49Y-94.02
X88.39Y-91.22
X106.49Y-69.02
X113.39Y-66.22
X131.49Y-69.02
X138.39Y-66.22
T3
X109.22Y-42.93
X109.22Y-44.93
X111.72Y-42.93
X111.72Y-44.93
T4
X113.03Y-53.82
X115.57Y-53.82
X118.11Y-53.82
X120.65Y-53.82
X143.364Y-48.74
X143.364Y-51.28
X143.364Y-53.82
X143.364Y-56.36
T5
X104.45Y-40.22
X116.49Y-40.22
T6
X85.49Y-121.52
X85.49Y-96.52
X110.49Y-71.52
X135.49Y-71.52
X135.49Y-121.52
X110.49Y-96.52
X110.49Y-121.52
X85.49Y-41.12
X135.49Y-96.52
X85.49Y-71.52
T0
M30
